<svg xmlns="http://www.w3.org/2000/svg" width="256" height="256" viewBox="0 0 256 256">
  <defs>
    <style>
      .cls-1 {
        fill-rule: evenodd;
      }
    </style>
  </defs>
  <path id="Registro_de_usuario_icono" data-name="Registro de usuario icono" class="cls-1" d="M85,113A45.189,45.189,0,0,1,74,92c-0.431-.662-9.058-5.081-5-23-0.419-.935-5.806-7.3-2-28-0.758-1.015,5.508-36.645,40-38,1.782,0.124,20,0,20,0s32.721-.152,41,38c-0.172,2.229,3.163,17.762-2,28,0.706,1.185,3.8,18.863-5,24-1.547.217-4.451,15.1-12,21-0.439,1.7-3.21,14.921,14,21,0.4,0.539,45.636,11.974,50,29-22.429-4.883-73.858,20.441-46,74-0.976-.571-129.045,13.747-160-22,0.508-.473-8.056-30.786,22-63-0.008.178,7.31-11.591,40-18,0.052-.206,14.009-1.518,16-20C84.991,114.763,85,113,85,113Zm121,55s38.747,0.158,42,42c0.07,0.329.855,39-42,43,0.163,0.233-40.8.047-42-42-0.207-.137-2.414-38.586,40-43C204.251,167.943,206,168,206,168Zm-7,23h14v12h13v14H213v14H199V217H186V203h13V191Z"/>
</svg>
