<svg xmlns="http://www.w3.org/2000/svg" width="256" height="256" viewBox="0 0 256 256">
  <defs>
    <style>
      .cls-1 {
        fill-rule: evenodd;
      }
    </style>
  </defs>
  <path id="Continuar_sin_registrar_icono" data-name="Continuar sin registrar icono" class="cls-1" d="M100.1,14H252V240.987H238.567V25.147H118.7L117.667,90,100.1,75.813V14Zm69.233,28.373L233.4,25.147V242l-64.067-16.213V42.373ZM100.1,178.16l18.6-13.173v76H100.1V178.16ZM11.233,100.133H66V70.747s1.239-4.6,7.233-4.053c0.18,0.049,3.1,0,3.1,0l71.3,55.734s5.125,4.538,0,9.12c0.019,0.007-66.133,51.68-66.133,51.68s-8.491,8.921-15.5,0c0.038-6.859,0-28.374,0-28.374H9.167S3.994,154.522,4,149.787s0-43.574,0-43.574-0.547-5.985,6.2-6.08C10.306,100.163,11.233,100.133,11.233,100.133Z"/>
</svg>
