<svg xmlns="http://www.w3.org/2000/svg" width="256" height="256" viewBox="0 0 256 256">
  <defs>
    <style>
      .cls-1 {
        fill-rule: evenodd;
      }
    </style>
  </defs>
  <path id="TurisCams_icono" data-name="TurisCams icono" class="cls-1" d="M242.837,175.116c0.026-.017-81.685,0-81.685,0l68.07-119.4S269.6,104.623,242.837,175.116ZM118.215,4.393s65.926-7.624,105.771,46.085c-0.235.249-39.795,71.221-39.795,71.221ZM15.585,75.615S43.1,10.27,111.931,5.44c0.506,1.264,38.748,70.174,38.748,70.174H15.585ZM95.176,81.9L27.1,200.253S-14.027,146.5,13.491,81.9C14.759,82.208,95.176,81.9,95.176,81.9Zm42.936,169.676s-71.457,8.138-106.818-47.133c0.737-.9,40.843-70.174,40.843-70.174Zm102.63-71.222s-27.348,62.986-95.3,70.174c0.127-.159-39.8-70.174-39.8-70.174H240.742Z"/>
</svg>
