<svg xmlns="http://www.w3.org/2000/svg" width="256" height="256" viewBox="0 0 256 256">
  <defs>
    <style>
      .cls-1 {
        fill-rule: evenodd;
      }
    </style>
  </defs>
  <path id="alerta" class="cls-1" d="M108.727,39.7s17.846-37.558,38.447,0c0.193,0,99.72,162.087,99.72,162.087S263.33,224.105,237.282,233c-0.941-.185-218.663,0-218.663,0s-26.065-.746-10.813-30.016C8.1,202.554,108.727,39.7,108.727,39.7Zm9.6,57.494c-0.749-9.579,18.192-13.9,19.231.137-0.036,1.884-.18,61.568-0.18,61.568-0.3,6.618-18.23,10.725-19.043-1.536C118.284,157.148,118.331,97.191,118.331,97.191Zm9.62,87.783s9.113-.408,9.611,9.605c0.044-.066-0.8,8.829-9.611,9.606-0.222-.016-8.359-0.151-9.612-9.606C119.521,184.664,127.951,184.974,127.951,184.974Z"/>
</svg>
