<svg xmlns="http://www.w3.org/2000/svg" width="256" height="256" viewBox="0 0 256 256">
  <metadata><?xpacket begin="﻿" id="W5M0MpCehiHzreSzNTczkc9d"?>
<x:xmpmeta xmlns:x="adobe:ns:meta/" x:xmptk="Adobe XMP Core 5.6-c138 79.159824, 2016/09/14-01:09:01        ">
   <rdf:RDF xmlns:rdf="http://www.w3.org/1999/02/22-rdf-syntax-ns#">
      <rdf:Description rdf:about=""/>
   </rdf:RDF>
</x:xmpmeta>
                                                                                                    
                                                                                                    
                                                                                                    
                                                                                                    
                                                                                                    
                                                                                                    
                                                                                                    
                                                                                                    
                                                                                                    
                                                                                                    
                                                                                                    
                                                                                                    
                                                                                                    
                                                                                                    
                                                                                                    
                                                                                                    
                                                                                                    
                                                                                                    
                                                                                                    
                                                                                                    
                           
<?xpacket end="w"?></metadata>
<defs>
    <style>
      .cls-1 {
        fill-rule: evenodd;
      }
    </style>
  </defs>
  <path id="Alerta_icono" data-name="Alerta icono" class="cls-1" d="M108.668,37.174s18.347-38.632,39.527,0c0.2,0,102.523,166.718,102.523,166.718s16.9,22.96-9.882,32.109c-0.968-.191-224.81,0-224.81,0s-26.8-.767-11.117-30.874C5.213,204.684,108.668,37.174,108.668,37.174Zm-52.656,2C55.078,27.106,78.7,21.657,80,39.347c-0.045,2.374-.225,77.573-0.225,77.573-0.375,8.338-22.739,13.513-23.754-1.935C55.954,114.719,56.012,39.175,56.012,39.175Zm12,110.6s11.368-.515,11.989,12.1c0.055-.083-1,11.123-11.989,12.1-0.276-.02-10.427-0.19-11.989-12.1C57.5,149.388,68.011,149.779,68.011,149.779Z"/>
</svg>
