<svg xmlns="http://www.w3.org/2000/svg" width="256" height="256" viewBox="0 0 256 256">
  <metadata><?xpacket begin="﻿" id="W5M0MpCehiHzreSzNTczkc9d"?>
<x:xmpmeta xmlns:x="adobe:ns:meta/" x:xmptk="Adobe XMP Core 5.6-c138 79.159824, 2016/09/14-01:09:01        ">
   <rdf:RDF xmlns:rdf="http://www.w3.org/1999/02/22-rdf-syntax-ns#">
      <rdf:Description rdf:about=""/>
   </rdf:RDF>
</x:xmpmeta>
                                                                                                    
                                                                                                    
                                                                                                    
                                                                                                    
                                                                                                    
                                                                                                    
                                                                                                    
                                                                                                    
                                                                                                    
                                                                                                    
                                                                                                    
                                                                                                    
                                                                                                    
                                                                                                    
                                                                                                    
                                                                                                    
                                                                                                    
                                                                                                    
                                                                                                    
                                                                                                    
                           
<?xpacket end="w"?></metadata>
<defs>
    <style>
      .cls-1 {
        fill: inherit;
        fill-rule: evenodd;
      }
    </style>
  </defs>
  <path id="Playas_icono" data-name="Playas icono" class="cls-1" d="M112.083-.009c14.891-.318,27.276,3.079,36.54,8.54,3.062,1.805,6.4,3.58,9.429,5.6,1.693,1.126,2.734,2.963,5.3,3.239,2.13-2.9,6.6-4.253,9.725-6.184,11.232-6.934,33.094-15.349,49.505-7.951,9.986,4.5,16.038,14.211,20.332,24.442,1.38,3.288,1.55,6.365,2.652,10.013a42.013,42.013,0,0,1,2.063,9.718h-0.589c-2.06-2.834-5.869-4.514-8.84-6.479a86.516,86.516,0,0,0-22.4-10.6c-3.49-1.075-7.282-.932-10.9-1.767-3.281-.756-8.366-0.021-10.9.589-1.851.445-3,.066-4.714,0.589-6.242,1.9-15.483,5.822-17.091,12.074h0.589c2.348-2.125,8.944-1.506,13.26-1.472,10.659,0.083,20.449,3.161,28.289,6.479,16.881,7.144,30.178,15.926,37.129,32.982,2.145,5.264,4.733,14.154,2.947,22.086-0.589,2.616-.662,5.292-1.474,7.951a74.208,74.208,0,0,1-7.072,16.491c-0.81,1.331-.948,2.8-1.768,4.123-1.841,2.972-4.226,5.98-6.188,8.835-0.993,1.444-1.927,3.937-3.536,4.711-3.148-35.709-18.255-58.428-41.549-73.915-13.244-8.805-27.917-14.206-45.969-6.773a110.387,110.387,0,0,0-15.913,7.657c-18.046,11.2-31.233,26.993-39.781,47.707-2.308,5.593-3.314,11.9-5.01,17.963l-1.179,7.657-0.295-.295c-1.083-1.195-1.336-2.825-2.063-4.417-1.969-4.315-4.137-9.2-5.894-13.841-0.78-2.061-.7-3.719-1.473-5.889-1.533-4.315-2.371-9.547-3.536-14.43-2.691-11.277.591-26.409,3.831-33.866,6.739-15.509,18.729-25.087,35.36-30.626,5.313-1.769,11.278-1.913,17.092-3.239l14.733,0.294V37.685c-1.2-.8-2.1-2.126-3.241-2.945A46.864,46.864,0,0,0,128,29.145c-7.03-2.481-18.1-2.091-25.048,0-16,4.813-25.515,13.016-32.119,27.093H70.534V46.814l1.179-8.246c1.471-5.555,3.159-11.415,5.894-15.9C82.633,14.419,89.559,7.21,98.823,3.23l8.84-2.65C109.2,0.192,110.935.7,112.083-.009Zm51.568,70.382c2.043,0.249,10.126,4.912,10.314,6.773,1.177,1.861.067,5.154,0.589,7.657,0.859,4.121-.387,9.69.589,14.43a48.9,48.9,0,0,1,.295,14.135c-1.143,7.551-.052,16.425-1.768,23.559-1.5,6.254-1.736,12.973-3.536,19.141-2.97,10.176-6.238,20.144-11.2,28.271-3.178,5.208-5.883,9.7-10.019,13.841-1.429,1.432-2.341,3.662-5.009,3.828-2.108,1.325-5.587.779-8.251,1.472-5.344,1.391-10.779,1.88-16.207,3.534-8.34,2.542-17.321,4.572-25.931,7.068-2.483.72-4.414,0.259-7.072,0.883-3.07.722-11.162,1.45-14.734,0.589-2.73-.658-5.9-1.456-8.546-2.061V212.9c3.753-.071,7.594-1.821,10.608-2.945l3.831-.883A113.679,113.679,0,0,0,100,197c32.533-22.845,51.383-65.468,51.568-120.445C153.213,76.164,162.838,71.361,163.651,70.373ZM0.991,212.02c3.991,2.513,7.666,6.011,11.787,8.541,9.368,5.749,20.455,9.6,32.12,12.957,33.614,9.663,73.556-1.138,100.483-9.424,7.347-2.26,14.966-3.147,22.4-5.006,4.071-1.018,7.792-.241,12.081-1.178,5.085-1.11,14.62-.845,19.449.3,4.221,1,7.889.581,11.787,1.767,10.605,3.224,20.634,6.573,29.172,11.779,4.3,2.622,12.083,5.469,14.734,9.424h-1.768c-1.188-.871-2.982-0.457-4.715-0.884-3.541-.872-7.915-1.23-11.492-2.061h-2.947c-2.158-.487-5.474-0.68-7.661-1.178h-4.126c-7.071-1.536-17.535-1.471-25.636-1.473H180.447c-8.339,1.89-16.538,1.763-23.868,4.418-10.1,3.658-20.374,7.372-30.941,10.6-5.664,1.731-11.911,2.146-17.68,3.534L90.867,255.6h-8.84a28.292,28.292,0,0,1-9.43,0H67.587l-14.144-2.356c-12.735-3.868-20.847-7.891-30.351-14.724a71.654,71.654,0,0,1-17.68-18.552C4.166,218.138.628,214.115,0.991,212.02Z"/>
</svg>
