<svg xmlns="http://www.w3.org/2000/svg" width="256" height="256" viewBox="0 0 256 256">
  <metadata><?xpacket begin="﻿" id="W5M0MpCehiHzreSzNTczkc9d"?>
<x:xmpmeta xmlns:x="adobe:ns:meta/" x:xmptk="Adobe XMP Core 5.6-c138 79.159824, 2016/09/14-01:09:01        ">
   <rdf:RDF xmlns:rdf="http://www.w3.org/1999/02/22-rdf-syntax-ns#">
      <rdf:Description rdf:about=""/>
   </rdf:RDF>
</x:xmpmeta>
                                                                                                    
                                                                                                    
                                                                                                    
                                                                                                    
                                                                                                    
                                                                                                    
                                                                                                    
                                                                                                    
                                                                                                    
                                                                                                    
                                                                                                    
                                                                                                    
                                                                                                    
                                                                                                    
                                                                                                    
                                                                                                    
                                                                                                    
                                                                                                    
                                                                                                    
                                                                                                    
                           
<?xpacket end="w"?></metadata>
<defs>
    <style>
      .cls-1 {
        fill-rule: evenodd;
      }
    </style>
  </defs>
  <path id="Calendario_icono" data-name="Calendario icono" class="cls-1" d="M62.211,8.032H79.828s6.057-.014,6.218,6.2,0,44.465,0,44.465,0.744,6.208-7.254,6.2-16.581,0-16.581,0-4.972.849-5.181-6.2,0-45.5,0-45.5-1.076-5.089,4.145-5.17C61.291,8.065,62.211,8.032,62.211,8.032Zm116.066,0h14.508s7.26-.937,7.254,7.238,0,42.4,0,42.4,1.022,7.2-6.217,7.238-17.618,0-17.618,0-6.191.881-6.217-7.238,0-43.43,0-43.43-1.042-6.169,7.254-6.2A5.681,5.681,0,0,0,178.277,8.032Zm-77.723,27.92h57V60.769S155.635,74.5,175.168,78.348c0.4,0.041,18.654,0,18.654,0s18.569-4.442,18.653-17.579c0.072-.09,0-24.817,0-24.817h26.944S256.148,34.173,256,55.6s0,171.653,0,171.653,0.026,21.683-19.69,21.716-218.66,0-218.66,0-17.526-.1-17.617-21.716S0.032,55.6.032,55.6,0.1,35.868,22.831,35.952c-0.13.075,20.726,0,20.726,0V58.7S41.976,72.814,60.138,78.348c0.527,0.087,19.69,0,19.69,0s19.554-.272,19.69-19.647,0-22.749,0-22.749h1.036Zm35.234,78.588h41.453v20.681H135.788V114.54Zm57,0h41.453v20.681H192.785V114.54Zm0,35.158h41.453v20.681H192.785V149.7Zm-57,0h41.453v20.681H135.788V149.7Zm-57,0H121.28v20.681H78.792V149.7Zm-57,0H64.283v20.681H21.795V149.7Zm0,35.158H64.283v20.681H21.795V184.856Zm57,0H121.28v20.681H78.792V184.856Zm57,0v20.681h41.453V184.856H135.788Zm57,0v20.681h41.453V184.856H192.785ZM21.795,114.54H64.283v20.681H21.795V114.54Zm57,0H121.28v20.681H78.792V114.54Z"/>
</svg>
