<svg id="Otros" xmlns="http://www.w3.org/2000/svg" width="256" height="256" viewBox="0 0 256 256">
  <defs>
    <style>
      .cls-1 {
      	fill: inherit;
        fill-rule: evenodd;
      }
    </style>
  </defs>
  <path id="Ubicaci칩n_de_c치mara_icono" data-name="Ubicaci칩n de c치mara icono" class="cls-1" d="M66.822,0.008c24.289-.4,38,11.025,47.2,25.7q0.263,0.787.524,1.574h0.262v0.525h0.263q0.261,0.787.524,1.574h0.262v0.787h0.263V30.7h0.262v0.787h0.262v0.525h0.262l0.525,2.361c2.4,6.158,3.741,16.436,1.311,23.606q-0.132.918-.263,1.836h-0.262v1.049c-7.9,21.925-20.953,38.893-33.3,56.391l-0.524.263-0.262.786-0.787.525v0.525l-0.787.524V120.4l-1.049.787-0.262.787-0.524.262v0.524l-1.049.787v0.525l-1.049.787-0.262.787-0.524.262v0.524l-0.524.263v0.262l-0.524.262v0.525l-1.049.787v0.524L74.426,130.1v0.525l-1.049.787v0.524l-1.311,1.05v0.524l-0.524.262-1.311,1.836H69.969v-0.262H69.706l-0.262-.787-1.311-1.049v-0.524l-1.311-1.05v-0.524l-1.049-.787V130.1l-1.311-1.049v-0.524l-1.049-.787v-0.525l-0.524-.262v-0.262l-0.525-.263v-0.524l-0.524-.262-0.262-.787-1.049-.787v-0.525l-1.049-.787v-0.524l-0.525-.262-0.262-.787-1.049-.787v-0.525l-0.787-.524-0.262-.787-0.524-.263v-0.524l-0.787-.525v-0.524L54.5,116.2v-0.524l-0.787-.525v-0.525l-0.787-.524v-0.525l-0.525-.262-0.262-.787-0.787-.524V111.48l-0.787-.525v-0.524l-0.524-.262v-0.525l-0.787-.525V108.6l-0.524-.262v-0.525l-0.787-.525v-0.524l-0.524-.262v-0.525l-0.787-.525v-0.524H46.369l-0.262-.787-0.525-.262v-0.525l-0.787-.524V102.3l-0.525-.262-0.262-.787H43.747v-0.525l-0.524-.262V99.939L42.7,99.677V99.153l-0.524-.262V98.366L41.649,98.1V97.579l-0.524-.262V96.792L40.6,96.53V96.005l-0.524-.262V95.218l-0.524-.262V94.431l-0.524-.262V93.645L38.5,93.382V92.858L37.978,92.6l-0.262-1.049H37.454l-0.262-.787L36.667,90.5V89.973H36.4V89.448l-0.524-.262-0.262-1.049-0.524-.262-0.262-.787H34.569l-0.525-1.574-0.524-.262L33.258,84.2l-0.524-.262-0.524-1.574L31.685,82.1,31.161,80.53l-0.524-.262V79.743l-0.524-.525V78.694H29.85V78.17H29.587V77.645H29.325V77.121H29.063V76.6l-0.524-.262-0.262-1.049H28.014L27.49,73.711H27.227V72.924H26.965V72.4H26.7V71.875H26.441V71.35H26.179l-0.524-1.574H25.392V68.99H25.13L24.867,67.94H24.605V67.154H24.343V66.629H24.081V65.842H23.819V65.318H23.556l-2.622-8.393V55.613H20.672V54.3H20.41V52.2H20.148a17.659,17.659,0,0,1,.262-5.77V43.548h0.262V41.712h0.262V40.4H21.2l0.787-4.459h0.262V35.155h0.262V34.368H22.77V33.581h0.262l0.262-1.574h0.262V31.483h0.262V30.7h0.262l0.262-1.049h0.262V28.86h0.262l0.524-1.574h0.262l0.262-1.049,0.524-.262L26.965,24.4l0.524-.262,0.262-1.049,0.524-.262V22.3L28.8,22.04V21.516l0.787-.525V20.467l0.524-.262V19.68l0.524-.262V19.155l0.524-.262V18.368l1.311-1.049V16.795l1.573-1.311L36.667,12.6h0.524L38.5,11.024h0.524l0.524-.787h0.524L40.6,9.451h0.525l0.262-.525h0.524l0.524-.787,1.049-.262,0.262-.525L44.8,7.09l0.262-.525h0.524l0.525-.525h0.524V5.779h0.524l0.262-.525,1.311-.262V4.729h0.524V4.467l1.573-.525V3.68L52.4,3.418V3.156h0.525V2.893L54.5,2.631V2.369h0.787V2.107l1.836-.262V1.582h1.049V1.32h1.049V1.057L62.1,0.8V0.533C63.274,0.19,66.089.655,66.822,0.008ZM67.084,12.86a10.041,10.041,0,0,0,1.573,3.41v0.524l0.525,0.262v0.525h0.262v0.525h0.262v0.525l0.524,0.524V19.68l0.524,0.262v0.525h0.262v0.524l0.524,0.525V22.04L72.066,22.3l0.262,1.049,0.525,0.525V24.4l0.524,0.262v0.525H73.64v0.525l0.525,0.525v0.524l0.524,0.262v0.525l0.524,0.525V28.6l0.524,0.262,0.525,1.574L76.786,30.7l0.524,1.574,0.524,0.262,0.524,1.574,0.524,0.262,0.525,1.574L79.933,36.2l0.262,1.049,0.524,0.262,0.524,1.574,0.524,0.262v0.525h0.262V40.4l0.524,0.525V41.45l0.524,0.262v0.525L83.6,42.761v0.525h0.262V43.81h0.262l0.262,1.049,0.524,0.262v0.525h0.262v0.525h0.262c0.563,1.033.55,2.022,1.836,2.361L87.8,46.958l0.524-.262,0.524-1.574,0.525-.262L89.9,43.286l0.524-.262,0.525-1.574,0.524-.262,0.524-1.574,0.524-.262V38.827h0.262V38.3l0.524-.525V37.253l0.525-.262V36.466h0.262V35.942l0.524-.525V34.892l0.524-.262,0.525-1.574,0.524-.262V32.27h0.262V31.745l0.524-.525V30.7l0.525-.262,0.262-1.049h0.262a6.339,6.339,0,0,0,1.049-2.623l-4.2-4.459H94.355l-0.787-1.049H93.044l-0.524-.787H91.995l-0.262-.525-0.787-.262V19.417H90.421l-0.262-.525H89.635l-0.262-.524H88.848l-0.262-.525H88.061l-0.524-.525H87.013V17.057H86.488V16.795H85.964V16.532l-1.573-.524V15.745H83.6C78.956,13.694,73.845,12.929,67.084,12.86ZM35.618,34.63H76.524V34.368a6.527,6.527,0,0,1-1.049-1.836H75.213V32.007H74.951V31.483H74.688V30.958L74.164,30.7,73.64,29.122l-0.524-.262V28.335H72.853V27.811l-0.525-.525V26.761L71.8,26.5,71.28,24.925l-0.525-.262V24.139H70.493V23.614l-0.524-.525V22.565L69.444,22.3,68.92,20.729,68.4,20.467V19.942H68.133V19.417l-0.524-.525V18.368l-0.524-.262V17.581H66.822V17.057L66.3,16.532V16.008l-0.524-.262V15.221a7.081,7.081,0,0,1-1.049-1.836,6.7,6.7,0,0,0-2.36.525l-4.72.787v0.262l-1.573.262v0.262l-1.573.525V16.27H53.973v0.262H53.449v0.262H52.925v0.262H52.4v0.262H51.876l-0.524.525H50.827l-0.262.525-1.049.262-0.262.524H48.729l-0.262.525H47.942l-0.524.787H46.894l-0.524.787H45.845L44.8,22.565H44.271l-2.1,2.361-1.049.787v0.525l-1.311,1.049v0.525l-0.787.525V28.86l-0.524.262-0.262.787H37.978v0.524l-0.525.262V31.22C36.765,32.264,35.778,33.028,35.618,34.63Zm69.487,30.425q0.656-2.36,1.311-4.721h0.263V59.285h0.262V58.236H107.2V56.662h0.262v-2.1h0.263a27.458,27.458,0,0,0-.263-7.082v-2.1q-0.786-3.409-1.573-6.819H105.63V38.04h-0.262q-0.132-.787-0.263-1.574h-0.262q-0.13-.524-0.262-1.049h-0.262V34.63h-0.262V34.106h-0.263V33.581l-0.524-.262q-0.263-.787-0.524-1.574l-0.525-.262q-0.131-.525-0.262-1.049H101.7V29.909l-0.525-.262c-0.087-.262-0.175-0.525-0.262-0.787l-0.524.262L80.195,65.055C88.149,65.433,96.587,65.06,105.105,65.055ZM38.5,72.662h0.524c0.272-.531.763-1.07,1.049-1.574V70.563L40.6,70.3V69.777h0.262V69.252l0.524-.525V68.2l0.524-.262,0.524-1.574L42.96,66.1l0.524-1.574,0.524-.262,0.525-1.574,0.524-.262V61.908H45.32V61.383l0.524-.525V60.334l0.525-.262L46.894,58.5l0.524-.262,0.524-1.574,0.524-.262,0.524-1.574,0.525-.262V54.039h0.262V53.515L50.3,52.99V52.466l0.524-.262,0.524-1.574,0.524-.262L52.4,48.794l0.525-.262,0.524-1.574,0.524-.262V46.171h0.262V45.646l0.524-.525V44.6l0.524-.262,0.525-1.574,0.524-.262,0.524-1.574,0.524-.262,0.524-1.574,0.524-.262V38.3h0.262l0.524-1.574H34.569a0.459,0.459,0,0,1-.262.262A17.558,17.558,0,0,1,33,40.925l-0.262,2.623c-0.976,3.258-1.288,10.128-.262,13.639V58.76h0.262L33,61.121h0.262v0.787h0.262v0.787h0.262v0.787h0.262l0.262,1.574h0.262L34.832,66.1h0.262v0.787h0.262v0.525h0.262V67.94L36.143,68.2l0.524,1.574,0.524,0.262v0.525l0.525,0.262V71.35h0.262v0.525H38.24Zm89.677-24.13h39.071c-0.11,1.346-1.284,2.656-1.836,3.672q-0.13.525-.262,1.049l-0.525.262v0.525l-0.524.525v0.525h-0.262v0.525H163.58q-0.132.525-.263,1.049l-0.524.262v0.525l-0.525.525V58.5h-0.262v0.525h-0.262q-0.13.525-.262,1.049l-0.525.262v0.525l-0.524.525v0.525h-0.262v0.525h-0.262q-0.132.525-.263,1.049l-0.524.262L158.6,65.318h-0.262q-0.263.787-.524,1.574l-0.525.262v0.525l-0.524.524v0.525H156.5v0.525h-0.262v0.525l-0.525.525v0.525l-0.524.262q-0.132.525-.263,1.049h-0.262v0.525H154.4v0.525l-0.524.525v0.524l-0.525.262v0.525h-0.262v0.525h-0.262v0.524h-0.262V76.6l-0.525.525v0.525c-4.153,6.6-7.374,14.122-11.537,20.721V98.89l-0.525.525v0.525h-0.262v0.525h-0.262l-0.263,1.049c-2.887,4.594-5.237,9.842-8.128,14.426v0.524l-0.525.525v0.525h-0.262v0.524h-0.262q-0.13.525-.262,1.049l-0.525.263q-0.131.523-.262,1.049h-0.262v0.524h-0.262v0.525l-0.525.525V122.5l-0.524.262v0.525h-0.262v0.525h-0.263v0.524h-0.262v0.525l-0.524.524v0.525c-4.251,6.763-7.539,14.488-11.8,21.245v0.525l-0.524.524v0.525H113.5v0.524h-0.262q-0.13.525-.262,1.049l-0.525.263v0.524l-0.524.525v0.524h-0.262v0.525H111.4q-0.132.525-.263,1.049-0.261.132-.524,0.262V154.5l-0.524.525v0.524h-0.263v0.525h-0.262q-0.13.524-.262,1.049l-0.525.262v0.525l-0.524.524v0.525H107.99v0.525h-0.262q-0.132.523-.263,1.049l-0.524.262v0.525l-0.525.524v0.525h-0.262v0.524h-0.262q-0.13.525-.262,1.049l-0.525.263v0.524l-0.524.525v0.524h-0.262V166.3h-0.262l-0.263,1.049q-0.261.132-.524,0.262v0.525l-0.524.525v0.524h-0.263v0.525h-0.262q-0.131.523-.262,1.049l-0.525.262v0.525l-0.524.524v0.525h-0.262v0.524h-0.262v0.525h-0.263q-0.13.525-.262,1.049c-2.783,4.428-5.077,9.478-7.866,13.9v0.525l-0.524.524v0.525H91.208v0.525H90.946l-0.262,1.049L90.159,192v0.525l-0.524.524v0.525H89.373V194.1H89.11l-0.262,1.049-0.524.263v0.524l-0.524.525v0.525H87.537v0.524H87.275v0.525H87.013v0.524H86.75v0.525l-0.524.262v0.525H85.964V200.4H85.7v0.525l-0.524.524v0.525l-0.524.262v0.525l-0.524.524v0.525H83.866v0.525H83.6l-0.262,1.049-0.524.262-0.524,1.574H82.031v0.524H81.768v0.525l-0.524.524v0.525l-0.524.262V210.1H80.457v0.524H80.195v0.525H79.933v0.525l-0.524.524v0.525c-4.151,6.606-7.379,14.119-11.537,20.72l-0.524,1.574H67.084l-0.524,1.574-0.524.262v0.525l-0.525.524v0.525H65.249v0.524H64.986v0.525L64.462,240v0.524l-0.525.262v0.525H63.675v0.525H63.413v0.524l-0.524.525v0.524l-0.525.263V244.2l-0.524.525v0.524H61.578v0.525H61.315V246.3H61.053l-0.262,1.05-0.524.262v0.524l-0.524.525v0.525H59.48v0.524H59.218l-0.262,1.049-0.524.263v0.524l-0.524.525v0.524H57.644v0.525A10.671,10.671,0,0,0,56.071,256H28.538V93.12H28.8v0.262h0.262l0.262,0.787,0.524,0.262,0.262,1.049,0.524,0.262v0.525l0.524,0.262,0.262,1.049,0.524,0.262v0.525l0.524,0.262v0.525L33,99.415v0.525l0.524,0.263,0.262,1.049,0.525,0.262v0.525h0.262l0.262,0.787,0.524,0.262v0.524h0.262L35.88,104.4l0.524,0.263v0.524l0.787,0.525v0.524l0.525,0.263,0.262,0.786H38.24v0.525l0.524,0.262V108.6l0.524,0.262v0.525l0.787,0.524v0.525l0.524,0.262v0.525l0.787,0.524v0.525l0.524,0.262v0.525l0.787,0.524V114.1l0.524,0.262v0.525l0.787,0.524v0.525l0.787,0.524v0.525l0.787,0.525v0.524l0.525,0.262v0.525l0.787,0.525v0.524L47.68,120.4v0.524l0.787,0.525v0.525l1.049,0.786v0.525l0.787,0.525v0.524l0.787,0.525v0.524l1.049,0.787v0.525l0.525,0.262,0.262,0.787,1.049,0.787v0.524l0.787,0.525V130.1l0.524,0.263v0.262l0.525,0.262v0.525l1.049,0.787v0.524l1.311,1.049V134.3l0.524,0.262v0.263l0.524,0.262v0.524l1.311,1.05v0.524l1.049,0.787V138.5l1.573,1.311v0.525l1.311,1.049v0.524l1.835,1.574V144l0.524,0.262v0.262l0.787,0.525v0.524L68.4,146.1l1.573,2.1h0.262v-0.262l0.787-.525v-0.524l1.573-1.312v-0.524L73.9,144v-0.525l1.835-1.574v-0.524l1.311-1.049v-0.525l1.573-1.311v-0.525l1.311-1.049V136.4l0.524-.262v-0.262l0.525-.263v-0.524l1.311-1.049v-0.525l0.524-.262v-0.262l0.524-.263V132.2l1.049-.787v-0.525l1.049-.787v-0.524l1.049-.787v-0.525L87.013,128l0.262-.787,1.049-.787v-0.524l0.787-.525v-0.524l0.787-.525v-0.524l1.049-.787V122.5l0.787-.524v-0.525l0.787-.525V120.4l0.787-.525v-0.524l0.787-.525,0.262-.787,0.524-.262V117.25l0.524-.262v-0.525l0.524-.262,0.262-.787,0.787-.524v-0.525L97.5,114.1v-0.525l0.787-.524v-0.525l0.524-.262v-0.525l0.787-.524v-0.525l0.524-.262v-0.525l0.787-.524v-0.525l0.524-.262c0.088-.262.175-0.525,0.263-0.787h0.262v-0.525l0.524-.262V106.5l0.525-.263V105.71l0.786-.525v-0.524l0.525-.263c0.087-.262.175-0.524,0.262-0.787h0.262v-0.524l0.525-.262V102.3l0.524-.262v-0.525l0.524-.262v-0.525l0.525-.262q0.131-.525.262-1.049l0.525-.262V98.628l0.524-.262V97.841l0.524-.262V97.054l0.525-.262q0.13-.525.262-1.049h0.262c0.088-.262.175-0.525,0.263-0.787l0.524-.262q0.131-.525.262-1.049l0.525-.262q0.131-.524.262-1.049l0.524-.262q0.132-.525.262-1.049l0.525-.262q0.13-.525.262-1.049l0.525-.262q0.261-.787.524-1.574l0.524-.262q0.132-.525.263-1.049h0.262V86.038l0.524-.262V85.251h0.263V84.727h0.262V84.2l0.524-.525V83.153l0.525-.262V82.366l0.524-.525V81.317h0.262V80.793h0.262V80.268h0.263V79.743H119q0.13-.525.262-1.049h0.262V78.17h0.263V77.645h0.262V77.121h0.262V76.6h0.262q0.132-.525.262-1.049H121.1V75.022h0.262V74.235h0.262V73.711h0.262l0.525-1.574h0.262V71.35h0.262V70.826H123.2V70.039h0.263V69.514h0.262V68.727h0.262V68.2h0.262V67.416A45.8,45.8,0,0,0,128.18,48.531Zm108.82,0V195.149a6.138,6.138,0,0,1-2.1-1.049h-0.524c-0.088-.175-0.175-0.349-0.262-0.524h-0.525l-0.524-.525h-0.525v-0.262h-0.524v-0.262l-1.049-.263c-0.087-.175-0.175-0.349-0.262-0.524h-0.525l-0.524-.525h-0.524v-0.262h-0.525v-0.262h-0.524v-0.263l-1.049-.262q-0.132-.262-0.262-0.525h-0.525l-0.524-.524H225.2v-0.262h-0.524v-0.263h-0.525V188.33h-0.524v-0.262H223.1l-0.263-.525h-0.524l-0.525-.524h-0.524v-0.263h-0.524v-0.262h-0.525v-0.262l-1.049-.263c-0.087-.174-0.175-0.349-0.262-0.524l-1.573-.525v-0.262h-0.525V184.4h-0.524l-0.524-.525h-0.525c-0.087-.175-0.175-0.35-0.262-0.524h-0.525l-0.524-.525H213.4V182.56h-0.525V182.3h-0.524l-0.525-.524H211.3q-0.132-.262-0.262-0.525l-1.574-.524v-0.263h-0.524V180.2h-0.525l-0.524-.524H207.37l-0.263-.525h-0.524l-0.524-.525h-0.525v-0.262H205.01V178.1h-0.525l-0.524-.525h-0.525l-0.262-.524H202.65l-0.525-.525H201.6v-0.262h-0.525V176h-0.524V175.74l-1.049-.262c-4.915-3.091-10.557-5.556-15.471-8.655l-1.573-.525v-0.262h-0.524v-0.263H181.41l-0.524-.524h-0.525q-0.13-.262-0.262-0.525h-0.524l-0.525-.524h-0.524v-0.263H178v-0.262h-0.524l-0.524-.524h-0.525l-0.262-.525h-0.525l-0.524-.525h-0.524v-0.262h-0.525v-0.262h-0.524v-0.262l-1.049-.263-0.262-.524h-0.525L171.184,160h-0.525v-0.262h-0.524v-0.262h-0.524v-0.263h-0.525v-0.262h-0.524l-0.263-.525h-0.524l-0.524-.524h-0.525v-0.263H166.2V157.38h-0.525v-0.262l-1.049-.262q-0.13-.262-0.262-0.525h-0.524l-0.525-.525h-0.524v-0.262h-0.525v-0.262h-0.524V155.02l-1.049-.263c-0.087-.175-0.175-0.349-0.262-0.524h-0.524l-0.525-.525H158.86v-0.262h-0.525v-0.262h-0.524v-0.263l-1.049-.262-0.262-.525h-0.525a7.075,7.075,0,0,0-2.1-1.049,6.544,6.544,0,0,1,1.048-1.836v-0.524h0.263V148.2l0.524-.524v-0.525l0.525-.262v-0.525l0.524-.524v-0.525h0.262V144.79h0.262q0.132-.523.263-1.049l0.524-.262v-0.525l0.524-.524v-0.525h0.263v-0.524h0.262q0.13-.525.262-1.049c2.886-4.588,5.234-9.842,8.129-14.426v-0.525l0.524-.524v-0.525H168.3v-0.524l0.525-.525v-0.525l0.524-.262v-0.524l0.525-.525v-0.525h0.262V120.4H170.4q0.132-.525.262-1.049l0.525-.263v-0.524l0.524-.525v-0.524h0.262v-0.525h0.263q0.13-.525.262-1.049l0.524-.262q0.132-.525.263-1.05h0.262V114.1h0.262v-0.525l0.524-.524v-0.525l0.525-.262v-0.525h0.262v-0.524h0.262v-0.525h0.262v-0.524l0.525-.525v-0.525l0.524-.262,0.263-1.049h0.262v-0.525h0.262v-0.524l0.524-.525V105.71l0.525-.263v-0.524h0.262V104.4h0.262v-0.524h0.263v-0.525l0.524-.524V102.3c3.569-5.679,6.388-12.164,9.964-17.835V83.94l0.525-.524V82.891h0.262V82.366h0.262q0.131-.525.262-1.049l0.525-.262V80.53l0.524-.525V79.481h0.262V78.957h0.263q0.13-.525.262-1.049l0.524-.262V77.121L194,76.6V76.071h0.262V75.547h0.262q0.131-.525.262-1.049l0.525-.262q0.131-.525.262-1.049h0.262V72.662h0.262V72.137l0.525-.525V71.088l0.524-.262V70.3h0.262V69.777h0.263V69.252h0.262V68.727l0.524-.525V67.678l0.525-.262V66.891l0.524-.525V65.842h0.262V65.318h0.263q0.131-.525.262-1.049l0.524-.262V63.482l0.525-.525V62.432H201.6V61.908h0.262V61.383h0.262q0.132-.525.263-1.049l0.524-.262V59.547l0.524-.525V58.5H203.7V57.974h0.262q0.13-.525.262-1.049l0.524-.262V56.138h0.263V55.613h0.262V55.088h0.262V54.564l0.525-.525V53.515l0.524-.262V52.728l0.524-.525V51.679h0.263q0.261-.787.524-1.574l0.524-.262a4.529,4.529,0,0,1,.525-1.312H237ZM52.4,53.252a17.882,17.882,0,0,1-1.049,1.574L50.827,56.4l-0.524.262-0.524,1.574-0.525.262v0.525l-0.524.525v0.525l-0.524.262L47.68,61.908l-0.524.262-0.524,1.574H46.369v0.525l-0.525.262L45.32,66.1l-0.524.262L44.271,67.94l-0.524.262-0.524,1.574-0.524.262v0.525H42.436v0.525l-0.524.525v0.525l-0.524.262v0.525H41.125v0.525H40.863v0.525H40.6a1.917,1.917,0,0,0-.262,1.049A6.684,6.684,0,0,1,41.649,76.6l2.36,2.1L44.8,79.743H45.32l0.787,1.049h0.524l0.262,0.525h0.524L47.942,82.1h0.524l0.262,0.525,0.787,0.262v0.262l1.049,0.262,0.262,0.524L51.613,84.2v0.262l1.573,0.525v0.262h0.524l0.262,0.524H54.76v0.262L55.809,86.3v0.262H56.6v0.262h0.787v0.262h0.787V87.35h0.787v0.262l2.1,0.262v0.262L63.938,88.4v0.262l8.915,0.262V88.661a2.155,2.155,0,0,1-.525-1.049H72.066V87.087l-0.524-.262V86.3H71.28V85.776l-0.525-.524V84.727l-0.524-.262V83.94H69.969V83.415l-0.524-.525V82.366L68.92,82.1,68.4,80.53c-3.835-6.1-7.17-12.8-11.013-18.885l-0.524-1.574-0.524-.262V59.285H56.071V58.76l-0.525-.525V57.711l-0.524-.262L54.5,55.875l-0.524-.262V55.088H53.711V54.564H53.449V54.039H53.187C52.745,53.323,53.426,53.548,52.4,53.252Zm10.751,13.9A6.562,6.562,0,0,0,64.2,68.99v0.525h0.262v0.525L64.986,70.3v0.525h0.262V71.35l0.525,0.525V72.4L66.3,72.662v0.525H66.56v0.525h0.262v0.524l0.525,0.525v0.525l0.524,0.262v0.524h0.262V76.6l0.524,0.525v0.525l0.525,0.262v0.525h0.262v0.525l0.524,0.525v0.525l0.524,0.262v0.525h0.262v0.525l0.525,0.525v0.525L71.8,82.629v0.525h0.262l0.525,1.574,0.524,0.262,0.262,1.049L73.9,86.3v0.525h0.262V87.35l0.524,0.262L74.951,88.4h1.573V88.137l3.409-.525,6.031-2.1V85.251l1.049-.262V84.727l1.049-.262,0.262-.525,1.049-.262,0.262-.525h0.524V82.891h0.525l0.524-.787h0.524l0.525-.787h0.524l0.787-1.049h0.525L95.4,78.694l2.884-2.623V75.547L99.6,74.5V73.973l0.787-.525V72.924l0.786-.525V71.875l0.525-.262V71.088l0.524-.262V70.3l0.525-.262V69.514l0.524-.262a5.772,5.772,0,0,0,.787-2.1H63.151ZM237,256H97.5l0.524-1.574,0.524-.262v-0.525l0.525-.524V252.59h0.262v-0.524H99.6l0.262-1.049,0.525-.263V250.23l0.524-.525v-0.524h0.262v-0.525h0.262l0.263-1.049q0.261-.132.524-0.262V246.82l0.525-.525v-0.524h0.262v-0.525h0.262q0.13-.524.262-1.049l0.525-.262V243.41l0.524-.524v-0.525h0.262v-0.524h0.262q0.132-.525.263-1.05l0.524-.262V240l0.524-.525v-0.525h0.263v-0.524h0.262q0.131-.525.262-1.049l0.525-.263v-0.524l0.524-.525v-0.524h0.262v-0.525h0.262l0.263-1.049q0.261-.132.524-0.262v-0.525l0.525-.525v-0.524h0.262v-0.525h0.262q0.131-.523.262-1.049c2.886-4.59,5.237-9.841,8.129-14.426v-0.524l0.524-.525v-0.524h0.263v-0.525h0.262q0.13-.525.262-1.049c2.783-4.428,5.079-9.476,7.866-13.9v-0.525l0.525-.524V197.51h0.262v-0.524h0.262q0.132-.525.263-1.05l0.524-.262v-0.525l0.524-.524V194.1H130.8v-0.524h0.262q0.13-.525.262-1.049l0.524-.263V191.74h0.263v-0.525h0.262v-0.524h0.262v-0.525H132.9v-0.525l0.525-.524v-0.525l0.524-.262v-0.525l0.525-.524v-0.525h0.262v-0.524H135q0.131-.525.262-1.049l0.525-.263V184.4h0.262v-0.525h0.262q0.132-.393.262-0.787c0.527,0.151.227-.031,0.525,0.263a6.5,6.5,0,0,1,1.835,1.049h0.525v0.262h0.524v0.262h0.525l0.524,0.525h0.524c0.088,0.175.175,0.35,0.263,0.524h0.524l0.525,0.525h0.524v0.262h0.524v0.263l1.574,0.524q0.131,0.262.262,0.525h0.524l0.525,0.524h0.524v0.263h0.525v0.262h0.524v0.262l1.049,0.262,0.262,0.525h0.525l0.524,0.525h0.524v0.262h0.525v0.262H152.3v0.262l1.049,0.263c0.088,0.175.175,0.349,0.262,0.524h0.525l0.524,0.525h0.525v0.262h0.524v0.262h0.525v0.263h0.524v0.262h0.524l0.263,0.525h0.524l0.524,0.524h0.525v0.262h0.524v0.263h0.525v0.262l1.049,0.262q0.13,0.262.262,0.525h0.524l0.525,0.525h0.524v0.262h0.525v0.262H164.1v0.262l1.049,0.263c0.087,0.174.175,0.349,0.262,0.524h0.525v0.263h0.524v0.262h0.524v0.262h0.525v0.262h0.524l0.525,0.525h0.524l0.262,0.525h0.525l0.524,0.524h0.525v0.262h0.524v0.263h0.524v0.262l1.049,0.262,0.263,0.525,1.573,0.524v0.263l1.573,0.524q0.132,0.262.262,0.525h0.525l0.524,0.524h0.525v0.263h0.524v0.262h0.525l0.524,0.525h0.524c0.088,0.174.175,0.349,0.263,0.524h0.524l0.524,0.525H182.2v0.262h0.524v0.262h0.525V208l1.049,0.262c5.081,3.195,10.918,5.714,16,8.918h0.524l0.525,0.524h0.524v0.262h0.525v0.263h0.524v0.262l1.049,0.262,0.262,0.525h0.524l0.525,0.524H205.8v0.263h0.525v0.262h0.524v0.262h0.525v0.263h0.524l0.262,0.524h0.525l0.524,0.525h0.525v0.262h0.524v0.262h0.524v0.263l1.049,0.262,0.262,0.524h0.525L213.138,224h0.525v0.262h0.524v0.263h0.525v0.262l1.049,0.262q0.131,0.262.262,0.525h0.524l0.525,0.524H217.6v0.263h0.524v0.262h0.525v0.262l1.049,0.262,0.262,0.525h0.524l0.525,0.525h0.524v0.262h0.525v0.262h0.524v0.262l1.049,0.263c0.087,0.175.175,0.349,0.262,0.524h0.525l0.524,0.525h0.525v0.262h0.524v0.262h0.524l0.525,0.525h0.524q0.132,0.263.262,0.525h0.525l0.524,0.524H229.4v0.262h0.524v0.263l1.573,0.524,0.263,0.525h0.524l0.525,0.525h0.524v0.262h0.524v0.262l1.049,0.262q0.132,0.263.262,0.525a9.586,9.586,0,0,1,1.836.787V256Z"/>
</svg>
