<svg xmlns="http://www.w3.org/2000/svg" width="256" height="256" viewBox="0 0 256 256">
  <metadata><?xpacket begin="﻿" id="W5M0MpCehiHzreSzNTczkc9d"?>
<x:xmpmeta xmlns:x="adobe:ns:meta/" x:xmptk="Adobe XMP Core 5.6-c138 79.159824, 2016/09/14-01:09:01        ">
   <rdf:RDF xmlns:rdf="http://www.w3.org/1999/02/22-rdf-syntax-ns#">
      <rdf:Description rdf:about=""/>
   </rdf:RDF>
</x:xmpmeta>
                                                                                                    
                                                                                                    
                                                                                                    
                                                                                                    
                                                                                                    
                                                                                                    
                                                                                                    
                                                                                                    
                                                                                                    
                                                                                                    
                                                                                                    
                                                                                                    
                                                                                                    
                                                                                                    
                                                                                                    
                                                                                                    
                                                                                                    
                                                                                                    
                                                                                                    
                                                                                                    
                           
<?xpacket end="w"?></metadata>
<defs>
    <style>
      .cls-1 {
        fill: inherit;
        fill-rule: evenodd;
      }
    </style>
  </defs>
  <path id="Carnavales_icono" data-name="Carnavales icono" class="cls-1" d="M129.008,23s6.131,0.013,6.143,14.281c0.031,0.12,10.239,12.24,10.239,12.24V62.781h10.239s11.312,3.061,11.262,20.4c0.022,0.061-16.382,0-16.382,0s-4.646,2-4.095,8.16c0.165,0.056-1.177,10.143,8.191,10.2,0.533-.048,6.143,0,6.143,0s14.455-13.225,25.6-13.261,11.262,0,11.262,0,6.117-1.4,16.382,7.14,19.454,15.3,19.454,15.3,1.925,2.065,5.119,0,13.311-9.18,13.311-9.18,3.524-2.752,4.095,0c0.114,1.676,2.257,99.652-48.122,117.3-1.38.426-21.93,9.44-56.313,1.02-0.653.491-9.259-2.482-18.43,11.22-0.829-.1-6.587,4.336-11.262,0s-7.218-11.2-17.406-11.22-34.447,10.183-59.385-2.04C45.082,218.505-.564,199.975,0,102.563c0.2-.157,2.31-3.379,5.119,0,0.088,0.445,7.213,8.309,11.263,8.16,0.225,0.183,3.761.873,5.119,0S43.858,88.334,60.408,88.282c1.2,0.031,8.191,0,8.191,0s10.586-1.176,27.645,13.261a9.242,9.242,0,0,0,5.119,0c1.655-1.182,8.017-1.676,8.191-10.2-0.011-.957.262-8.011-5.119-8.16s-16.382,0-16.382,0,0.119-20.306,12.286-20.4,10.239,0,10.239,0V49.521l10.239-12.24S120.466,22.666,127.984,23A4.766,4.766,0,0,0,129.008,23ZM98.292,177.026c-3.9-64.3-58.295-35.9-68.6-41.822-0.678,5.051-4.438,49.139,67.575,41.822C97.214,177.016,98.358,177.22,98.292,177.026Zm59.188-.343c-0.677-62.828,56.188-38.187,68.8-40.459,0.183-.083,8.386,48.037-68.6,40.8A0.558,0.558,0,0,1,157.48,176.683Z"/>
</svg>
