<svg id="Otros" xmlns="http://www.w3.org/2000/svg" width="256" height="256" viewBox="0 0 256 256">
  <defs>
    <style>
      .cls-1 {
      	fill: inherit;
        fill-rule: evenodd;
      }
    </style>
  </defs>
  <path id="Tus_mis_gustos_icono" data-name="Tus (mis) gustos icono" class="cls-1" d="M6.143,17H243.029c6.851,0,9.437-.239,11.9,4.393h0.259V21.91h0.258a13.045,13.045,0,0,1,.518,3.876H255.7v1.292h-0.259v0.775h-0.258q-0.129.517-.259,1.034h-0.258V29.4L253.115,30.7l-0.517.775H252.08l-0.258.517h-0.517v0.258c-1.421.641-3.4,0.517-5.431,0.517H16.488c-4.612,0-10.41.581-13.189-1.292L2.781,30.7,1.488,29.662,1.23,28.628H0.971L0.712,27.594H0.454V26.819H0.2a13.283,13.283,0,0,1,.259-4.651H0.712l0.259-1.034H1.23V20.618l0.517-.258V19.842l0.517-.258L3.3,18.292H3.816V18.034H4.333V17.775H4.85V17.517l1.293-.258V17ZM90.708,233.023H90.191a13.652,13.652,0,0,1-2.586,2.584c-1.775,1.774-2.946,3.532-5.689,4.393H78.037v-0.258H77.261v-0.259H76.743v-0.258l-1.034-.259-0.259-.516H74.933l-0.776-1.034-0.517-.258v-0.517l-0.517-.259-0.259-1.033H72.606v-0.517H72.347V233.8a7.491,7.491,0,0,1-.259-3.359c0.922-3.027,2.957-4.506,4.913-6.46l1.552-1.809,6.207-5.943,10.6-10.853q10.344-10.206,20.689-20.413,4.266-4.394,8.534-8.786l1.552-1.292c0.965-.964,2.823-3.519,4.138-3.876,0.187-.714.072-0.578,0.775-0.775v-0.517h0.518c0.187-.714.072-0.578,0.775-0.775v-0.517h0.518c0.187-.714.072-0.578,0.775-0.775v-0.517c0.715-.187.579-0.072,0.776-0.775h0.517v-0.517c0.715-.187.579-0.072,0.776-0.775h0.518v-0.517h0.517l3.362-3.618c0.554-.556,1.043-0.634,1.293-1.55a5.464,5.464,0,0,1-1.293-1.809q-0.389-.258-0.776-0.517v-0.517l-0.517-.258c-0.087-.258-0.173-0.517-0.259-0.775h-0.259v-0.517l-0.517-.258v-0.517h-0.258v-0.517L137,153.436l-0.258-1.034-0.517-.258v-0.517l-0.518-.517v-0.517h-0.258v-0.517h-0.259V149.56H134.93v-0.517h-0.258v-0.517h-0.259v-0.517h-0.258v-0.517H133.9q-0.258-.774-0.517-1.55H133.12v-0.775h-0.258V144.65H132.6v-0.775h-0.259v-0.517h-0.258q-0.129-.775-0.259-1.55h-0.258v-0.517H131.31q-0.129-.775-0.259-1.551h-0.258v-1.033h-0.259v-0.775h-0.258V136.9h-0.259v-1.034h-0.259v-1.033H129.5V133.8h-0.259v-1.292h-0.259v-1.55h-0.258V129.4h-0.259v-2.325h-0.258v-3.1a26.976,26.976,0,0,1-.259-6.977h0.259v-3.1h0.258v-2.067h0.259v-1.809h0.258v-1.292h0.259v-1.55H129.5v-1.034h0.258v-1.033h0.259v-1.034h0.259v-1.033h0.258v-0.776h0.259V101.5h0.258v-0.775h0.259V99.947h0.259V99.172h0.258q0.129-.775.259-1.55h0.258V97.1H132.6V96.329h0.259L133.12,95.3h0.259V94.52h0.258q0.13-.517.259-1.034h0.259q0.258-.775.517-1.55h0.258V91.42h0.259V90.9l0.517-.517V89.869l0.518-.258q0.258-.775.517-1.55l0.517-.258q0.129-.517.259-1.034l0.517-.258V85.993l0.517-.258V85.218l0.517-.258V84.443l0.517-.258V83.667l0.776-.517V82.634l0.776-.517V81.6l0.776-.517V80.567l1.293-1.034V79.016l2.586-2.326V76.174l1.552-1.292,0.258-.517h0.518l1.034-1.292,1.034-.775V72.039h0.518l1.034-1.292h0.517l0.518-.775h0.517l0.517-.775,0.776-.258,0.258-.517h0.518l0.258-.517,0.776-.258V67.388h0.517l0.259-.517,0.776-.258V66.355l1.034-.258,0.259-.517,1.034-.258,0.259-.517h0.517l0.517-.517h0.517V64.029H162.6V63.771h0.517V63.512h0.517V63.254h0.517V63h0.518V62.737l1.551-.517V61.962l9.827-3.359h1.293c6.759-2.133,19.642-2.752,26.9-.517h1.293v0.258h1.034V58.6h1.293l8.534,2.843V61.7l1.035,0.258V62.22H218.2v0.258L219.754,63v0.258h0.518v0.258h0.517v0.258h0.517v0.258h0.517l0.517,0.517h0.518l0.258,0.517,1.552,0.517,0.258,0.517,1.035,0.258v0.258l0.776,0.258L227,67.388h0.518v0.258l0.775,0.258q0.13,0.258.259,0.517h0.517q0.26,0.387.517,0.775H230.1l0.517,0.775h0.517l0.259,0.517h0.258q0.13,0.258.259,0.517h0.517l1.035,1.292h0.517l1.81,2.067,4.655,4.393v0.517l1.293,1.034v0.517l0.517,0.258v0.258l0.518,0.258v0.517l0.775,0.517v0.517l0.518,0.258v0.517l0.775,0.517V84.96l0.518,0.258,0.258,0.775h0.259l0.258,1.034,0.518,0.258,0.258,1.034,0.517,0.258q0.26,0.775.518,1.55l0.517,0.258,0.517,1.55h0.259v0.517h0.258q0.26,0.775.518,1.55h0.258v0.775h0.259l0.258,1.034h0.259v0.775h0.259V97.1h0.258V97.88h0.259V98.4h0.258q1.293,4.522,2.587,9.044v1.292h0.258v1.551h0.259v1.809h0.258v2.067H255.7v4.134h0.259v4.393H255.7v4.134h-0.259q-0.258,2.714-.517,5.427h-0.258v1.292h-0.259v1.292h-0.259v1.033h-0.258V136.9h-0.259v1.034h-0.259v0.775h-0.258v0.775h-0.259v0.775H252.6v0.775h-0.259q-0.129.775-.259,1.551h-0.258V143.1h-0.259l-0.258,1.55h-0.259q-0.129.518-.259,1.034h-0.258v0.775H250.27q-0.258.775-.517,1.55h-0.259v0.517h-0.258v0.517h-0.259v0.517h-0.258v0.516H248.46v0.517l-0.517.517v0.517l-0.518.258-0.258,1.034-0.517.258q-0.131.518-.259,1.034l-0.517.258v0.517l-0.517.258v0.517l-0.518.259v0.516l-0.517.259v0.517l-0.517.258v0.517l-0.776.517v0.516L242,159.9v0.517l-1.035.775v0.517l-2.069,1.808v0.517l-2.327,2.067-1.035,1.292h-0.517l-1.551,1.809h-0.518q-0.516.646-1.034,1.292h-0.517l-0.518.775-0.775.259q-0.13.258-.259,0.517h-0.517q-0.26.387-.517,0.775h-0.518l-0.258.517h-0.517q-0.131.258-.259,0.516l-0.776.259v0.258l-1.034.259-0.259.516-1.034.259q-0.131.258-.259,0.517l-1.552.516-0.258.517-1.035.259v0.258H220.53v0.258l-1.552.517V178.5H218.2v0.258l-1.035.258v0.259h-0.776v0.258l-1.034.259v0.258l-1.552.258v0.259H213.03v0.258h-0.517v0.259h-0.776v0.258l-1.81.258v0.259h-1.034a44.577,44.577,0,0,1-14.482,2.325h-8.017v-0.258h-2.586v-0.258H182V183.41h-1.551v-0.258h-1.293v-0.259H177.86v-0.258h-1.035v-0.258h-1.034v-0.259h-1.035V181.86H173.98V181.6h-0.775v-0.258l-2.586-.517v-0.258H170.1v-0.259l-1.551-.258v-0.258h-0.518v-0.259h-0.775v-0.258h-0.518v-0.259l-1.293-.258V178.5l-1.551-.517v-0.259h-0.517v-0.258H162.86v-0.258l-1.551-.517c-0.087-.172-0.173-0.345-0.259-0.517l-1.552-.517-0.258-.517-1.035-.258-0.258-.517h-0.518l-0.258-.517h-0.517v-0.258l-0.776-.258c-0.086-.173-0.173-0.345-0.259-0.517H155.1c-0.086-.172-0.172-0.345-0.259-0.517h-0.517l-0.258-.517-0.776-.258v-0.259l-0.776-.258-46.033,46.254-9.827,9.561L95.1,228.63l-2.069,1.809-0.517.775H92v0.259l-1.293,1.033v0.517ZM6.4,64.8H93.294c1.768,0,4.05-.292,5.431.258v0.258l1.552,0.517V66.1h0.517l1.035,1.292,0.775,0.517v0.517l0.518,0.258V69.2h0.258q0.129,0.775.259,1.55H103.9v1.809a0.456,0.456,0,0,1,.259.517H103.9v1.55h-0.258v1.034a9.206,9.206,0,0,1-2.328,2.842l-0.517.775h-0.517l-0.259.517-1.034.258v0.258c-1.5.594-4.046,0.258-5.948,0.258h-81.2c-2.489,0-5.474.287-7.241-.517V79.791H4.074l-0.259-.517H3.3L2.781,78.5,1.488,77.466,1.23,76.432H0.971A8,8,0,0,1,.2,72.3v-1.55H0.454L1.23,68.422l0.517-.258V67.647l0.517-.258L3.04,66.355H3.557l0.259-.517,1.034-.258V65.321L6.4,65.063V64.8Zm181.026,8.01v0.258l-5.172.517v0.258l-2.328.258v0.258h-1.034v0.258h-0.776v0.258h-0.776V75.14h-0.775V75.4h-0.776v0.258l-1.552.258v0.258l-1.034.258v0.258h-0.776v0.258l-1.552.517v0.258H170.36v0.258h-0.517v0.258l-1.552.517q-0.129.258-.259,0.517L167,79.533v0.258l-0.776.258-0.258.517-1.035.258-0.517.775H163.9l-0.259.517h-0.517l-0.259.517H162.6q-0.131.258-.259,0.517h-0.517l-1.035,1.292h-0.517l-2.327,2.584-2.328,2.067v0.517l-1.293,1.034-0.258.775-0.518.258v0.517l-0.775.517v0.517l-0.518.258L152,94.262H151.74v0.517l-0.517.258-0.259.775h-0.258q-0.26.775-.518,1.55l-0.517.258-0.258,1.034h-0.259v0.517H148.9q-0.258.775-.517,1.55H148.12V101.5h-0.259q-0.129.517-.259,1.034h-0.258q-0.129.774-.259,1.55h-0.258V104.6h-0.259q-1.035,4.005-2.069,8.01-0.129,2.2-.259,4.393h-0.258v4.135a35.377,35.377,0,0,0,1.551,10.852q0.131,1.034.259,2.068h0.259v0.775h0.258v0.775h0.259v0.775h0.259v0.775h0.258v0.517h0.259v0.775H147.6v0.517h0.259v0.775h0.259q0.258,0.775.517,1.551H148.9v0.517h0.259v0.516h0.259q0.258,0.775.517,1.551l0.517,0.258q0.129,0.518.259,1.034l0.517,0.258,0.258,1.034h0.259L152,147.234l0.517,0.258v0.517q0.387,0.26.776,0.517v0.517l0.776,0.517v0.516l1.034,0.776v0.516l2.327,2.068v0.516l0.518,0.259,0.517,0.775h0.517l2.069,2.326h0.517l0.776,1.033,0.776,0.259q0.129,0.258.259,0.516H163.9l0.258,0.517h0.518l0.517,0.776,1.034,0.258c0.086,0.172.173,0.344,0.259,0.517l0.776,0.258v0.259l1.551,0.516c0.086,0.173.173,0.345,0.259,0.517L170.1,163v0.258l1.552,0.517v0.258h0.776v0.259l1.034,0.258v0.258l1.293,0.259v0.258l8.276,2.326,4.4,0.517h2.328v0.258h4.4v-0.258h3.362v-0.259h1.81v-0.258h1.552v-0.259h1.293v-0.258l2.069-.258v-0.259h1.034v-0.258h0.776V166.1h0.776v-0.258H207.6v-0.258l1.551-.259v-0.258l1.293-.259v-0.258l1.035-.258V164.03h0.776v-0.258l1.034-.259v-0.258l1.035-.258,0.258-.517,1.552-.517,0.258-.517,1.035-.258,0.258-.517H218.2v-0.258l0.775-.259q0.13-.258.259-0.517h0.517l0.518-.775h0.517l0.517-.775h0.517l0.776-1.034h0.517l2.845-3.1,2.586-2.325V151.11l1.293-1.034V149.56l0.776-.517v-0.517l0.517-.258c0.086-.259.173-0.517,0.259-0.776h0.258v-0.516l0.518-.259V146.2l0.517-.258,0.258-.775H233.2q0.258-.775.517-1.551l0.517-.258q0.131-.516.259-1.034h0.259v-0.516h0.258q0.26-.775.517-1.551h0.259v-0.775h0.259l0.258-1.034h0.259q0.129-.774.259-1.55h0.258v-0.517h0.259q0.258-1.291.517-2.584h0.259v-0.775h0.258v-1.034h0.259l0.258-2.325h0.259q0.258-2.067.517-4.135V123.2h0.259a16.369,16.369,0,0,0-.259-5.427v-3.1h-0.258q-0.13-1.551-.259-3.1h-0.259v-1.292h-0.258v-1.034h-0.259v-1.033h-0.258v-1.034h-0.259v-0.775H237.6v-0.775H237.34v-0.776h-0.259v-0.775h-0.258v-0.775h-0.259q-0.129-.646-0.259-1.292h-0.258q-0.129-.517-0.259-1.034h-0.259v-0.516h-0.258V99.688h-0.259V99.172h-0.258V98.655l-0.518-.258V97.88h-0.258V97.363l-0.517-.517V96.329l-0.518-.258-0.258-1.034h-0.259l-0.258-.775L231.65,94V93.487l-0.776-.517V92.453l-0.517-.258V91.678l-0.517-.258V91.161l-0.517-.258V90.386l-1.293-1.034V88.836l-1.552-1.292L223.892,84.7h-0.517l-1.293-1.55h-0.517l-0.518-.775H220.53l-0.517-.775H219.5q-0.131-.258-0.259-0.517l-0.776-.258V80.567h-0.517q-0.129-.258-0.259-0.517l-0.775-.258V79.533l-1.552-.517q-0.129-.258-0.259-0.517l-1.034-.258V77.983h-0.517V77.724L212,77.207V76.949H211.22V76.691l-1.034-.258V76.174l-7.241-2.326h-1.293C197.791,72.657,192.548,72.837,187.428,72.815ZM6.4,112.608H73.9v0.259h0.776v0.258h0.517v0.259h0.776l0.259,0.516h0.517l1.293,1.551,0.776,0.517L79.071,117H79.33v0.517h0.259a13.138,13.138,0,0,1,.517,4.134H79.847l-0.517,2.584-0.517.259v0.517l-0.517.258v0.517l-1.035.775v0.258H76.743l-0.259.517H75.968V127.6H75.45v0.258H74.933v0.258c-2.652,1.142-10.7.517-14.482,0.517H21.66c-4.757,0-13.8.715-17.068-.775V127.6H4.074l-0.259-.517H3.3L2.781,126.3,1.488,125.27c-0.635-.9-1.914-4.421-1.293-6.46H0.454v-1.034H0.712l0.259-1.033H1.23v-0.517l0.517-.258v-0.517l0.517-.259,0.776-1.033H3.557l0.259-.517H4.333v-0.258l1.034-.259v-0.258H6.4v-0.259Zm0,47.805H63.813c2.667,0,8.932-.511,10.861.258v0.258l1.552,0.517v0.259h0.517l1.293,1.55,0.776,0.517,0.259,1.033H79.33v0.517h0.259a13.054,13.054,0,0,1,.517,4.135H79.847v1.292H79.588v0.516H79.33v0.776l-0.517.258v0.517l-0.517.258v0.517l-1.035.775v0.259H76.743l-0.259.516H75.968V175.4H75.45v0.258H74.933v0.259c-2.639,1.138-10.46.516-14.224,0.516H11.057c-1.917,0-4.611.068-5.948-.516C1.8,174.473-1.5,169.739.971,165.064L1.23,164.03l0.517-.258v-0.517L2.264,163l0.776-1.034H3.557l0.259-.517H4.333v-0.258H4.85v-0.259l1.552-.258v-0.258Z"/>
</svg>
