<svg xmlns="http://www.w3.org/2000/svg" width="256" height="256" viewBox="0 0 256 256">
  <metadata><?xpacket begin="﻿" id="W5M0MpCehiHzreSzNTczkc9d"?>
<x:xmpmeta xmlns:x="adobe:ns:meta/" x:xmptk="Adobe XMP Core 5.6-c138 79.159824, 2016/09/14-01:09:01        ">
   <rdf:RDF xmlns:rdf="http://www.w3.org/1999/02/22-rdf-syntax-ns#">
      <rdf:Description rdf:about=""/>
   </rdf:RDF>
</x:xmpmeta>
                                                                                                    
                                                                                                    
                                                                                                    
                                                                                                    
                                                                                                    
                                                                                                    
                                                                                                    
                                                                                                    
                                                                                                    
                                                                                                    
                                                                                                    
                                                                                                    
                                                                                                    
                                                                                                    
                                                                                                    
                                                                                                    
                                                                                                    
                                                                                                    
                                                                                                    
                                                                                                    
                           
<?xpacket end="w"?></metadata>
<defs>
    <style>
      .cls-1 {
        fill: inherit;
        fill-rule: evenodd;
      }
    </style>
  </defs>
  <path id="Celular_icono" data-name="Celular icono" class="cls-1" d="M54,20.184S53,0.077,73.129.031s109.742,0,109.742,0S202.016-.028,202,18.169s0,218.655,0,218.655-1.016,19.094-20.136,19.145-107.728,0-107.728,0S53.947,255.855,54,236.824,54,20.184,54,20.184Zm20.136,7.053s0.031-5.972,6.041-6.046,95.646,0,95.646,0,6.047-.2,6.041,5.038,0,179.357,0,179.357,0.188,6.049-6.041,6.046-94.639,0-94.639,0-7.1.685-7.048-6.046S74.136,27.237,74.136,27.237ZM128,223.724a10.581,10.581,0,1,1-10.571,10.581A10.576,10.576,0,0,1,128,223.724Z"/>
</svg>
