<svg xmlns="http://www.w3.org/2000/svg" width="256" height="256" viewBox="0 0 256 256">
  <metadata><?xpacket begin="﻿" id="W5M0MpCehiHzreSzNTczkc9d"?>
<x:xmpmeta xmlns:x="adobe:ns:meta/" x:xmptk="Adobe XMP Core 5.6-c138 79.159824, 2016/09/14-01:09:01        ">
   <rdf:RDF xmlns:rdf="http://www.w3.org/1999/02/22-rdf-syntax-ns#">
      <rdf:Description rdf:about=""/>
   </rdf:RDF>
</x:xmpmeta>
                                                                                                    
                                                                                                    
                                                                                                    
                                                                                                    
                                                                                                    
                                                                                                    
                                                                                                    
                                                                                                    
                                                                                                    
                                                                                                    
                                                                                                    
                                                                                                    
                                                                                                    
                                                                                                    
                                                                                                    
                                                                                                    
                                                                                                    
                                                                                                    
                                                                                                    
                                                                                                    
                           
<?xpacket end="w"?></metadata>
<defs>
    <style>
      .cls-1 {
        fill: inherit;
        fill-rule: evenodd;
      }
    </style>
  </defs>
  <path id="Cine_icono" data-name="Cine icono" class="cls-1" d="M101.758,43.506v0.5a10.951,10.951,0,0,1,3.774.753h1.762v0.251l1.761,0.251v0.251h1.007v0.251h0.5v0.251h1.258v0.251l1.51,0.251v0.251h0.755q0.125,0.251.251,0.5h1.51v0.5l2.264,0.5v0.251l1.007,0.251v0.251h0.755v0.251a4.5,4.5,0,0,0,2.013.5v0.5l1.509,0.251v0.5c2.508,0.451,3.894,2.479,6.291,2.761,0.417,1.4.4,0.215,1.258,0.753V54.8c0.286,0.286.1,0,.252,0.5a3.942,3.942,0,0,1,2.012.753l0.252,0.5h0.5l0.252,0.5h0.5l0.252,0.5h0.5l0.755,1h0.5l0.252,0.5h0.5v0.251a1.863,1.863,0,0,0,1.258.5v0.5l1.51,1,0.5,0.753h0.755v0.5l2.013,1.255v0.5l0.5,0.251,1.007,1.255a5.376,5.376,0,0,1,1.258.5v0.5l0.5,0.251v0.251l2.013,1.506v0.753l1.509,1.255,0.252,0.5h0.5l0.252,0.5h0.252v0.753h0.251a1.346,1.346,0,0,0,1.007.753v0.753c1.08,0.619,1.57,1.742,2.264,2.761l0.5,0.251v0.5l0.755,0.5v0.5l0.5,0.251v0.753a2.092,2.092,0,0,1,1.509,2.008h0.5l0.252,1.255h0.5l0.252,1,0.5,0.251,0.252,1.255,0.755,0.5q0.126,0.753.251,1.506c0.954,0.314.337,0.025,0.755,0.753h0.252V88.93l0.5,0.251v0.5h0.252v0.753l0.5,0.251V91.44h0.251v0.5h0.252v0.753l0.5,0.251v0.5h0.252V94.2l0.5,0.251,0.252,1.506,0.5,0.251v0.5h0.252q0.25,1.129.5,2.259h0.252v0.753h0.251v0.752h0.252v0.753h0.251v0.753h0.252v0.753h0.252q0.376,1.632.754,3.263H169.7l0.252,2.76H170.2v1h0.252v1H170.7v1.255h0.251l0.252,2.258h0.251v2.51h0.252v2.259a0.738,0.738,0,0,1,.5.753v4.266l0.5,0.251,0.252,2.259,0.5,0.251q0.378,1.631.755,3.262c0.457,1.141,1.151,1.966,1.258,3.514h0.5q0.377,1.38.754,2.76l0.5,0.251v0.5H177.5v0.5l0.5,0.251v0.753h0.252v0.5H178.5v0.5h0.251v0.5h0.252c0.464,1.019-.009,1.654,1.258,2.007,0.2,2.248,1.991,2.623,2.265,4.769h0.5v0.753l0.755,0.251a3.379,3.379,0,0,1,.755,1.756c1.2,0.372.223,0.295,0.754,1h0.252v0.251h0.5v0.753l1.258,0.753v0.753h0.252a1.346,1.346,0,0,0,1.006.753v0.753a4.922,4.922,0,0,0,1.51,1v0.5a11.091,11.091,0,0,1,1.761,2.008l2.013,1.757q0.378,0.5.755,1l0.755,0.251,1.761,2.007h0.755v0.5c1.073,0.63,1.823,2.065,3.271,2.259,0.186,0.807.342,0.914,1.258,1v0.5h0.755v0.5c1.154,0.164.619,0.228,1.258,0.752v0.251h0.755v0.5l1.51,0.5v0.5l1.258,0.251V171c0.286,0.286.1,0,.252,0.5a1.717,1.717,0,0,1,1.006.251V172h0.5v0.251h0.755l0.5,0.753h0.5v0.251l2.264,0.753v0.5a3.208,3.208,0,0,0,1.258.251v0.5h1.007v0.5c1.268,0.044,1.256.4,2.013,0.753h0.755q0.124,0.252.251,0.5h0.5v0.251l1.258,0.251v0.251h0.5v0.251h1.258v0.251h0.5l0.252,0.5h0.5v0.251l4.277,1v0.251h0.755v0.251h0.755v0.251h0.755v0.251l2.516,0.5v0.251h2.013v0.251l2.516,0.25v0.5a10.756,10.756,0,0,1,3.271.5h3.271v0.251h1.258v0.251L256,184.045v30.367a13.618,13.618,0,0,1-5.284,0H248.2a18.72,18.72,0,0,1-4.781-.5l-5.787-.5v-0.251h-1.258l-0.252-.5h-1.258V212.4h-1.006v-0.251H232.1V211.9l-3.271-.753V210.9H228.07v-0.251h-0.754V210.4h-0.755v-0.251l-4.278-1v-0.251h-0.5V208.64h-0.5v-0.251h-0.5v-0.251h-0.754v-0.251h-0.5v-0.251h-0.5v-0.251l-1.51-.5v-0.251h-0.754v-0.251h-0.5V206.13h-0.5v-0.251l-1.51-.5v-0.251h-0.754v-0.251l-1.007-.251-0.252-.5a3.367,3.367,0,0,0-2.012-.753v-0.5l-2.013-.752v-0.5h-0.755v-0.5h-0.755v-0.5a2.228,2.228,0,0,1-1.51-.5q-0.126-.376-0.251-0.753h-0.755V199.1h-0.5l-0.5-.753-0.755-.251v-0.5h-0.754l-0.5-.753h-0.5l-0.755-1h-0.5q-0.5-.629-1.006-1.255h-0.755v-0.5l-1.007-.753V193.08h-0.755c-0.072-.048-0.8-1.3-1.006-1.506l-3.523-3.262c-0.772-.771-1.316-1.932-2.516-2.259V185.3c-1.271-.724-2.167-2.329-3.019-3.513l-0.5-.251v-0.251l-0.5-.251v-0.5h-0.251a1.791,1.791,0,0,1-.5-1.255l-0.755-.251v-0.753l-0.754-.251v-0.753h-0.5v-0.753h-0.5v-0.753h-0.252c-0.286-.285,0-0.1-0.5-0.251V174.76h-0.5c-0.1-1.853-1.525-2.159-1.761-4.016H178c-0.142-1.223-.566-0.961-1.006-1.757v-0.5H176.74v-0.5h-0.251v-0.753c-0.652-1.441-1.866-2.542-2.013-4.518h-0.5v-1h-0.5q-0.126-.753-0.251-1.506h-0.252v-1l-0.5-.251v-1h-0.252q-0.126-.5-0.251-1h-0.252l-0.252-1.757h-0.251v-0.752a8.472,8.472,0,0,1-.755-3.012h-0.5v-1.506H169.7v0.5h-0.252v1.255a8.958,8.958,0,0,0-.754,2.761h-0.5q-0.377,1.757-.754,3.513h-0.252l-0.252,1h-0.251v1l-0.5.251v1h-0.251v0.5h-0.252v0.752l-0.5.251-0.252,1.255-0.5.251v0.753h-0.252v0.5h-0.251v0.753l-0.5.251q-0.378,1.129-.755,2.258l-0.5.251-0.252,1-0.5.251V171l-0.755.5v0.753l-0.755.5v0.753H159.63v0.5h-0.251l-0.252.753h-0.5l-0.252,1.254-0.5.251v0.5h-0.252a0.861,0.861,0,0,1-.754.5v0.753h-0.5v0.753c-0.816.481-.969,1.244-1.509,2.008q-0.378.251-.755,0.5v0.5h-0.252a3.368,3.368,0,0,0-1.258,2.007h-0.5l-0.5.753h-0.252V185.3l-1.007.753V186.3h-0.5c-0.084.167-.168,0.335-0.251,0.5l-1.51,1.255v0.753H147.8c-0.575.706-.967,0.475-1.258,1.5h-0.755l-1.509,2.008h-0.5v0.251a0.91,0.91,0,0,0-.5.753H142.52c-0.077.133-.948,1.466-1.006,1.506a8.408,8.408,0,0,0-1.007.251l-0.5,1c-0.744.512-.635-0.445-1.006,0.753h-0.755V197.1c-0.287.286-.1,0-0.252,0.5h-0.755l-0.5.753h-0.5l-0.755,1h-0.5l-0.252.5h-0.5l-0.252.5h-0.5l-0.252.5h-0.5v0.251h-0.5v0.251a1.768,1.768,0,0,1-1.006.251c-0.182.693-.071,0.561-0.755,0.753v0.251h-0.755v0.5l-1.51.251v0.251c-0.286.286-.1,0-0.252,0.5-1.6.174-2.368,1.3-4.025,1.506v0.5a19.278,19.278,0,0,1-2.013.5v0.5c-1.36.046-1.213,0.394-2.013,0.753l-1.258.251v0.251l-1.258.251-0.252.5-2.516.5v0.251h-0.755v0.251h-0.755V210.4h-0.755v0.251h-0.755V210.9l-3.271.753V211.9h-1.006v0.251l-2.768.251v0.251h-1.51v0.251h-0.755v0.251l-2.264.251v0.251H98.236v0.251H96.223v0.251H92.448v0.251H88.171v0.251H86.41v0.251a3.8,3.8,0,0,1-2.516-.5c-1.209-.382-3.56.1-4.781-0.251l-4.781-.251v-0.251H72.571v-0.251h-1.51v-0.251h-1.51l-0.252-.5H68.293V212.4H67.035v-0.251h-1.51V211.9H64.77v-0.251l-2.265-.251v-0.251H61.751V210.9H61l-0.252-.5-2.516-.251-0.5-.752-2.265-.251-0.252-.5H54.454v-0.251l-1.006-.251v-0.251H52.693v-0.251a7.118,7.118,0,0,0-2.516-.753v-0.5l-1.51-.251v-0.5c-1.49-.138-2.089-1.053-3.523-1.255l-0.252-.753-1.51-.251-0.252-.752-1.51-.251v-0.5H40.867v-0.251c-0.287-.286-0.1,0-0.252-0.5a3.951,3.951,0,0,1-2.013-.753l-0.252-.5h-0.5l-0.5-.753h-0.5l-0.5-.753h-0.5l-0.252-.5-0.755-.251v-0.251a1.858,1.858,0,0,0-1.258-.5c-0.394-1.359-.662-0.311-1.258-1v-0.5l-0.5-.251v-0.251H31.054l-0.252-.753H30.55a1.316,1.316,0,0,0-1.258-.753v-0.5l-2.013-1.506v-0.5H27.028l-0.5-.753H25.77c-0.611-.407.031-0.894-1.258-1.254v-0.753l-1.761-1.506-0.252-.5H22V185.8l-0.755-.5v-0.753l-1.006-.753v-0.251h-0.5V182.79c-0.819-.466-3.384-3.681-3.523-4.768H15.7v-0.753a2.093,2.093,0,0,1-1.51-2.007h-0.5l-0.252-1.255h-0.5l-0.252-1-0.5-.251L11.931,171.5l-0.755-.5-0.252-1.255-0.755-.5v-0.752l-0.5-.251v-0.5H9.414v-0.5H9.163l-0.252-1.255-0.5-.251v-0.753H8.156v-0.5H7.9v-0.753l-0.5-.251v-0.753l-0.5-.251-0.252-1.5-0.5-.251-0.252-1.757H5.64l-0.252-1H5.137l-0.755-3.513h-0.5a17.191,17.191,0,0,0-1.258-4.518v-1.255H2.369v-1H2.118V146.4H1.866V144.9H1.614V143.64H1.363v-1.506H1.111v-2.007H0.859v-2.259H0.608v-3.012c-0.6-2.132-.5-5.214-0.5-8.03v-3.263H0.356v-1.757H0.608v-2.76H0.859v-2.259H1.111v-2.008c0.58-2,.87-4.619,1.51-6.525L2.872,106l0.5-.251v-1.506H3.627v-0.753H3.879v-0.753l0.5-.251v-1H4.634v-1H4.885v-0.5H5.137V99.22H5.389v-1H5.64v-0.5H5.892V96.961H6.143a5.781,5.781,0,0,0,.5-2.008h0.5L7.4,93.448,7.9,93.2l0.252-1.255H8.408V91.189l0.5-.251v-0.5H9.163V89.683H9.414v-0.5H9.666v-0.5l0.5-.251V87.675l0.5-.251,0.252-1,0.755-.5V85.166l0.5-.251v-0.5h0.252l0.5-1.506h0.5l0.252-1.255h0.5V80.9c0.671-.445.579-1,1.51-1.255V78.892h0.5V78.139H16.46c0.287-.286,0-0.1.5-0.251V77.135c0.82-.477.965-1.249,1.51-2.008l1.258-1V73.37h0.5l0.755-1h0.252V71.614h0.252l0.252-.5h0.5V70.861l1.761-1.506V68.6h0.5a9.64,9.64,0,0,1,1.258-1.255v-0.5l0.5-.251V66.343h0.755l0.252-.5,0.5-.251c0.643-.638.725-1.475,1.761-1.757v-0.5H30.3a3.786,3.786,0,0,0,.755-1.255h0.755l1.006-1.255h0.5V60.571a0.9,0.9,0,0,0,.5-0.753h0.755c0.465-.765,1.039-0.746,1.761-1.255l0.755-1h0.5l0.252-.5h0.5l0.252-.5A10.372,10.372,0,0,1,41.37,55.3V54.8h0.755V54.3H42.88V53.8l1.51-.251,0.5-.753h0.5l0.252-.5H46.4V52.039l2.768-1v-0.5l1.51-.251v-0.5c1.361-.047,1.212-0.4,2.013-0.753l1.258-.251V48.525l1.258-.251,0.252-.5h1.006V47.521h0.755V47.27h0.755V47.019h0.755V46.768h0.755V46.517h0.755V46.266h1.006V46.015H62V45.765h0.755V45.514h0.755V45.263h0.755V45.012h1.006V44.761l3.019-.251V44.259l2.516-.251v-0.5a14.075,14.075,0,0,0,3.523-.5h2.013V42.753h2.516V42.5h5.787V42.251L87.919,42v0.251h1.258V42.5h4.529v0.251h2.768A20.593,20.593,0,0,0,101.758,43.506ZM71.816,49.027v0.5a17.4,17.4,0,0,0-5.787,1.255l-2.265.251v0.251H63.009v0.251H62.254v0.251l-2.516.5-0.252.5H58.228l-0.252.5-1.258.251V53.8h-0.5v0.251l-1.51.251v0.251L53.7,54.8V55.05H52.944V55.3l-1.007.251V55.8l-1.007.251-0.252.5-1.007.251v0.251l-1.51.5v0.251H47.409v0.251a1.969,1.969,0,0,1-1.007.251v0.5l-1.258.251-0.5.753H43.886l-0.5.753h-0.5l-0.252.5h-0.5l-0.252.5h-0.5l-0.252.5h-0.5l-0.252.5h-0.5V62.83a1.8,1.8,0,0,1-1.006.251c-0.186.807-.342,0.914-1.258,1-0.377,1.2-.254.242-1.007,0.753l-0.5,1H35.331l-1.007,1.506H33.57L32.312,69.1h-0.5l-0.252.5h-0.5l-0.755,1-0.5.251v0.5l-1.006.753-0.252.5h-0.5v0.251l-0.755.5v0.753l-0.755.5v0.251h-0.5v0.251l-1.006.753v0.753l-0.5.251-0.252.5h-0.5a2.416,2.416,0,0,0-.5,1.255h-0.5A1.038,1.038,0,0,1,21.744,79.9c-0.231,1.951-2.224,2.453-2.516,4.517h-0.5v0.753h-0.5c-0.323.9-.514,1.986-1.51,2.259L16.46,88.93H16.208c-0.287.286,0,.1-0.5,0.251-0.209,1.943-1.761,3.035-2.013,5.019h-0.5c-0.186,2.272-1.973,3.825-2.264,6.274h-0.5l-0.5,3.012-0.5.251v0.753H9.163v0.753H8.911V106.5H8.66v0.752H8.408V108H8.156v1.506H7.9l-0.252,2.51H7.4v1H7.15v1H6.9l-0.252,2.259H6.4l-0.5,7.278H5.64v8.282a13.482,13.482,0,0,1,.5,4.015v2.761H6.4v0.5H6.647v2.76H6.9v0.753H7.15v1.255H7.4v1.255H7.653V146.4H7.9v1.255H8.156v1H8.408l0.252,2.008H8.911v1H9.163v0.753H9.414v0.753l0.5,0.251v0.753h0.252v1.254l0.5,0.251v0.5h0.252v1.255h0.252v0.5h0.252l0.252,1.255h0.252l0.252,1h0.252v0.753l0.5,0.251,0.252,1.5h0.5c0.179,1.962,1.734,3.069,2.013,5.02h0.5l0.5,1.756,0.755,0.251L17.718,171h0.5c0.206,1.773,1.759,2.231,2.013,4.016a2.092,2.092,0,0,1,1.51,2.007,1.137,1.137,0,0,1,1.006.753v0.5l1.006,0.5v0.753l1.51,1v0.753l2.013,1.5v0.753a7.973,7.973,0,0,0,1.51,1V184.8l0.5,0.251v0.5l0.5,0.251,1.258,1.506h0.755l1.51,2.007h0.755l1.007,1.506h0.755l0.5,1h0.5a1.134,1.134,0,0,1,.755,1h0.755v0.251c0.287,0.286.1,0,.252,0.5h0.755v0.251c0.287,0.286.1,0,.252,0.5a1.679,1.679,0,0,1,1.006.251v0.251h0.5l0.252,0.5h0.5v0.251l0.755,0.251,0.252,0.5h0.5l0.5,0.753h0.755l0.5,0.753,1.761,0.5v0.5c1.3,0.137,2.039.97,3.271,1.255v0.5l2.264,0.753v0.251H53.2l0.252,0.5,1.258,0.251v0.251l1.51,0.25v0.251h0.5v0.251h0.755v0.251h0.5l0.252,0.5h1.258l0.252,0.5,4.278,1v0.251H64.77v0.251h1.007v0.251h1.258v0.251h1.006v0.251h1.007l0.252,0.5h2.516v0.5l5.787,0.5v0.251l9.058,0.251h5.284V208.64h3.019v-0.251l5.787-.5v-0.5a20.134,20.134,0,0,0,6.039-1.255H108.3v-0.251h0.5v-0.251l1.509-.251v-0.251l2.013-.251v-0.251h0.5l0.252-.5,2.013-.251,0.252-.5h1.006l0.252-.5h0.755v-0.25l1.006-.251v-0.251h0.755v-0.251l1.006-.251v-0.251h0.755l0.252-.5,1.51-.251v-0.5h1.006c0.3-.975.052-0.328,0.755-0.753V199.1h0.5v-0.251h0.755l0.252-.5h0.754l0.252-.5,1.006-.251,0.252-.5h0.5l0.5-.753h0.754l0.5-.752,1.006-.251v-0.251a1.846,1.846,0,0,1,1.258-.5l0.252-.753h0.755c0.185-.808.341-0.914,1.258-1q0.126-.377.251-0.753h0.755v-0.5a12.2,12.2,0,0,0,1.51-.753l0.252-.753h0.754l0.252-.5H139l1.006-1.5h0.755V187.81l1.258-1v-0.5l0.5-.251,1.007-1.255h0.5v-0.251l0.755-.5q0.5-.627,1.006-1.255l0.5-.251v-0.752l0.5-.251v-0.251h0.5v-0.251l0.5-.251V180.03h0.252l0.252-.5h0.5c0.847-.651.069-1.353,1.509-1.757v-0.753h0.252c0.287-.285,0-0.1.5-0.251a1.039,1.039,0,0,1,1.007-1.255c0.206-1.772,1.758-2.23,2.013-4.015h0.5v-0.251h0.252v-1c0.695-.181.563-0.07,0.754-0.753h0.252v-0.753h0.5a6.809,6.809,0,0,1,1.007-2.509l0.5-.251v-0.753h0.252v-0.5h0.251v-0.5h0.252v-0.5l0.5-.251v-0.5h0.252v-0.753l0.5-.251v-1h0.252q0.251-.753.5-1.506h0.251l0.252-1.255h0.252v-0.5h0.251v-1.255l0.5-.251a3.293,3.293,0,0,0,.251-1.756h0.5q0.378-1.632.755-3.263h0.252q0.252-1.631.5-3.262a36.286,36.286,0,0,0,1.761-10.29h0.5v-4.266h0.251q-0.126-7.028-.251-14.054h-0.5a26.223,26.223,0,0,0-1.258-8.031q-0.126-1.255-.251-2.51h-0.252V108h-0.252V107.25h-0.251v-1.5h-0.252v-0.753h-0.251v-0.753h-0.252v-0.753H162.9v-0.753l-0.5-.251v-0.753h-0.251v-1.255l-0.5-.251V99.471h-0.251V98.718H161.14v-0.5h-0.252V97.463h-0.251v-0.5h-0.252l-1.006-3.012h-0.5c-0.169-1.843-1.5-2.716-1.761-4.517h-0.5q-0.252-.878-0.5-1.757l-0.755-.251c-0.068-1.362-.471-0.988-0.755-2.008h-0.5c-0.207-1.773-1.759-2.231-2.013-4.016a0.864,0.864,0,0,1-.755-0.5h-0.252V80.4h-0.251a1.72,1.72,0,0,1-.5-1.255c-1.462-.406-0.486-0.475-1.006-1.255l-1.006-.5V76.633h-0.252l-0.5-.753-1.258-.753V74.374l-0.755-.5V73.621h-0.5l-1.259-1.506-0.5-.251v-0.5l-2.264-2.008-0.5-.753h-0.754l-1.259-1.757H137.74q-0.378-.627-0.755-1.255H136.23l-0.252-.753-1.258-.5v-0.5h-0.755V63.583c-0.286-.286-0.1,0-0.251-0.5h-0.755V62.83c-0.287-.286-0.1,0-0.252-0.5a1.684,1.684,0,0,1-1.006-.251V61.826h-0.5l-0.252-.5h-0.5l-0.252-.5h-0.5l-0.5-.753H128.43l-0.5-.753-1.006-.251-0.252-.5-2.264-.753-0.252-.753a5.634,5.634,0,0,1-2.013-.5l-0.251-.5L120.63,55.8l-0.252-.5h-0.755V55.05l-1.006-.251V54.548l-1.51-.251V54.046h-0.5V53.8l-1.258-.251-0.252-.5-2.013-.251-0.252-.5h-0.5V52.039l-2.264-.251V51.537h-0.5V51.286l-2.516-.5V50.533h-0.755V50.282l-3.019-.251a51.7,51.7,0,0,0-15.349-2.008H80.371v0.251H77.6v0.251H75.338A12.6,12.6,0,0,1,71.816,49.027Zm23.149,7.529v0.5l1.51,0.5,0.252,0.753h0.755v0.251l0.5,0.251v0.5l1.258,1v0.251h0.5l0.5,1.255h0.5a5.7,5.7,0,0,0,.755,2.008l0.5,0.251v0.753l0.5,0.251v0.753h0.252v0.753h0.251v0.753h0.252v2.008a9.257,9.257,0,0,1,.5,3.263H103.52v1.757h-0.252v2.008l-0.5.251v1.255l-0.5.251v0.753l-0.5.251Q101.382,80.272,101,81.4h-0.5a1.038,1.038,0,0,1-1.006,1.255v0.753l-0.755.5v0.251h-0.5l-0.5,1H96.978l-0.252.753H95.971v0.5H95.216v0.5l-2.265.753-0.252.5H91.442l-0.252.5H90.184V88.93H88.926v0.251c-1.521.437-5.31-.206-6.29-0.5l-2.013-.251-0.252-.5-2.516-.753v-0.5L76.6,86.421V86.17c-0.287-.286-0.1,0-0.252-0.5H75.59L74.08,83.66c-0.856-.622-1.323-0.367-1.51-1.757-0.7-.182-0.563-0.07-0.755-0.753H71.564V80.4h-0.5l-0.252-1.255-0.5-.251-0.252-1.255H69.8V76.131H69.551v-1H69.3V73.621H69.048V71.363H68.8l1.258-6.023h0.5c0.11-1.338.745-1.805,1.007-3.012l0.755-.251V61.324l0.755-.251V60.32h0.5c0.067-.12.961-1.475,1.007-1.506a8.534,8.534,0,0,0,1.007-.251l0.5-1h0.755V57.309l0.755-.251,0.252-.5h0.755V56.3h0.5V56.054l1.007-.251V55.552l2.013-.251V55.05h1.006l0.252-.5c1.138-.474,5.342.3,6.039,0.5H91.19V55.3h0.5v0.251L93.2,55.8A3.976,3.976,0,0,0,94.965,56.556ZM53.951,72.618h1.006c0.724,1.206,2.36,1.5,2.768,3.012h0.5l0.252,0.5A6.8,6.8,0,0,1,60.745,79.9h0.5v1h0.5a15.67,15.67,0,0,0,1.007,4.517v1.757h0.252v1H62.758v1.255H62.506v1.506H62.254v1H62v0.753H61.751v0.753l-0.5.251L61,94.953l-0.5.251-0.252,1.255h-0.5v0.753c-0.755.5-.113,0.23-0.5,0.753l-1.51,1.255v0.251l-0.755.251c-0.63.776-.108,1.07-1.51,1.254-0.182.694-.07,0.562-0.755,0.753v0.251H53.951c-0.182.693-.07,0.562-0.755,0.753-0.661.749-1.239,0.393-2.265,0.753v0.251H50.177v0.251H49.422v0.251l-2.013.251v0.251a5.468,5.468,0,0,1-2.516-.251H42.628v-0.251h-1.51v-0.251H40.112v-0.251l-3.02-1-0.5-.753H35.834l-0.755-1h-0.5l-2.013-2.258-1.006-.753v-0.5l-0.5-.251v-0.5l-0.755-.5-0.252-1.255H29.8v-0.5H29.544l-0.252-1H29.041V92.695H28.789v-0.5H28.537V90.185H28.286V89.432H28.034V85.166L29.041,80.9h0.5L29.8,79.394l0.5-.251V78.39l0.5-.251a3.16,3.16,0,0,0,.755-1.757h0.5c0.619-1.049,1.916-1.477,2.264-2.761,1.421-.2.793-0.582,1.51-1h0.755l0.5-.753h0.5V71.614h0.5V71.363h0.755V71.112h0.5V70.861l1.51-.251V70.359h1.51c0.741-.214,5.494-0.582,6.542-0.251A42.624,42.624,0,0,0,53.7,71.865Zm85.8,4.015c1.033,0.265.3,0.13,0.754,0.753h0.252a1.7,1.7,0,0,1,.5,1.255h0.5v0.753h0.5v0.753h0.5v1h0.5a4.822,4.822,0,0,0,.5,2.259h0.252v1.255h0.252V86.17h0.251v3.513h-0.251V91.44H144.03v1.506h-0.252q-0.124.753-.251,1.506h-0.5c-0.078,1.43-.353.917-0.755,1.757v0.753l-0.755.5v0.5l-0.5.251v0.753l-1.762,1.254q-0.628.879-1.258,1.757h-0.755l-0.5.753h-0.5l-0.252.5h-0.5v0.251h-0.5v0.251h-0.755l-0.252.5H133.21v0.251h-0.5v0.251l-2.264.251a14.249,14.249,0,0,1-7.8-.251l-1.762-.251v-0.251l-1.006-.251v-0.251l-1.007-.251-0.251-.5h-0.755l-0.252-.5-0.755-.251-0.755-1h-0.5l-1.006-1.255-0.5-.251v-0.5l-1.007-.753v-0.5l-0.5-.251v-0.5l-0.755-.5q-0.252-1.129-.5-2.259h-0.5c-0.092-.493-0.084-1.7-0.251-2.259-0.337-1.127-1.292-4.148-.755-6.023h0.252V84.413h0.251v-1h0.252V82.656h0.251V81.9l0.5-.251v-0.5h0.251q0.378-1.129.755-2.259h0.5V78.139h0.252c0.287-.286,0-0.1.5-0.251V77.135l1.51-1c0.636-.845.354-1.319,1.761-1.506l0.252-.753h0.755v-0.5l2.264-.753v-0.5a17.986,17.986,0,0,0,4.529-1.255,5.705,5.705,0,0,1,2.517.251H131.2v0.251l1.258,0.251v0.251h0.5v0.251l1.51,0.251v0.251h0.5v0.251h0.755V73.12a5.59,5.59,0,0,1,.5.5h0.5l0.252,0.5C138.023,74.827,139.393,75.268,139.753,76.633ZM30.8,111.266v0.5c2.443-.023,3.6,1.088,5.536,1.506v0.5l1.258,0.25v0.251c0.286,0.286.1,0,.252,0.5H38.6l1.761,2.259,0.755,0.251c0.669,0.694-.316.86,1.007,1.255V119.3l0.755,0.251,1.006,3.011h0.252v0.753h0.252v0.5h0.252l0.252,3.263h0.252c0.468,1.658-.182,3.984-0.5,5.019v1.255H44.389a4.771,4.771,0,0,0-.5,2.258h-0.5l-0.252,1.506-0.755.251v0.753h-0.5v0.753H41.622c-0.287.286,0,.1-0.5,0.251v0.753l-1.51,1v0.5H39.357l-0.5.753h-0.5l-0.5.753h-0.5l-0.252.5H36.338l-0.252.5H35.331v0.251h-0.5v0.251h-0.5l-0.252.5H32.815l-0.252.5H30.3v0.5a22.553,22.553,0,0,1-7.3-.753H22l-0.252-.5H20.989l-0.252-.5-1.51-.251v-0.5l-1.258-.251c-0.386-1.294-.529-0.356-1.258-1v-0.251l-0.5-.251v-0.5l-0.5-.251a5.247,5.247,0,0,0-1.761-1.506v-0.753h-0.5a1.715,1.715,0,0,0-.252-1H12.937v-0.5H12.686v-0.5l-0.5-.251-0.252-1.255-0.5-.251v-1.5h-0.5v-2.008c-0.3-1.044-.981-3.353-0.5-5.019h0.252v-1.506l0.5-.251V122.81h0.5l0.755-2.509h0.252v-0.5h0.252a1.822,1.822,0,0,0,.252-1h0.5v-0.753h0.5a2.655,2.655,0,0,1,.5-0.5c0.235-.409-0.074-0.73.252-1h0.5l0.5-.753h0.5v-0.251a0.907,0.907,0,0,0,.5-0.753,4.812,4.812,0,0,0,1.761-.753l0.252-.5,1.006-.251v-0.251l1.007-.251v-0.251h0.755V112.27l1.006-.251v-0.251h1.51A25.64,25.64,0,0,1,30.8,111.266Zm110.46,0h5.787l0.252,0.5h1.258v0.251h0.755v0.251h1.258v0.251h0.5l0.252,0.5h0.755v0.251h0.5v0.251h0.5l0.252,0.5h0.5l0.252,0.5h0.5l1.258,1.506c0.384,0.238.763-.1,1.007,0.251v0.753l1.006,0.753v0.251h0.5a1.856,1.856,0,0,0,.252,1h0.251V119.8q0.378,0.25.755,0.5l0.252,1h0.252q0.125,0.753.251,1.506l0.5,0.251v2.008h0.252v1h0.252v1.756h0.251v1.757h-0.251v2.008H161.14v1h-0.252v0.753h-0.251V134.1h-0.252v1l-0.5.251v1l-0.5.251v0.5h-0.252v0.5h-0.252a1.771,1.771,0,0,0-.251,1h-0.5v0.753a6.971,6.971,0,0,0-3.02,3.011h-0.755v0.5a1.71,1.71,0,0,0-1.006.251v0.251h-0.5v0.251h-0.5c-0.083.167-.167,0.335-0.251,0.5h-0.755v0.251h-0.5v0.251l-1.762.251v0.5l-2.516.251V145.9c-1.647.458-4.734-.179-5.787-0.5l-2.013-.251-0.252-.5H137.74v-0.251h-0.5v-0.251h-0.755v-0.251h-0.5c-0.084-.167-0.167-0.335-0.251-0.5h-0.755l-0.252-.5h-0.5l-0.5-.753h-0.5l-0.5-.753h-0.251v-0.5l-0.755-.251-1.007-1.255-0.5-.251v-0.5l-0.5-.251-0.252-1h-0.251v-0.5h-0.252q-0.252-.753-0.5-1.506h-0.252l-0.252-1.5c-0.69-1.776-1.488-4.593-.754-7.027v-1.255h0.251v-1.757h0.252v-0.753h0.251v-0.753h0.252v-0.5h0.252v-0.753h0.251v-0.5l0.5-.251v-0.753h0.251c0.287-.286,0-0.1.5-0.251v-0.753h0.5v-0.753l1.761-1.255v-0.5l1.258-1,0.252-.5h0.5l0.252-.5,0.754-.25v-0.251l1.258-.251,0.252-.5h0.755a8.532,8.532,0,0,1,3.774-1v-0.5ZM97.229,122.308h0.5v0.753h0.5a2.447,2.447,0,0,0,.252,1.255h0.252v1.255l0.5,0.251,0.252,5.772H99.242v1.255H98.99v1l-0.5.251v0.752l-0.5.251v0.5H97.732v0.753H97.481a2.2,2.2,0,0,0-.755,1.506h-0.5c-0.467.791-1.239,1.009-1.51,2.008a1.808,1.808,0,0,0-1.258.5v0.251h-0.5a5.042,5.042,0,0,1-2.768,1v0.5c-1.194.124-3.411,0.914-4.781,0.5v-0.251H84.4v-0.251H83.39v-0.251H81.629l-0.252-.5H80.622l-0.252-.5h-0.5v-0.251h-0.5v-0.251a1.809,1.809,0,0,0-1.006-.251v-0.5l-0.755-.251-0.755-1h-0.5c-0.175-1.388-.522-0.788-1.007-1.506l-0.252-1-0.5-.251-0.252-1.5h-0.5c-0.1-.51-0.083-1.677-0.252-2.259-0.229-.789-0.871-2.217-0.5-3.514h0.252v-2.258l0.5-.251v-1.255l0.5-.251,0.755-2.259h0.5V121.3a5.794,5.794,0,0,0,2.516-2.509h0.755l0.252-.753h0.755v-0.5a10.7,10.7,0,0,0,2.768-1H83.39v-0.251h2.768a12.226,12.226,0,0,1,4.529.5v0.251l1.258,0.251v0.251h0.5v0.251l1.006,0.251,0.252,0.5h0.5l0.5,0.753C95.835,120.093,97.051,120.573,97.229,122.308ZM79.616,133.351h0.5l0.252,0.753,0.755,0.5v0.5h0.252v0.251c0.724,0.508.653-.451,1.007,0.753h1.258l0.252,0.5a13.64,13.64,0,0,0,4.529.251v-0.251h0.5v-0.251l1.51-.5,0.5-.753h0.5v-0.251l0.755-.5v-0.5l0.755-.5v-0.5H93.2a7.559,7.559,0,0,0,.755-4.267H93.707v-1.756l-0.5-.251v-0.753l-0.5-.251v-0.753l-1.258-.753-1.007-1.255-1.51-.5v-0.251H87.919v-0.251c-1.895-.559-4.351.485-5.284,1h-0.5l-0.252.5h-0.5l-0.5.753H80.622v0.5l-1.006.753v0.5H79.364v0.5H79.113l-0.5,3.764h0.252v1.255A7.619,7.619,0,0,1,79.616,133.351Zm96.118,18.32h0.5a11.923,11.923,0,0,0,1.258,4.015v1h0.252v0.5H178l0.252,1.506H178.5v0.5l0.5,0.251v1l0.5,0.251,0.252,1.505h0.5q0.378,1.381.755,2.761l0.755,0.5v0.5h0.251l0.252,1.255,0.5,0.251v0.5l0.755,0.5,0.252,1.505h0.5v0.753h0.252c0.286,0.286,0,.1.5,0.251A3.912,3.912,0,0,0,185.8,173l0.5,0.251v0.5l1.006,0.753v0.5h0.252l0.252,0.752,0.5,0.251v0.5c0.517,0.736.8,0.113,1.006,1.506,1.483,0.411.559,0.914,1.258,1.506h0.5v0.251l0.754,0.5v0.753l1.762,1.254v0.753l1.006,0.753v0.251h0.5l1.51,1.757,0.755,0.5v0.5h0.252l0.755,1h0.754l1.51,2.007H201.4l0.755,1.255h0.755l0.754,1h0.5v0.251l0.5,0.251v0.5h0.755c0.455,0.768,1.038.753,1.761,1.255l0.5,0.753h0.5l0.5,0.753h0.5l0.252,0.5h1.006c0.235,0.867.626,0.851,1.51,1v0.5l1.258,0.251v0.5l1.258,0.251V199.1h0.5l0.252,0.5h0.755l0.5,0.753H217v0.251l1.51,0.251,0.252,0.5h0.5v0.251h0.5v0.251h0.755v0.251h0.5v0.251h0.755l0.252,0.5,1.509,0.251v0.251h0.5v0.251H224.8l0.252,0.5,3.271,0.753v0.251h0.755v0.251h0.755v0.251h0.755v0.251h0.754v0.251l2.265,0.251v0.251h1.51a49.407,49.407,0,0,0,15.1,2.259V189.566c-4.823.045-7.693-.96-12.329-1v-0.5l-3.775-.251q-0.126-.252-0.251-0.5H232.1v-0.251l-2.767-.5V186.3h-1.007v-0.251h-0.755V185.8h-0.5v-0.251h-1.258a7.066,7.066,0,0,0-2.516-.753v-0.5l-1.258-.251v-0.251h-1.259v-0.251l-1.006-.251v-0.251h-0.755V182.79h-0.5v-0.251h-0.755v-0.251l-1.258-.25v-0.251h-0.5v-0.251h-0.755l-0.252-.5h-0.5v-0.251h-0.755q-0.126-.252-0.251-0.5h-0.5V180.03h-0.5v-0.251h-0.5v-0.251h-0.5v-0.251h-0.755v-0.251a1.961,1.961,0,0,0-1.007-.251v-0.5a11.47,11.47,0,0,1-2.516-1v-0.5l-1.258-.251-0.252-.5-1.006-.251-0.252-.5h-0.5l-0.252-.5h-0.5q-0.126-.252-0.251-0.5h-0.5q-0.124-.252-0.251-0.5a3.141,3.141,0,0,0-1.762-.753q-0.125-.376-0.251-0.753h-0.755v-0.5c-0.776-.288-1.008-0.118-1.258-1h-0.755q-0.252-.5-0.5-1h-0.755l-0.252-.5h-0.251l-0.252-.752h-0.755q-0.376-.628-0.755-1.255H193.1l-1.51-1.757-0.5-.251v-0.5h-0.252l-0.755-1h-0.755v-0.251l-0.755-.5v-0.5l-0.5-.251q-0.126-.377-0.251-0.752l-3.02-2.51V158.2l-1.51-1v-0.753l-1.006-.5v-0.753h-0.252l-0.251-.5h-0.5q-0.25-.628-0.5-1.255h-0.5a3.01,3.01,0,0,0-.755-1.757l-0.5-.251v-0.5l-0.755-.5-0.252-1-0.754-.5v-0.5l-0.5-.251v-0.752l-0.754-.5-0.252-1.255h-0.5c-0.119-1.249-.745-1.412-1.007-2.51h-0.251v1.255c0.42,0.472.262,1.333,0.5,2.008h0.251v1.506h0.252l0.252,1.756,0.5,0.251v1.757Zm-122.79,2.008v0.5h1.006a2.928,2.928,0,0,1,.5,1h0.755l2.013,2.51h0.5v0.251l0.755,0.5v0.5l0.5,0.251v0.753h0.5l0.5,1.757,0.5,0.25v0.753l0.5,0.251,0.252,2.761h0.5L62,169.991H61.751v2.259h-0.5l-0.5,3.012H60.493v0.5H60.241v0.753l-0.5.251-0.252,1.255h-0.5v0.753h-0.5v0.753l-2.768,2.259v0.5l-0.5.251v0.251H54.454v0.5H53.7v0.5a1.874,1.874,0,0,0-1.006.251V184.3H51.938l-0.252.5-1.007.251V185.3l-3.019.5v0.251H46.654V186.3H45.4v0.251a10.067,10.067,0,0,1-2.768-.5H41.37V185.8H40.615v-0.251H38.854V185.3h-0.5v-0.251H37.6l-0.252-.5H36.589l-0.252-.5H35.583v-0.251a1.927,1.927,0,0,0-1.258-.5l-0.252-.753H33.318v-0.5l-1.51-1.255v-0.251l-0.755-.251v-0.753l-0.755-.5-0.252-.753-0.5-.251v-0.753l-0.5-.251v-0.5H28.789l-0.252-1H28.286v-1H28.034v-0.5H27.783v-1H27.531v-2.259H27.279v-4.266h0.252v-1.757h0.252v-0.753h0.252v-0.753h0.252v-0.753h0.252l0.5-1.5h0.252v-0.5h0.252A3.8,3.8,0,0,0,30.3,158.7l0.755-.251v-0.753h0.5a11.145,11.145,0,0,1,1.258-1.255v-0.5l0.5-.251v-0.251c0.772-.5.633,0.446,1.006-0.752H35.08v-0.251c0.286-.286.1,0,0.252-0.5,1.556-.164,2.339-1.046,3.523-1.506H39.86v-0.251h1.258v-0.251h1.51v-0.251h3.523v0.251l3.019,0.251v0.251h0.5v0.251H50.68l0.252,0.5A13.851,13.851,0,0,0,52.944,153.679Zm89.828,22.335h-0.5a12.638,12.638,0,0,1-2.013,4.267l-1.007.753v0.5l-0.5.251-0.755,1h-0.5q-0.378.5-.755,1h-0.5l-0.252.5h-0.5l-0.5.753-1.258.251-0.252.5h-0.755v0.251h-0.5V186.3l-2.013.251c-1.027.325-4.168,0.962-5.787,0.5v-0.251h-2.013l-4.278-1.506-0.5-.753H116.6V184.3c-0.64-.541-0.112-0.572-1.258-0.753v-0.5l-1.762-1.5c-0.084-.168-0.167-0.335-0.251-0.5h-0.5q-0.124-.252-0.251-0.5h-0.252v-0.753l-0.5-.251v-0.5l-0.755-.5-0.252-1.255-0.5-.251v-0.5h-0.251q-0.378-2.257-.755-4.517h-0.252q-0.126-2.133-.251-4.266h0.251V166.98h0.252v-0.5h0.251l0.252-2.761h0.252q0.251-.753.5-1.506h0.251v-0.5l0.755-.5v-0.753l0.5-.251c0.687-1.041,1.163-2.4,2.516-2.761,0.372-1.356,1.972-1.567,2.768-2.51h0.754v-0.5h0.755v-0.5l1.258-.251v-0.251h1.51v-0.251h0.5v-0.251l3.271-.251v-0.251a5.52,5.52,0,0,1,2.516.251h1.51v0.251h1.007v0.251h1.006v0.251l1.258,0.251v0.251h0.5v0.251h0.755v0.251h0.5q0.125,0.251.251,0.5l1.007,0.251c0.084,0.168.167,0.335,0.251,0.5h0.5l0.5,0.753h0.5l1.761,2.008,0.755,0.5v0.5l0.755,0.5v0.5l0.5,0.251,0.252,1,0.5,0.25v0.5h0.252q0.126,1.13.251,2.259h0.252v0.753h0.252c0.3,0.865.871,4.993,0.5,6.274A14.611,14.611,0,0,0,142.772,176.014Zm51.33-6.023v0.5a2.654,2.654,0,0,1,.5.5h0.5l0.5,0.753h0.755V172c0.62,0.549.128,0.586,1.258,0.753v0.5c0.776,0.288,1.007.118,1.258,1h0.755v0.5c1.153,0.164.618,0.228,1.258,0.752v0.251h0.755v0.5h0.754v0.5h0.755c0.319,0.48,1.348.923,1.51,1.255v11.293h-0.252a2.414,2.414,0,0,0-1.006-.5l-2.265-2.51h-0.5l-1.761-2.008h-0.5l-0.252-.5-2.265-2.007v-0.5h-0.5l-2.264-2.51h-0.252v-9.286H193.1A1.393,1.393,0,0,0,194.1,169.991Zm-92.344,9.788h0.5v1h0.5v1.505h0.251v0.5h0.252v1h0.252v2.259h0.251v1.757H103.52v2.509c-0.383,1.271-1,2.668-1.259,4.016h-0.5c-0.122,1.639-2.7,4.937-4.026,5.27-0.317,1.181-1.113,1.175-2.013,1.757l-0.252.5H94.713l-0.5.753h-0.5v0.25l-1.007.251v0.251H91.694c-1.75.589-4.1,1.369-6.29,0.753H82.887a17.668,17.668,0,0,0-3.523-1v-0.5H78.358v-0.251a1.906,1.906,0,0,1-1.007-.5v-0.251h-0.5v-0.251h-0.5l-0.5-.753h-0.5v-0.251a0.877,0.877,0,0,1-.5-0.753c-1.58-.412-3.687-3.763-4.026-5.521h-0.5v-0.5H70.054v-1.506l-0.5-.251L69.3,189.817H69.048V184.3l0.5-.251,0.252-3.011h0.252l0.252-1h0.252l0.5-1.506,0.5-.251v-0.5l0.5-.251v-0.5l0.755-.5a16.919,16.919,0,0,1,7.3-5.772h0.755v-0.251c0.915-.359,5.1-1.162,6.542-0.753v0.251h2.768v0.251h0.755v0.251h0.755v0.251h0.755V171h0.5v0.251L95.216,172v0.251l0.755,0.251,0.252,0.5h0.5l2.013,2.259C99.894,176.414,101.564,177.709,101.758,179.779Zm106.938,0.5,1.258,0.251,0.5,0.753h0.755l0.252,0.5,1.006,0.251q0.252,0.375.5,0.752h0.755v0.251h0.5v0.251l1.51,0.5v0.251H216.5V184.3H217v0.251h0.755V184.8h0.5v0.251h0.755V185.3l1.007,0.251V185.8l1.258,0.251V186.3l1.761,0.251v0.251c0.535,0.606.252,2.7,0.252,3.764v10.541h-0.252V200.86l-1.51-.251c-0.084-.167-0.167-0.335-0.251-0.5h-0.755v-0.251l-1.007-.251v-0.251h-0.5c-0.084-.167-0.168-0.335-0.251-0.5-0.388-.224-0.784.1-1.007-0.251v-0.5c-1.7-.15-1.693-1.055-3.271-1.255v-0.5l-1.258-.251v-0.5H212.47c-0.182-.694-0.07-0.562-0.755-0.753v-0.251H210.96v-0.5l-1.258-.251v-0.5l-1.006-.251v-12.8Zm19.374,8.282,3.02,0.752v0.251l1.006,0.251v0.251h1.762q0.125,0.252.251,0.5l2.768,0.251v0.251h0.755v0.251l2.264,0.251a24.7,24.7,0,0,0,6.794.753c0.7,1.887.264,7.255,0.252,9.788,0.617,0.652.278,3.556,0,4.266a33.833,33.833,0,0,0-5.284-.251v-0.5a26.131,26.131,0,0,1-8.807-1.506h-1.51v-0.251h-1.006V203.62h-0.5v-0.251h-1.258v-0.251c-0.287-.285-0.1,0-0.252-0.5-0.535-.606-0.252-2.7-0.252-3.765V188.563Z"/>
</svg>
