<svg xmlns="http://www.w3.org/2000/svg" width="256" height="256" viewBox="0 0 256 256">
  <metadata><?xpacket begin="﻿" id="W5M0MpCehiHzreSzNTczkc9d"?>
<x:xmpmeta xmlns:x="adobe:ns:meta/" x:xmptk="Adobe XMP Core 5.6-c138 79.159824, 2016/09/14-01:09:01        ">
   <rdf:RDF xmlns:rdf="http://www.w3.org/1999/02/22-rdf-syntax-ns#">
      <rdf:Description rdf:about=""/>
   </rdf:RDF>
</x:xmpmeta>
                                                                                                    
                                                                                                    
                                                                                                    
                                                                                                    
                                                                                                    
                                                                                                    
                                                                                                    
                                                                                                    
                                                                                                    
                                                                                                    
                                                                                                    
                                                                                                    
                                                                                                    
                                                                                                    
                                                                                                    
                                                                                                    
                                                                                                    
                                                                                                    
                                                                                                    
                                                                                                    
                           
<?xpacket end="w"?></metadata>
<defs>
    <style>
      .cls-1 {
        fill: inherit;
        fill-rule: evenodd;
      }
    </style>
  </defs>
  <path id="Ciudades_coloniales_icono" data-name="Ciudades coloniales icono" class="cls-1" d="M232.065,59.2h3.122V69.627l4.163,10.424s4.642-.388,7.284,1.042c-0.021.136,2.276,1.456,0,3.127a5.028,5.028,0,0,1-1.041,0V88.39s5.238,2.984,5.2,7.3a4.826,4.826,0,0,1-3.122,4.169c-0.074.073,0,16.678,0,16.678s4.193,1.472,4.162,4.169-4.162,3.128-4.162,3.128v27.1s2.141,1.241,2.081,6.254,0,7.3,0,7.3H256V251H0V148.847l5.2-3.127,4.163,2.085V131.127s-2.764-3.5-2.081-6.254a2.191,2.191,0,0,1,2.081-2.085c-0.1.049,0-11.466,0-11.466s-3.167-4.967-2.081-7.3c-0.067-.586,2.081-3.127,2.081-3.127V88.39S7.29,87.345,7.285,83.178s2.081-4.169,2.081-4.169V63.373h1.041V52.949h1.041v-7.3h1.041V36.271h2.081v9.381H15.61v7.3H16.65V63.373h1.041V79.009s2.195-.9,2.081,4.169c-0.059.013,0.449,4.639-2.081,5.212,0.016,0.169,0,12.508,0,12.508s1.255,0.233,2.081,3.127-2.081,7.3-2.081,7.3v11.466a1.893,1.893,0,0,1,2.081,2.085c-0.05,2.255-2.081,6.254-2.081,6.254v9.381h2.081s0.478-10.615,19.772-14.593c0.1-.008,2.081-11.466,2.081-11.466h1.041l2.081,11.466s15.433-.864,23.935,18.763a4.887,4.887,0,0,1,1.041,0v-7.3s-3.208.688-3.122-9.381c0.027,0.032,3.122,0,3.122,0V116.534s-3.061,0-3.122-9.381c-0.064.069,3.122,0,3.122,0V95.686s-3.159-.131-3.122-9.381c0-.031,3.122,0,3.122,0V62.331h1.041v-7.3H71.8v-7.3h1.041V41.483h2.081v6.254h1.041v7.3h1.041v7.3h1.041V86.305H80.13s0.283,9.046-3.122,9.381c-0.02.193,0,11.467,0,11.467H80.13s-0.051,9.41-3.122,9.381c-0.037,4.232,0,11.466,0,11.466h2.081s0.548,9.36-2.081,9.381c0.087,0.162,0,10.424,0,10.424h5.2s4.151-.006,4.163,5.212,0,8.339,0,8.339-0.274,6.173,6.244,6.254c0.092-.02,4.163,0,4.163,0v-8.339h2.081v8.339a8.343,8.343,0,0,1,8.325,4.17c-0.066.1,0-6.255,0-6.255h16.65v14.594h1.041V142.593H161.3v40.653h2.081v-9.382h6.244V167.61H184.2v9.382h1.041s-1.054-12.475,6.244-12.509c0.05,0.044,0-40.652,0-40.652a3.084,3.084,0,0,1-3.122-3.128c-0.193-3.2,4.162-3.127,4.162-3.127V102.983s-4.032-2.779-3.122-7.3,5.2-7.3,5.2-7.3V84.22h-1.041s-2.462-1.208,0-3.127c3.4-1.505,8.325-1.042,8.325-1.042l3.122-10.424V59.2h4.163l9.366-31.271h1.04V5h1.041V27.932h1.041ZM131.122,149.89h8.325v4.169h-8.325V149.89Zm14.569,0h8.325v4.169h-8.325V149.89Zm-14.569,6.254h8.325v4.17h-8.325v-4.17Zm14.569,0h8.325v4.17h-8.325v-4.17ZM131.122,162.4h8.325v4.17h-8.325V162.4Zm14.569,0h8.325v4.17h-8.325V162.4Zm-14.569,7.3h8.325v4.169h-8.325V169.7Zm14.569,0h8.325v4.169h-8.325V169.7Zm-14.569,6.254h8.325v4.17h-8.325v-4.17Zm14.569,0h8.325v4.17h-8.325v-4.17Z"/>
</svg>
