<svg xmlns="http://www.w3.org/2000/svg" width="256" height="256" viewBox="0 0 256 256">
  <metadata><?xpacket begin="﻿" id="W5M0MpCehiHzreSzNTczkc9d"?>
<x:xmpmeta xmlns:x="adobe:ns:meta/" x:xmptk="Adobe XMP Core 5.6-c138 79.159824, 2016/09/14-01:09:01        ">
   <rdf:RDF xmlns:rdf="http://www.w3.org/1999/02/22-rdf-syntax-ns#">
      <rdf:Description rdf:about=""/>
   </rdf:RDF>
</x:xmpmeta>
                                                                                                    
                                                                                                    
                                                                                                    
                                                                                                    
                                                                                                    
                                                                                                    
                                                                                                    
                                                                                                    
                                                                                                    
                                                                                                    
                                                                                                    
                                                                                                    
                                                                                                    
                                                                                                    
                                                                                                    
                                                                                                    
                                                                                                    
                                                                                                    
                                                                                                    
                                                                                                    
                           
<?xpacket end="w"?></metadata>
<defs>
    <style>
      .cls-1 {
        fill: inherit;
        fill-rule: evenodd;
      }
    </style>
  </defs>
  <path id="Comentarios_icono" data-name="Comentarios icono" class="cls-1" d="M24.727,15.225H198.39s21.532-.817,21.58,19.5,0,123.151,0,123.151-1.342,21.382-18.5,21.551-183.94,0-183.94,0S0.222,180.77.064,160.952s0-128.281,0-128.281S-1.921,12.653,22.671,15.225C22.676,15.24,24.727,15.225,24.727,15.225ZM225.108,124.007h22.607s8.073-.458,8.221,9.237,0,64.653,0,64.653,0.846,9.595-10.276,9.237c-7.951.264-93.511,0-93.511,0s-9.4.985-9.249-10.263,0-12.315,0-12.315h56.518s25.694,2.259,25.69-23.6C224.918,133.946,225.108,124.007,225.108,124.007ZM51.444,81.931S66.758,81.988,66.858,96.3c-0.15,16-15.414,16.42-15.414,16.42s-14.924.913-15.414-14.367C35.191,82.133,51.444,81.931,51.444,81.931Zm57.545,0s16.7,0.107,16.442,15.394-15.414,15.393-15.414,15.393-15.434.615-15.414-15.393S108.989,81.931,108.989,81.931Zm58.573,0s15.536,0.116,15.414,16.42c-2.366,14.518-15.414,14.367-15.414,14.367s-14.657,1.16-15.413-15.393C152.724,80.6,167.562,81.931,167.562,81.931Zm41.1,131.36H232.3V241ZM45.279,184.556H94.6L45.279,241V184.556Z"/>
</svg>
