<svg xmlns="http://www.w3.org/2000/svg" width="256" height="256" viewBox="0 0 256 256">
  <metadata><?xpacket begin="﻿" id="W5M0MpCehiHzreSzNTczkc9d"?>
<x:xmpmeta xmlns:x="adobe:ns:meta/" x:xmptk="Adobe XMP Core 5.6-c138 79.159824, 2016/09/14-01:09:01        ">
   <rdf:RDF xmlns:rdf="http://www.w3.org/1999/02/22-rdf-syntax-ns#">
      <rdf:Description rdf:about=""/>
   </rdf:RDF>
</x:xmpmeta>
                                                                                                    
                                                                                                    
                                                                                                    
                                                                                                    
                                                                                                    
                                                                                                    
                                                                                                    
                                                                                                    
                                                                                                    
                                                                                                    
                                                                                                    
                                                                                                    
                                                                                                    
                                                                                                    
                                                                                                    
                                                                                                    
                                                                                                    
                                                                                                    
                                                                                                    
                                                                                                    
                           
<?xpacket end="w"?></metadata>
<defs>
    <style>
      .cls-1 {
        fill:inherit;
        fill-rule: evenodd;
      }
    </style>
  </defs>
  <path id="Consulta_la_informacion" data-name="Consulta la informacion" class="cls-1" d="M0.032,62.945S-0.5,59.959,2.087,59.9c2.373-.032,7.685.011,8.223,0C20.956,44.161,79.1,26.345,127.486,51.8c4.085-6.96,79.134-28.824,118.2,8.108,0.106-.034,8.223,0,8.223,0s2.056-.011,2.056,3.041c0.019,3.059,0,151.015,0,151.015s0.39,3.066-3.084,3.041S3.115,217,3.115,217a3.057,3.057,0,0,1-3.084-3.041C0.016,210.968.032,62.945,0.032,62.945Zm5.139,3.041h6.167V199.77s-0.552,6.677,6.167,1.014c0.028-.035,47.471-30.628,109.981-2.027-0.185-.166,54.095-30.294,112.036,2.027-0.031-.021,5.159,3.465,5.139-1.014s0-133.785,0-133.785h6.168V210.919H6.2Zm12.334-5.068s43.816-29.061,105.869-4.054c-0.1-.087,0,132.772,0,132.772s-53.012-27.37-105.869,3.04C17.424,192.741,17.505,60.917,17.505,60.917Zm113.064-4.054s54.88-27.856,107.925,4.054c0.117,0.059,0,131.758,0,131.758s-46.936-31.347-107.925-3.04C130.474,189.609,130.569,56.863,130.569,56.863ZM36.007,78.147c0.007-.177-0.576-3.025,3.084-3.04s62.7,0,62.7,0a2.9,2.9,0,0,1,3.084,3.04c-0.017,4.636-3.084,4.054-3.084,4.054H39.09S35.341,82.608,36.007,78.147Zm0,23.311S35.963,97.442,39.09,97.4s62.7,0,62.7,0,3.012,0.037,3.084,4.054-3.084,4.054-3.084,4.054H40.118s2.67,0.048-1.028,0S36.007,101.458,36.007,101.458Zm0,22.3s-0.875-4.033,4.111-4.054,60.644,0,60.644,0,4.076,0.04,4.111,4.054-3.084,4.054-3.084,4.054H41.146s3.862,0.01-1.028,0S36.007,123.756,36.007,123.756Zm118.2-48.649h63.727s2.04,0.032,2.056,4.054a2.9,2.9,0,0,1-2.056,3.041H154.21s-3.06-.03-3.083-4.054A2.989,2.989,0,0,1,154.21,75.107Zm-3.083,26.351a3.957,3.957,0,0,1,4.111-4.054c4.153-.008,60.643,0,60.643,0s4.077,0.028,4.112,4.054-4.112,4.054-4.112,4.054H156.266s3.441,0.021-1.028,0S151.127,101.458,151.127,101.458Zm4.111,18.244h59.616s5.119-.009,5.139,4.054-5.139,4.054-5.139,4.054H155.238s-4.14-.082-4.111-4.054S155.238,119.7,155.238,119.7Zm22.613,34.46h38.03s4.089,0.024,4.112,4.054-4.112,4.054-4.112,4.054h-38.03s-4.116-.076-4.112-4.054S177.851,154.162,177.851,154.162Z"/>
</svg>
