<svg xmlns="http://www.w3.org/2000/svg" width="256" height="256" viewBox="0 0 256 256">
  <metadata><?xpacket begin="﻿" id="W5M0MpCehiHzreSzNTczkc9d"?>
<x:xmpmeta xmlns:x="adobe:ns:meta/" x:xmptk="Adobe XMP Core 5.6-c138 79.159824, 2016/09/14-01:09:01        ">
   <rdf:RDF xmlns:rdf="http://www.w3.org/1999/02/22-rdf-syntax-ns#">
      <rdf:Description rdf:about=""/>
   </rdf:RDF>
</x:xmpmeta>
                                                                                                    
                                                                                                    
                                                                                                    
                                                                                                    
                                                                                                    
                                                                                                    
                                                                                                    
                                                                                                    
                                                                                                    
                                                                                                    
                                                                                                    
                                                                                                    
                                                                                                    
                                                                                                    
                                                                                                    
                                                                                                    
                                                                                                    
                                                                                                    
                                                                                                    
                                                                                                    
                           
<?xpacket end="w"?></metadata>
<defs>
    <style>
      .cls-1 {
        fill:inherit;
        fill-rule: evenodd;
      }
    </style>
  </defs>
  <path id="contáctanos_icono" data-name="contáctanos icono" class="cls-1" d="M0.135,95.055s1.219-16.7,18.353-21.6C18.539,73.31,47.287.515,128.607,0s111.2,73.452,111.2,73.452,13.643,3.4,16.194,20.523c0.015,0.43,0,59.409,0,59.409s-0.562,12.772-16.194,20.523c-0.1.371-24.53,63.4-97.164,72.371-0.007.085-2.158,9.63-15.114,9.722-14.016-.763-16.314-15.164-16.194-16.2-0.061-.059-2.4-15.607,17.273-17.282,11.144,0.448,12.955,7.561,12.955,7.561s55.067-3.225,84.209-63.73c0.019-.1,0-84.253,0-84.253S202.376,18.481,128.607,16.2c-0.15.013-66.168-6.061-99.323,69.131,0.272-.041,0,91.815,0,91.815S5.6,179.193.135,155.544C-0.172,155.379.135,95.055,0.135,95.055ZM127.528,36.726A86.414,86.414,0,1,1,41.16,123.139,86.391,86.391,0,0,1,127.528,36.726ZM86.5,133.941h80.97s-3.8,41.284-41.025,41.046S86.5,133.941,86.5,133.941Z"/>
</svg>
