<svg xmlns="http://www.w3.org/2000/svg" width="256" height="256" viewBox="0 0 256 256">
  <metadata><?xpacket begin="﻿" id="W5M0MpCehiHzreSzNTczkc9d"?>
<x:xmpmeta xmlns:x="adobe:ns:meta/" x:xmptk="Adobe XMP Core 5.6-c138 79.159824, 2016/09/14-01:09:01        ">
   <rdf:RDF xmlns:rdf="http://www.w3.org/1999/02/22-rdf-syntax-ns#">
      <rdf:Description rdf:about=""/>
   </rdf:RDF>
</x:xmpmeta>
                                                                                                    
                                                                                                    
                                                                                                    
                                                                                                    
                                                                                                    
                                                                                                    
                                                                                                    
                                                                                                    
                                                                                                    
                                                                                                    
                                                                                                    
                                                                                                    
                                                                                                    
                                                                                                    
                                                                                                    
                                                                                                    
                                                                                                    
                                                                                                    
                                                                                                    
                                                                                                    
                           
<?xpacket end="w"?></metadata>
<defs>
    <style>
      .cls-1 {
        fill: inherit;
        fill-rule: evenodd;
      }
    </style>
  </defs>
  <path id="Cultura_icono" data-name="Cultura icono" class="cls-1" d="M123.84,0.825C127.582,0.989,132.889,0,134,8.951c0.3,0.706,15.868,37.738,16.181,69.917C142.712,75.386,121,65.052,108.6,107.479c0.088,0.385-30.788-9.377-39.628,37.582-0.111.228,17.568-24.241,33.533-23.362,0.1,0.074-12.194,43.677-12.194,43.677S36.762,162.135.889,51.613c-0.21.262-3.134-5.7,3.048-8.126C4.207,43.41,41.017,5.259,123.84.825ZM92.34,63.8s18.142-21.729,40.645,0C110.082,84.6,92.34,63.8,92.34,63.8ZM39.5,97.321s29.049,5.1,34.548-24.378C46.973,65.938,39.5,97.321,39.5,97.321ZM140.1,89.2s61.871,4.071,114.822,58.914c-0.066.019,3.05,3.286-1.016,8.126-0.587.953-38.4,91.725-100.6,99.543-1.759.856-22.315-.972-25.4-3.047-1.351-1.311-8.263-.847-22.355-34.536-0.336-.623-19.462-42.971,24.387-122.905,0.22,0.286,2.2-6.961,9.145-6.094C139,89.412,140.1,89.2,140.1,89.2Zm-12.193,55.866s25.867-9.407,36.58,18.284C132.758,168.671,127.905,145.061,127.905,145.061Zm49.79,24.378s27.251-8.914,36.58,18.284C183.936,194.519,177.7,169.439,177.7,169.439Zm-54.871,11.174c0.33-3.921,12.424,40.878,63,30.472-0.772.133-16.6,19.915-44.71,14.22C140.889,225.215,118.588,217.716,122.824,180.613Z"/>
</svg>
