<svg xmlns="http://www.w3.org/2000/svg" width="256" height="256" viewBox="0 0 256 256">
  <metadata><?xpacket begin="﻿" id="W5M0MpCehiHzreSzNTczkc9d"?>
<x:xmpmeta xmlns:x="adobe:ns:meta/" x:xmptk="Adobe XMP Core 5.6-c138 79.159824, 2016/09/14-01:09:01        ">
   <rdf:RDF xmlns:rdf="http://www.w3.org/1999/02/22-rdf-syntax-ns#">
      <rdf:Description rdf:about=""/>
   </rdf:RDF>
</x:xmpmeta>
                                                                                                    
                                                                                                    
                                                                                                    
                                                                                                    
                                                                                                    
                                                                                                    
                                                                                                    
                                                                                                    
                                                                                                    
                                                                                                    
                                                                                                    
                                                                                                    
                                                                                                    
                                                                                                    
                                                                                                    
                                                                                                    
                                                                                                    
                                                                                                    
                                                                                                    
                                                                                                    
                           
<?xpacket end="w"?></metadata>
<defs>
    <style>
      .cls-1 {
        fill: inherit;
        fill-rule: evenodd;
      }
    </style>
  </defs>
  <path id="Distribución_ícono" data-name="Distribución ícono" class="cls-1" d="M133.314,42.155V64.376a19.028,19.028,0,0,1,5.228.784l2.875,0.261v0.261h1.045v0.261h1.046v0.261h1.046v0.261H145.6v0.261h0.784V66.99h0.785v0.261h0.784v0.261h0.784v0.261h0.784v0.261H150.3V68.3h0.523v0.261h0.784V68.82h0.523v0.261h0.784v0.261l1.046,0.261v0.261h0.523v0.261h0.784v0.261l1.568,0.523v0.261l1.046,0.261,0.261,0.523h0.523v0.261h0.523l0.523,0.523h0.522l0.262,0.523h0.522v0.261h0.523l0.262,0.523h0.522q0.132,0.261.262,0.523h0.523v0.261l0.784,0.261,0.261,0.523h0.523L165.2,76.4h0.523l0.522,0.784h0.523l0.784,1.046h0.523l1.046,1.307h0.522l2.614,2.876,3.921,3.66V86.6l1.307,1.046v0.523l0.784,0.523v0.523L179.319,90v0.523l0.523,0.261,0.261,0.784c0.526-.15.226,0.031,0.523-0.261l0.784-.261V90.78h0.523V90.518h0.523L182.717,90l1.569-.523,0.261-.523,1.568-.523,0.262-.523H186.9V87.643h0.522l0.262-.523,1.568-.523,0.261-.523,1.046-.261,0.261-.523,1.569-.523,0.261-.523,1.569-.523,0.261-.523,4.966-2.614c-1.965-4.977-.3-13.077,1.83-16.47l0.523-.261,0.261-1.046,0.785-.523V61.762l1.045-.784V60.454l1.569-1.307,0.261-.523h0.523l0.784-1.046h0.523l0.261-.523h0.523l0.261-.523,1.046-.261,0.261-.523h0.784V55.487h0.523V55.226l1.046-.261V54.7l1.83-.261V54.18h0.784V53.919h1.307a15.546,15.546,0,0,1,8.364.261l3.4,0.784v0.261l1.569,0.523V56.01h0.523v0.261l1.045,0.261q0.131,0.261.262,0.523h0.522q0.262,0.392.523,0.784h0.523l2.352,2.614,1.307,1.046v0.523l0.785,0.523v0.523l0.522,0.261q0.132,0.523.262,1.046h0.261V64.9h0.262v0.523h0.261l0.523,1.569H239.7q0.131,0.784.262,1.569h0.261V69.6a17.028,17.028,0,0,1,.261,9.15v1.307h-0.261v0.784h-0.261V81.63H239.7v0.784H239.44V83.2h-0.262l-0.522,1.569h-0.262l-0.261,1.046-0.523.261-0.261,1.046-0.785.523v0.523l-2.352,2.091-1.046,1.307h-0.522l-0.523.784H231.6l-0.261.523h-0.523q-0.13.261-.262,0.523H230.03l-0.523.523h-0.523v0.261h-0.523V94.44h-0.523V94.7l-1.568.262a18.717,18.717,0,0,1-13.07,0l-1.568-.262V94.44l-1.568-.523V93.655l-1.569-.523-0.261-.523h-0.523q-0.261-.392-0.523-0.784h-0.523l-0.784-1.046h-0.522l-0.785-1.046a2.436,2.436,0,0,0-.522.523h-0.523v0.261h-0.523l-0.261.523-1.569.523-0.261.523-1.046.261-0.261.523-1.569.523-0.261.523h-0.523v0.261h-0.522q-0.132.261-.262,0.523l-1.045.262v0.261H195l-0.262.523-1.045.261-0.262.523-1.568.523-0.261.523-1.569.523-0.261.523-1.046.261-0.261.523-1.046.261a5.32,5.32,0,0,1-1.829,1.046q1.7,4.313,3.4,8.627l0.261,2.091h0.261v0.784h0.262v1.046h0.261v1.307H190.3v1.307h0.261v1.308h0.261v1.83h0.262v1.829h0.261v3.138h0.262c0.378,1.355.023,7.35-.262,8.365v2.876h-0.261v2.091H190.82v1.569h-0.261v1.568H190.3v1.307h-0.262V142.8h-0.261v1.046h-0.262V144.9h-0.261v1.045h-0.261v0.785h-0.262v0.784h-0.261v0.784h-0.262v0.784h-0.261v0.785h-0.261q-0.13.783-.262,1.568h-0.261v0.523H186.9v0.784h-0.262q-0.522,1.439-1.045,2.876l1.568,0.523,0.261,0.523,1.046,0.261,0.261,0.523,1.569,0.523,0.261,0.523,1.046,0.261,0.261,0.523,1.568,0.523c0.087,0.174.175,0.348,0.262,0.523l1.568,0.522q0.13,0.262.262,0.523l1.045,0.262,0.262,0.523,1.568,0.522,0.261,0.523h0.523v0.262h0.523l0.261,0.523,1.569,0.522c1.081,0.682,1.777,1.623,3.4,1.83,0.517-.9.809-0.768,1.568-1.307l0.523-.784h0.523l0.522-.784c3.176-2.112,10.305-4.424,15.423-2.876l3.136,0.523v0.261h0.523v0.262h0.784v0.261l1.569,0.523v0.261h0.523v0.262l1.045,0.261q0.131,0.263.262,0.523h0.522l0.262,0.523,0.784,0.261,1.046,1.308h0.522v0.261l0.784,0.523v0.523l1.307,1.045v0.523l0.785,0.523v0.523l0.522,0.261v0.523l0.523,0.523v0.523h0.262v0.523h0.261v0.523h0.261q0.132,0.522.262,1.045H239.7v0.785h0.262v0.784h0.261v1.046h0.261v1.307a15.2,15.2,0,0,1,0,7.842v1.307h-0.261v0.785h-0.261v0.784H239.7v0.784H239.44v0.785h-0.262l-0.522,1.568h-0.262l-0.261,1.046-0.523.261v0.523l-0.523.262v0.522l-0.784.523v0.523L235,196.134l-1.83,2.091h-0.522l-0.523.784H231.6l-0.261.523-1.046.262-0.261.523h-0.523v0.261l-1.046.261V201.1h-0.784v0.261h-0.523v0.262h-1.045v0.261h-0.784v0.262h-1.046v0.261h-1.307a17,17,0,0,1-7.842-.261h-1.045v-0.262l-2.353-.523V201.1l-1.568-.523v-0.261l-1.046-.262-0.261-.523h-0.523v-0.261l-0.784-.262-0.262-.522h-0.523l-1.306-1.569h-0.523l-0.523-.523v-0.523l-1.568-1.307v-0.523l-0.523-.261v-0.523L201.8,193l-0.261-.785h-0.262l-0.261-1.045h-0.262l-0.261-1.046h-0.261q-0.13-.654-0.262-1.307h-0.261q-0.523-2.221-1.046-4.444v-6.013a9.259,9.259,0,0,0,.523-2.876l-1.568-.523-0.262-.522-1.045-.262c-0.087-.174-0.175-0.348-0.262-0.523l-1.568-.523-0.261-.522H193.7v-0.262h-0.523l-0.261-.523-1.569-.523-0.261-.522-1.046-.262-0.261-.523-1.569-.523-0.261-.522-1.568-.523-0.262-.523-1.045-.262-0.262-.522h-0.522l-0.523-.523H183.24l-0.261-.523h-0.523a8.113,8.113,0,0,1-1.83-1.307c-0.525.15-.226-0.032-0.523,0.261-0.656.42-.6,0.932-1.045,1.569l-0.785.523v0.522l-1.045.785v0.523l-1.568,1.307v0.523l-3.137,2.875-2.614,2.876h-0.523l-1.045,1.307h-0.523l-0.784,1.046h-0.523l-0.523.784h-0.523q-0.261.392-.523,0.784H164.42l-0.262.523-0.784.262v0.261h-0.523l-0.261.523h-0.523l-0.261.523-0.785.261v0.262l-1.568.522c-7.052,4.432-15.72,7.3-26.139,8.366v22.221c2.328,0.207,4.709,1.825,6.273,2.876h0.523q0.261,0.392.523,0.784h0.522q0.523,0.654,1.046,1.307h0.523l0.784,1.307,1.307,1.046v0.523l0.784,0.523v0.523l0.523,0.261,0.261,1.046h0.262v0.522h0.261q0.261,0.785.523,1.569h0.261v0.784h0.262v0.523h0.261v0.784h0.262l0.261,2.353c0.325,1.094,1,4.351.523,6.013H149v1.83h-0.261v1.046h-0.261v1.045h-0.262v0.785h-0.261v0.784a23.245,23.245,0,0,1-12.547,12.548h-0.784v0.262h-1.046v0.261h-1.046v0.262h-1.306V256l-7.842-.261v-0.262h-1.046v-0.261l-2.352-.523v-0.262l-1.046-.261v-0.261l-1.568-.523c-0.088-.174-0.175-0.349-0.262-0.523h-0.523V252.6h-0.522q-0.263-.392-0.523-0.784h-0.523q-0.654-.784-1.307-1.568h-0.523l-0.784-1.307L111.1,247.9v-0.523l-0.523-.261v-0.523l-0.522-.262c-0.088-.261-0.175-0.523-0.262-0.784h-0.261q-0.13-.524-0.262-1.046H109l-0.261-1.045h-0.262v-0.785H108.22v-0.523h-0.262V241.36H107.7l-0.261-2.091h-0.262a32.3,32.3,0,0,1-.261-7.581h0.261V230.38h0.262v-1.045H107.7v-1.046h0.261v-0.784h0.262V226.72h0.261q0.131-.522.262-1.045H109v-0.523h0.261v-0.523l0.523-.523v-0.523l0.523-.261V222.8l0.523-.261v-0.523l1.045-.784v-0.523l1.83-1.569,0.523-.784h0.523l0.784-1.046h0.523l0.261-.523,1.046-.261L117.63,216h0.523v-0.261h0.523v-0.262l3.92-1.307V191.951l-8.626-1.307v-0.262l-3.136-.522V189.6l-2.614-.523v-0.261l-2.353-.523V188.03h-0.523v-0.262H104.56v-0.261h-0.523v-0.262h-0.784v-0.261l-1.045-.262v-0.261h-0.523V186.2H100.9v-0.262l-1.569-.523v-0.261l-1.046-.261-0.261-.523H97.5v-0.262H96.98l-0.523-.523H95.934l-0.261-.522H95.15V182.8H94.627l-0.261-.523H93.843v-0.261l-0.784-.262-0.261-.522H92.275l-0.261-.523H91.491l-0.523-.785H90.445l-0.523-.784H89.4l-0.523-.784H88.354l-1.046-1.307H86.785l-1.83-2.092H84.433l-1.83-2.091-0.784-.523v-0.523l-2.091-1.83v-0.523l-1.307-1.045V167.9l-1.046-.784v-0.523l-0.523-.262v-0.522H76.591a2.069,2.069,0,0,1-.523-1.046,4.313,4.313,0,0,0-2.091,1.046H73.454l-0.261.522-1.045.262-0.261.523-1.568.522-0.261.523-1.046.262v0.261H68.488l-0.261.523-1.046.261-0.261.523-1.568.523-0.261.523-1.568.523-0.261.523-1.046.261-0.261.523-1.568.523-0.261.523-1.046.261-0.261.523H58.293c-0.5.285-1.047,0.756-1.568,1.046a0.569,0.569,0,0,0,.261.523v1.307h0.261v1.83h0.261v3.921H57.248v2.091H56.987v1.046H56.725v1.046H56.464L56.2,189.075H55.941V189.6H55.68L54.9,191.951l-0.523.261-0.261,1.046-0.523.262v0.522l-1.045.785v0.522l-2.091,1.83-0.523.785H49.406l-0.784,1.045H48.1l-0.261.523-1.046.262-0.261.523H46.008v0.261H45.485v0.261H44.7V201.1H44.178v0.261H43.394v0.262H42.61v0.261H41.826v0.262H40.78v0.261H39.473v0.261l-7.842-.261v-0.261H30.586v-0.262H29.8v-0.261l-1.568-.262V201.1l-1.568-.523v-0.261H26.142v-0.262l-1.046-.261-0.261-.523H24.312l-0.523-.784H23.267l-0.784-1.046H21.96l-1.046-1.307-0.523-.262v-0.523l-1.046-.784v-0.523l-0.784-.522L18.3,192.474l-0.523-.262-0.261-1.045H17.255l-0.261-1.046H16.732l-0.261-1.307H16.209l-0.261-1.569H15.686V186.2H15.425v-1.569H15.163q0.131-3.921.261-7.843h0.261v-1.045h0.261v-0.785h0.261l0.261-1.568h0.261l0.523-1.569h0.261V171.3h0.261l0.261-1.045,0.523-.262v-0.523l0.523-.261v-0.523l0.784-.523v-0.523l1.83-1.568,0.784-1.046h0.523l0.784-1.045h0.523l0.261-.523,1.046-.262,0.261-.523,1.046-.261v-0.261l1.046-.262v-0.261h0.784v-0.262H29.54V161.1h0.784v-0.262h0.784V160.58l3.4-.261v-0.262h3.66v0.262L41.3,160.58v0.261l1.83,0.262v0.261h0.523v0.262H44.44v0.261l1.568,0.523v0.261h0.523v0.262l1.046,0.261,0.261,0.523h0.523l0.523,0.784h0.523l0.261,0.523a3.422,3.422,0,0,0,2.091,1.307c0.466-.514.508-0.22,1.046-0.522v-0.262h0.523l0.261-.523,1.046-.261,0.261-.523,1.568-.523,0.261-.523h0.523v-0.261h0.523l0.261-.523,1.568-.523,0.261-.523,1.046-.261,0.261-.523,1.568-.523L63,159.534l1.568-.523,0.261-.522h0.523v-0.262h0.523l0.261-.523,1.568-.522,0.261-.523h0.523a5.472,5.472,0,0,1,1.83-1.046A7.229,7.229,0,0,0,69.533,153H69.272v-0.785H69.011v-0.522H68.749l-0.261-1.569H68.226V149.6H67.965v-0.784H67.7v-0.784H67.442v-0.785H67.181L65.09,138.1v-1.83H64.828v-2.353H64.567v-7.059A44.472,44.472,0,0,1,66.4,113l0.523-3.137h0.261v-0.785h0.261V108.3H67.7v-0.784h0.261l0.261-1.569h0.261v-0.523h0.261q0.131-.783.261-1.568h0.261l1.046-3.137-0.784-.262v-0.261H69.011l-0.261-.523L67.7,99.407l-0.261-.523-1.568-.523-0.261-.523-1.568-.523-0.261-.523H63.26V96.531H62.737l-0.261-.523-1.568-.523-0.261-.523H60.123V94.7H59.6l-0.261-.523-1.568-.523-0.261-.523-1.046-.261L56.2,92.348l-1.568-.523L54.373,91.3,52.8,90.78l-0.261-.523H52.02V90l-0.784-.261V90L49.667,91.3v0.261H49.145l-0.523.784H48.1l-0.261.523H47.315l-0.261.523-1.046.261v0.261l-1.568.523V94.7H43.655v0.262H42.871v0.261H42.087v0.261H41.041v0.261H39.734v0.261H37.121V96.27h-1.83V96.008l-3.921-.261V95.485l-1.83-.261V94.963H29.017V94.7H28.233V94.44l-1.568-.523V93.655L25.1,93.133l-0.261-.523H24.312l-0.261-.523H23.528L22.482,90.78H21.96l-1.046-1.307-0.523-.261V88.688l-1.307-1.046V87.12l-0.523-.261V86.336l-0.523-.261-0.261-1.046H17.516V84.506H17.255l-0.523-1.569H16.47V82.153H16.209V81.368H15.948V80.584H15.686V79.538H15.425V77.97H15.163a19.638,19.638,0,0,1,.261-6.274V70.127h0.261V69.081h0.261l0.523-2.353h0.261l0.523-1.569h0.261V64.637h0.261l0.261-1.046,0.523-.261V62.807l0.523-.261V62.023l1.046-.784V60.716l1.046-.784,1.307-1.569h0.523l0.523-.784,0.784-.261,0.261-.523,1.046-.261,0.261-.523,2.353-.784V54.965h0.523V54.7H29.54V54.442h1.046V54.18H31.37V53.919h1.307V53.657h2.352V53.4l6.012,0.523V54.18h1.046v0.261l2.353,0.523v0.261l1.568,0.523V56.01l1.046,0.261,0.261,0.523h0.523v0.261l0.784,0.261,0.261,0.523h0.523l1.046,1.307L53.066,61.5v0.523l0.523,0.261v0.523l0.523,0.261v0.523l0.523,0.261L54.9,64.9h0.261l0.523,1.569h0.261l0.784,3.4h0.261v1.046c0.323,1.022.956,4.221,0.523,5.751H57.248v2.091H56.987l-0.261,1.83,0.784,0.261v0.261h0.523l0.261,0.523,1.568,0.523,0.261,0.523h0.523L61.169,83.2h0.523l0.261,0.523L63,83.983l0.261,0.523,1.568,0.523,0.261,0.523h0.523v0.261h0.523L66.4,86.336l1.568,0.523,0.261,0.523,1.046,0.261,0.261,0.523L71.1,88.688l0.261,0.523,1.568,0.523,0.261,0.523,1.568,0.523v0.261L75.546,91.3v0.261h0.261V91.3c0.849-.5,1.008-1.3,1.568-2.091L77.9,88.95l0.261-.784,1.307-1.046V86.6l1.568-1.307,0.261-.784,2.875-2.614,1.046-1.307H85.74l1.568-1.83h0.523l0.784-1.046h0.523l0.523-.784h0.523l0.523-.784h0.523l0.523-.784h0.523l0.261-.523h0.523l0.261-.523,0.784-.261V73.787h0.523V73.526H95.15L95.412,73l1.045-.261,0.261-.523h0.523l0.523-.523h0.523V71.434H98.81V71.173h0.523V70.911h0.523V70.65h0.523V70.389H100.9V70.127l1.568-.523V69.343l9.933-3.4h1.307V65.683h1.046V65.421h1.307V65.16h1.307V64.9H119.2V64.637c1.22-.352,2.593.214,3.4-0.523,0.551-.629.262-4.488,0.262-5.751V42.155l-3.921-1.307V40.586h-0.523V40.325h-0.523l-0.522-.523h-0.523q-0.131-.261-0.262-0.523h-0.522q-0.132-.261-0.262-0.523h-0.523l-0.784-1.046H113.97l-1.307-1.569-0.522-.261V35.358l-1.046-.784-0.261-.784-0.523-.261-0.261-1.046-0.523-.261q-0.13-.523-0.262-1.046H109l-0.261-1.046h-0.262V29.345H108.22V28.822h-0.262V28.038H107.7V26.992h-0.261V25.946a18.216,18.216,0,0,1,.261-9.934l0.261-1.83h0.262V13.659h0.261V12.875h0.262L109,11.83h0.261q0.13-.523.262-1.046l0.523-.261,0.261-1.046,0.784-.523V8.431l1.046-.784V7.124l1.568-1.307,0.261-.523h0.523l0.784-1.046H115.8q0.13-.261.262-0.523h0.522q0.132-.261.262-0.523l1.045-.261q0.132-.261.262-0.523l1.307-.261V1.9l1.045-.261V1.373h0.785V1.111h0.784V0.85h1.045V0.588h1.307V0.327h2.353V0.065a5.017,5.017,0,0,1,2.352.261h2.353V0.588h1.568V0.85h0.784V1.111h0.785V1.373h0.784V1.634h0.784V1.9l1.568,0.523V2.68L138.8,2.941l0.261,0.523h0.523q0.131,0.261.262,0.523h0.522l0.262,0.523h0.522l2.353,2.614,1.307,1.046V8.692l0.523,0.261L145.6,9.738h0.262v0.523l0.522,0.261v0.523l0.523,0.523v0.523h0.262v0.523h0.261v0.523h0.261q0.263,1.176.523,2.353h0.262v0.784h0.261v1.307c0.327,1.093,1,4.35.523,6.013H149v1.83h-0.261v1.307h-0.261v0.784h-0.262V28.3h-0.261v0.784H147.69v0.784h-0.261l-0.523,1.569h-0.261q-0.131.523-.262,1.046l-0.522.261v0.523l-0.523.261v0.523l-0.784.523V35.1l-1.307,1.046-1.83,2.091h-0.523q-0.261.392-.523,0.784h-0.522q-0.132.261-.262,0.523h-0.523l-0.261.523-1.046.261v0.261h-0.522v0.261Zm-6.535-31.371c-0.6.515-2.113,0.394-2.876,0.784V11.83l-1.568.523-0.261.523h-0.523l-1.307,1.569-0.784.523v0.523l-0.523.261L118.676,16.8h-0.262v0.523h-0.261V18.1h-0.262v0.784a9.071,9.071,0,0,0,.785,7.32l0.261,1.046,0.523,0.261v0.523l1.307,1.046,0.784,1.046h0.523l0.261,0.523,1.046,0.261v0.262H123.9v0.261l1.569,0.261v0.261h1.568v0.261h1.83V31.959l2.614-.261V31.436h0.523V31.175l1.307-.262,0.261-.523H134.1q0.261-.392.523-0.784h0.522l0.785-1.046h0.261V28.038l0.784-.523V26.992h0.262l0.522-1.569h0.262V24.639h0.261a16.234,16.234,0,0,0,0-6.274h-0.261V17.581h-0.262l-0.522-1.569h-0.262V15.489l-0.784-.523V14.444l-0.523-.261-0.784-1.046h-0.523l-0.261-.523-0.784-.261V12.091C131.834,11.165,129.175,10.754,126.779,10.784ZM35.029,64.114c-0.6.515-2.112,0.394-2.875,0.784V65.16l-1.568.523-0.261.523H29.8l-1.307,1.569L27.71,68.3V68.82l-0.523.261-0.261,1.046H26.665V70.65H26.4v0.784H26.142v0.784a9.074,9.074,0,0,0,.784,7.32l0.261,1.046,0.523,0.261v0.523l1.307,1.046L29.8,83.46h0.523l0.261,0.523,1.046,0.261v0.261h0.523v0.261l1.568,0.261V85.29h1.568v0.261h1.83V85.29l2.614-.261V84.767h0.523V84.506l1.307-.261,0.261-.523h0.523l0.784-1.046h0.523l0.523-.523V81.63l0.784-.523V80.584l0.523-.261,0.261-1.046h0.261V78.493h0.261V77.708h0.261V76.924h0.261c0.441-1.408-.149-5.161-0.523-6.013H46.008V70.389H45.747L45.224,68.82C43.373,66.025,39.816,64.051,35.029,64.114Zm183.5,0c-0.6.515-2.112,0.394-2.875,0.784V65.16l-1.568.523q-0.132.261-.262,0.523H213.3l-1.307,1.569-0.784.523V68.82l-0.523.261-0.261,1.046h-0.261V70.65H209.9v0.784h-0.261v0.784a9.125,9.125,0,0,0,.784,7.32v0.523h0.261q0.132,0.392.262,0.784l0.523,0.261V81.63l1.568,1.307L213.3,83.46h0.523q0.13,0.261.262,0.523l1.045,0.261v0.261h0.523v0.261l1.568,0.261V85.29h1.569v0.261h1.829V85.29l2.614-.261V84.767h0.523V84.506l1.307-.261q0.131-.261.262-0.523h0.522q0.262-.392.523-0.784h0.523l0.784-1.046h0.261V81.368l0.785-.523V80.323h0.261l0.523-1.569h0.261V77.97h0.262a16.234,16.234,0,0,0,0-6.274h-0.262V70.911C228,66.877,224.467,64.035,218.528,64.114ZM123.9,74.833c-0.6.506-1.69-.006-2.613,0.261v0.261h-1.569v0.261h-1.568l-7.842,2.091V77.97h-0.523v0.261l-1.568.261a55.732,55.732,0,0,0-29.538,29.8l-0.261,1.569H78.159v0.523H77.9L77.375,113H77.114v0.784H76.853v1.046H76.591v1.045H76.33v1.308H76.068v1.045H75.807V119.8H75.546l-0.261,4.967H75.023a25.888,25.888,0,0,0,.261,6.8v2.876h0.261v2.091h0.261v1.307h0.261v1.307H76.33l0.523,3.4h0.261v0.784h0.261v0.784h0.261v1.046H77.9v0.523h0.261l0.261,1.568h0.261v0.523h0.261v0.785h0.261v0.522h0.261v0.785h0.261l0.523,1.568h0.261v0.523h0.261v0.523h0.261l0.523,1.568,0.523,0.262,0.523,1.568h0.261l0.261,0.785,0.523,0.261,0.261,1.046,0.784,0.523v0.522l0.523,0.262V159.8L86,160.319v0.522l0.523,0.262v0.261l0.523,0.262v0.523l1.307,1.045v0.523l2.353,2.092,2.091,2.352H93.32l1.307,1.569,0.784,0.261,0.523,0.785h0.523l0.261,0.522h0.523l0.523,0.785h0.523l0.261,0.523h0.523l0.261,0.522,0.785,0.262v0.261l1.045,0.262v0.261h0.523l0.261,0.523h0.523l0.523,0.523h0.523v0.261h0.522v0.262h0.523V176h0.523v0.262h0.523v0.261l1.568,0.523v0.261h0.784v0.262h0.523v0.261h0.784V178.1h0.523v0.262h0.784v0.261h0.785v0.262h0.784v0.261h0.784V179.4h1.045v0.261h1.046v0.261H115.8v0.262h1.307v0.261h1.307v0.262l4.182,0.523h2.353a19.686,19.686,0,0,0,6.274.261v-0.261H134.1v-0.262h2.091V180.71l2.875-.262v-0.261h1.046v-0.262h1.045v-0.261H142.2V179.4h0.784v-0.262l2.614-.523v-0.261h0.523V178.1h0.784v-0.261h0.523v-0.261h0.784v-0.262h0.523V177.05l1.307-.262v-0.261l1.568-.523v-0.261h0.523v-0.262l1.568-.523q0.132-.261.262-0.522l1.045-.262q0.132-.261.262-0.523l1.045-.261,0.262-.523H157.1v-0.261l0.784-.262,0.261-.523h0.523q0.261-.391.523-0.784h0.523l0.522-.784h0.523l0.784-1.046h0.523l1.83-2.091h0.523l1.568-1.83,0.523-.262V164.5l2.091-1.83,0.261-.784,0.784-.523v-0.523l0.785-.522,0.261-.785,0.523-.261V158.75l0.523-.261L172,157.7h0.261v-0.522l0.523-.262q0.131-.522.262-1.046l0.522-.261q0.132-.523.262-1.046l0.523-.261v-0.523l0.522-.523v-0.523h0.262v-0.523H175.4v-0.522h0.262v-0.523h0.261q0.261-.785.523-1.569h0.261v-0.784h0.262v-0.523h0.261v-0.784h0.261v-0.523h0.262l0.261-1.569h0.261v-0.784h0.262v-0.784H178.8v-0.784h0.262v-1.046h0.261v-1.046h0.261v-1.046h0.262V138.62H180.1v-1.307h0.262l0.261-3.921c0.467-1.665.261-4.437,0.261-6.536a39.519,39.519,0,0,0-2.352-14.378v-0.784h-0.262v-0.785h-0.261v-0.784h-0.261v-0.784h-0.262v-0.784h-0.261l-0.261-1.046h-0.262v-0.784h-0.261q-0.261-.785-0.523-1.569H175.66v-0.523H175.4v-0.523h-0.261v-0.523h-0.262v-0.522h-0.261v-0.523l-0.523-.523V101.5l-0.523-.261-0.261-1.046-0.523-.261V99.407h-0.261V98.884L172,98.622V98.1l-0.784-.523V97.054l-0.523-.261V96.27l-0.784-.523V95.224l-1.046-.784V93.917L167.3,92.61V92.087l-1.307-1.046-2.353-2.614h-0.522l-1.307-1.569h-0.523L160.5,85.813h-0.523l-0.523-.784H158.93l-0.522-.784h-0.523l-0.262-.523-0.784-.261V83.2l-1.045-.262q-0.132-.261-0.262-0.523l-1.045-.261q-0.132-.261-0.262-0.523H153.7l-0.522-.523h-0.523V80.846h-0.523V80.584h-0.523V80.323h-0.523V80.061h-0.522V79.8L149,79.277V79.016h-0.784V78.754l-1.045-.261V78.231L145.6,77.97V77.708h-0.784V77.447h-0.784V77.186h-0.784V76.924h-0.785V76.663l-2.091-.261C135.792,74.865,130.062,74.867,123.9,74.833ZM43.917,189.075a2.935,2.935,0,0,1,.784-1.307h0.261v-0.523l0.523-.261c0.593-.944,1.918-5.57,1.307-7.581H46.531l-0.261-1.83H46.008V177.05H45.747l-0.523-1.569-0.784-.523v-0.522l-0.523-.262-0.784-1.046H42.61l-0.523-.784-1.568-.523V171.56L38.95,171.3c-0.764-.275-2.858-0.913-4.182-0.522v0.261H33.461V171.3H32.677v0.262H32.154v0.261H31.37l-0.261.523-1.046.262-0.784,1.045-1.568,1.307v0.523l-0.523.262v0.523H26.926L26.4,177.834H26.142a16.23,16.23,0,0,0-.523,4.706h0.261v1.568h0.261l0.261,1.569h0.261l0.523,1.568,0.523,0.262v0.523l1.307,1.045,0.523,0.785h0.523l0.523,0.784h0.523v0.261l1.046,0.262v0.261h0.784a8.76,8.76,0,0,0,7.842-.523l1.046-.261,0.261-.523H42.61V189.86A2.914,2.914,0,0,1,43.917,189.075Zm174.35-18.3-3.137,1.045a12.553,12.553,0,0,0-3.137,2.615l-0.784.522v0.523l-0.523.262-0.261,1.045h-0.261v0.523H209.9V178.1h-0.261v0.785a9.125,9.125,0,0,0,.784,7.32v0.522h0.261c0.088,0.262.175,0.523,0.262,0.785l0.523,0.261v0.523l0.522,0.261,1.046,1.308h0.523l0.261,0.522h0.523l0.261,0.523h0.523v0.262h0.523v0.261h0.784v0.262h1.046v0.261h1.568v0.261h1.568v-0.261l2.614-.261v-0.262h0.523v-0.261h0.523v-0.262H224.8l0.523-.523h0.522q0.393-.522.784-1.045h0.523l0.523-.523v-0.523l0.784-.523v-0.523l0.523-.261v-0.523h0.261q0.132-.522.262-1.046h0.261q0.13-.915.262-1.83h0.261a9.8,9.8,0,0,0-.261-4.182q-0.132-.915-0.262-1.83h-0.261V177.05h-0.262v-0.523h-0.261l-0.261-1.046-0.523-.261V174.7l-1.307-1.046-0.262-.523h-0.522q-0.263-.392-0.523-0.784l-1.568-.523V171.56H223.5V171.3h-0.784v-0.261Zm-91.75,53.33c-0.528.456-1.4,0.226-2.091,0.523v0.261H123.9v0.262h-0.784l-0.261.523-1.046.261-0.522.784-1.83,1.569v0.523l-0.523.261q-0.261.785-.523,1.569h-0.261v0.523h-0.262v1.045H117.63v1.307h-0.261c-0.311,1.094.482,4.807,0.784,5.49h0.261v0.523h0.262l0.261,1.046,0.784,0.523v0.523l0.523,0.261q0.522,0.654,1.046,1.307h0.522l0.262,0.523H122.6c0.088,0.174.175,0.349,0.262,0.523h0.523V244.5h0.784v0.262h0.523v0.261a17.026,17.026,0,0,0,5.75.262V245.02l1.569-.261V244.5l1.568-.523v-0.261H134.1l0.784-1.046,0.784-.261c0.087-.261.174-0.523,0.262-0.784l0.784-.523v-0.523l0.523-.261,0.261-1.046h0.261v-0.523h0.262l0.261-1.83h0.262a9.821,9.821,0,0,0-.262-4.183l-0.261-1.83h-0.262V230.38H137.5v-0.522h-0.261q-0.132-.524-0.262-1.046l-0.523-.262v-0.522l-1.307-1.046-0.261-.523h-0.523q-0.261-.392-0.523-0.784l-1.568-.523V224.89h-0.523v-0.261h-0.784v-0.261Z"/>
</svg>
