<svg id="Otros" xmlns="http://www.w3.org/2000/svg" width="256" height="256" viewBox="0 0 256 256">
  <defs>
    <style>
      .cls-1 {
      	fill: inherit;
        fill-rule: evenodd;
      }
    </style>
  </defs>
  <path id="Cine_icono" data-name="Cine icono" class="cls-1" d="M44.9,38.045s50.986-4.083,53.029,49.938c0.018,1.174,1.1,45.906-48.95,47.9-0.488.275-48.237,0.337-48.95-49.937-0.2-.256-0.676-40.836,42.831-47.9C42.85,38.013,44.9,38.045,44.9,38.045Zm4.079,9.172s9.958,0.054,10.2,10.191c0.376,0.807-.653,9.651-10.2,10.191-0.312.043-10.086-.441-10.2-10.191-0.17.166,0.054-9.758,9.178-10.191C48.028,47.24,48.982,47.218,48.982,47.218ZM73.457,62.5S84.57,62.7,84.675,72.7a10.377,10.377,0,0,1-10.2,10.191c-0.213.075-8.751,0.345-10.2-10.191-0.078.116-.827-8.224,8.158-10.191A8.413,8.413,0,0,0,73.457,62.5Zm1.02,29.555s10.185-.183,10.2,10.192a10.331,10.331,0,0,1-10.2,10.191c-0.166.075-8.966,0.943-10.2-10.191-0.1-.147.087-10.023,9.178-10.192A3.61,3.61,0,0,0,74.477,92.06ZM48.982,107.347s9.1-.216,10.2,9.172c0.042,0.15.717,9.089-10.2,10.191,0.036,0.109-9.039-.195-9.178-10.191-0.094-.016.113-8.093,8.158-9.172A5.973,5.973,0,0,0,48.982,107.347ZM23.487,92.06s10.217-.249,10.2,11.21c0.149,0.441-.25,9.037-10.2,9.172s-10.06-6.218-10.2-9.172C13.41,91.808,23.487,92.06,23.487,92.06Zm0-29.555s10.27,0.087,10.2,10.191-10.2,10.191-10.2,10.191-10.262.187-10.2-10.191S23.487,62.5,23.487,62.5ZM48.982,80.849S55.1,80.983,55.1,86.964s-6.119,6.115-6.119,6.115-6.2.263-6.119-6.115S48.982,80.849,48.982,80.849ZM166.258,14.605s58.986,3.075,59.148,62.167-60.168,59.11-60.168,59.11-61.151-.4-61.187-61.148S166.258,14.605,166.258,14.605Zm-2.039,11.211s13.251,0.255,13.257,13.249-13.257,13.249-13.257,13.249-12.312-.538-12.238-13.249S164.219,25.816,164.219,25.816Zm1.019,73.378s12.26,0.093,12.238,12.23-13.257,13.249-13.257,13.249-12.191-.077-12.238-12.23S165.238,99.194,165.238,99.194ZM164.219,67.6s7.984-.3,8.158,7.134-7.139,8.153-7.139,8.153-8.34.037-8.158-7.134S164.219,67.6,164.219,67.6ZM132.6,44.16s13.4-.051,13.257,12.23S132.6,70.658,132.6,70.658s-12.265-.221-12.238-14.268S132.6,44.16,132.6,44.16Zm0,36.689s12.345,0.095,13.257,12.23c-0.051,12.447-13.257,13.248-13.257,13.248s-12.219.238-12.238-13.248S132.6,80.849,132.6,80.849ZM195.832,44.16s13.161,0.253,13.258,13.249-13.258,13.249-13.258,13.249S183.549,70.517,183.6,56.39,195.832,44.16,195.832,44.16Zm0,36.689s12.364-.1,13.258,12.23c0.242,13.246-13.258,13.248-13.258,13.248s-12.071-.183-12.237-13.248C183.444,80.737,195.832,80.849,195.832,80.849ZM109.15,117.538s39.47,47.558,96.88,13.249c-0.181.172,1.02,99.875,1.02,99.875s1.919,10.938-11.218,11.211-173.365,0-173.365,0-10.486,2.392-10.2-14.268-1.02-95.8-1.02-95.8,49.945,33.49,87.7-13.249c0.355-.275,5.168-9.733,10.2-1.019h0ZM92.833,152.189l54.049,27.516Zm121.355,0v55.033l40.792,22.421L256,130.787ZM92.833,207.222l54.049-27.517L92.833,152.189v55.033Z"/>
</svg>
