<svg xmlns="http://www.w3.org/2000/svg" width="256" height="256" viewBox="0 0 256 256">
  <metadata><?xpacket begin="﻿" id="W5M0MpCehiHzreSzNTczkc9d"?>
<x:xmpmeta xmlns:x="adobe:ns:meta/" x:xmptk="Adobe XMP Core 5.6-c138 79.159824, 2016/09/14-01:09:01        ">
   <rdf:RDF xmlns:rdf="http://www.w3.org/1999/02/22-rdf-syntax-ns#">
      <rdf:Description rdf:about=""/>
   </rdf:RDF>
</x:xmpmeta>
                                                                                                    
                                                                                                    
                                                                                                    
                                                                                                    
                                                                                                    
                                                                                                    
                                                                                                    
                                                                                                    
                                                                                                    
                                                                                                    
                                                                                                    
                                                                                                    
                                                                                                    
                                                                                                    
                                                                                                    
                                                                                                    
                                                                                                    
                                                                                                    
                                                                                                    
                                                                                                    
                           
<?xpacket end="w"?></metadata>
<defs>
    <style>
      .cls-1 {
        fill:inherit;
        fill-rule: evenodd;
      }
    </style>
  </defs>
  <path id="Editar_icono" data-name="Editar icono" class="cls-1" d="M15.368,49.635H163.922V56.8H13.319s-5.1-.876-5.123,4.1,0,162.785,0,162.785-0.512,4.122,5.123,4.1,161.873,0,161.873,0a3.8,3.8,0,0,0,4.1-4.1c-0.033-4.352,0-70.643,0-70.643h8.2v74.739s0.25,8.132-8.2,8.19-168.02,0-168.02,0S-0.014,237.013,0,226.754,0,60.9,0,60.9-0.9,49.766,12.294,49.635C12.265,49.664,15.368,49.635,15.368,49.635ZM89.133,160.206L224.368,23.016s4.05-4.587,9.221,0,20.49,20.476,20.49,20.476,4.328,4.009,0,9.214S118.843,190.92,118.843,190.92s-5.591,4.574-10.245,0c-4.626-4.878-19.465-20.476-19.465-20.476s-6.09-5.283-1.025-9.214C87.893,161.175,89.133,160.206,89.133,160.206Z"/>
</svg>
