<svg xmlns="http://www.w3.org/2000/svg" width="256" height="256" viewBox="0 0 256 256">
  <metadata><?xpacket begin="﻿" id="W5M0MpCehiHzreSzNTczkc9d"?>
<x:xmpmeta xmlns:x="adobe:ns:meta/" x:xmptk="Adobe XMP Core 5.6-c138 79.159824, 2016/09/14-01:09:01        ">
   <rdf:RDF xmlns:rdf="http://www.w3.org/1999/02/22-rdf-syntax-ns#">
      <rdf:Description rdf:about=""/>
   </rdf:RDF>
</x:xmpmeta>
                                                                                                    
                                                                                                    
                                                                                                    
                                                                                                    
                                                                                                    
                                                                                                    
                                                                                                    
                                                                                                    
                                                                                                    
                                                                                                    
                                                                                                    
                                                                                                    
                                                                                                    
                                                                                                    
                                                                                                    
                                                                                                    
                                                                                                    
                                                                                                    
                                                                                                    
                                                                                                    
                           
<?xpacket end="w"?></metadata>
<defs>
    <style>
      .cls-1 {
        fill:inherit;
        fill-rule: evenodd;
      }
    </style>
  </defs>
  <path id="Ferias_y_fesivales_icono" data-name="Ferias y fesivales icono" class="cls-1" d="M165.054,218.267c-1.193.137-7.958,2.532-8.348,3.225,1.038,1.4.972,3.59,1.616,5.375,2.161,5.985,2.961,10.4,2.962,18.812v9.943c-1.044.644-3.839,0.269-5.385,0.269H91.544q0.135-10.345.269-20.693c1.3-4.774,3.852-9.6,4.578-14.781H95.852c-1.217-.918-8.187-3.5-9.963-3.762-0.1,10.154-13.993,17.19-23.426,11.018-4.647-3.041-8.815-11.086-5.655-18.543,1.508-3.56,4.108-4.643,6.193-7.256-3.78-1.967-10.879-9.444-13.463-12.9-1.147-1.533-2.293-4.247-4.039-5.106v0.268c-2.927,2.805-5.2,5.078-9.963,6.181C24.7,192.826,15.093,180.907,18.3,170.969a16.154,16.154,0,0,1,8.886-9.943c1.674-.7,4.416-0.373,5.924-1.344-2.172-2.94-3.769-12.417-4.847-16.662-0.617-2.431.043-6.543-1.346-8.331-1.674,1.561-7.318,2.368-10.5,1.344-5.944-1.912-9.156-5.5-10.771-11.825a9.188,9.188,0,0,1-.539-4.3c1.672-7.425,4.731-11.451,11.848-13.437a10.392,10.392,0,0,1,4.847-.537c2.322,0.524,4.334,1.516,6.462,1.881a26.983,26.983,0,0,1,1.616-7.793c1.16-3.831,1.516-7.238,2.962-10.75,0.873-2.12,2.259-4.227,2.693-6.718C23.552,82.636,15.9,68.052,23.15,58.1c3.5-4.805,13.385-8.017,20.195-4.031A18.344,18.344,0,0,1,48.192,58.1c0.609,0.821.672,1.65,1.616,2.15V59.979c3.521-3.277,6.1-7.839,9.963-10.75,1.7-1.284,5.141-3.046,5.924-5.106-11.423-2.936-13.122-22.1-3.231-28.218,9.618-5.953,20.5,1.6,23.426,8.6,0.763,1.825,1.6,7.292,1.346,7.525s13.561-4.938,18.04-6.181c2.589-.718,6.947-0.106,8.886-1.612-2.027-2.1-2.406-8.622-1.346-12.093,1.676-5.49,8.172-13.915,16.964-11.825,7.219,1.717,10.828,5.733,12.655,12.9a12.149,12.149,0,0,1,.539,5.375c-0.47,2.068-1.289,3.96-1.616,5.912H141.9l10.5,2.15c2.924,0.886,6.258,1.5,9.155,2.687a57.83,57.83,0,0,0,7.54,2.956c-0.143-10.972,12.616-20.473,23.156-13.974,10.1,6.225,10.02,22.044-1.077,27.143l0.27,0.269a12.363,12.363,0,0,0,2.962,2.419c2.676,2.016,9.535,8.663,11.04,11.556h0.538c1.83-5.815,12.825-7.6,18.579-4.031,5.588,3.463,11.026,13.624,5.924,21.768-2.134,3.407-5.529,4.7-9.693,6.181a177.451,177.451,0,0,1,6.193,17.468c0.568,1.87.346,6.092,1.885,6.987,1.964-1.892,7.761-2.423,11.04-1.344,5.082,1.673,12.766,8.588,10.77,16.931-2.5,10.442-9.827,14.794-21.81,11.556,0.125,8.874-3.351,18.273-6.193,24.724-0.833,1.89-2.352,3.541-2.962,5.643,11.779-.2,19.784,12.04,13.194,22.574-3.321,5.308-12.423,9.695-20.195,5.644-3.059-1.594-3.973-4.349-6.193-6.719v0.269c-1.45,1.026-2.427,2.879-3.5,4.3l-2.693,2.419c-2.5,3.308-7.572,8.281-11.309,10.212l0.27,0.268c1.387,2.023,3.56,3.483,4.577,5.913,3.551,8.483-1.943,17.048-7.809,19.618C176.115,234.448,165.354,227.3,165.054,218.267ZM123.317,98.409V43.318c-15.7-.4-31.247,7.7-40.659,13.974-2.428,1.62-8.772,5.156-9.694,7.793l9.963,9.943,18.58,18.006c1.919,1.916,8.846,10.02,11.04,10.481C114.478,101.086,119.653,98.923,123.317,98.409Zm9.425-55.092V98.409h0.538c1.1,0.732,2.717.544,4.039,1.075s2.772,1.683,4.039,2.15c0.6,0.223.544,0.2,0.808,0,2.308-1.533,5.292-5.267,7-7.525l2.962-2.687a68.862,68.862,0,0,0,6.193-6.987l4.577-4.3c4.27-5.639,10-9.948,14.272-15.587l2.961-2.956c-2.959-1.868-5.614-4.553-8.616-6.45C161.96,49.1,147.891,43.412,132.742,43.318Zm77.279,73.367a35.364,35.364,0,0,0-1.885-11.019c-0.821-2.635-.868-5.061-1.885-7.525A107.544,107.544,0,0,0,193.6,75.029c-1.818-2.47-4.474-4.421-6.193-6.987l-0.27.269c-2.5,1.66-4.918,4.86-6.731,7.256l-4.847,4.569a68.86,68.86,0,0,1-6.193,6.987L166.4,89.81a64.775,64.775,0,0,1-5.655,6.45c-2.336,2.353-10.342,9.427-11.309,12.094,1.625,1.175,3.222,4.287,4.039,6.181,0.244,0.564.094,1.825,0.539,2.15h56.007ZM46.576,119.64h55.469V119.1c0.693-1.018.572-2.532,1.077-3.762,0.664-1.617,1.867-3.155,2.424-4.837L66.5,71.535l-0.269.269c-3.262,2.3-5.39,7.034-7.539,10.481C52.522,92.184,47.3,104.473,46.576,119.64Zm108.784,6.449-1.077,6.45-1.885,4.569,39.313,39.236,0.269-.269c2.744-1.917,4.393-5.71,6.193-8.6a102.767,102.767,0,0,0,7.271-13.974c1.645-3.864,2.225-8.26,3.5-12.362a41.9,41.9,0,0,0,1.346-10.75,25.978,25.978,0,0,0,0-4.031c-1.262-.78-12.519-0.269-15.079-0.269H155.36ZM46.576,129.314c-0.129,14.23,6.493,29.8,12.117,38.7,1.99,3.149,4.985,5.86,6.732,9.137h0.539l39.312-39.5c-1.674-1.809-2.631-5.605-3.231-8.331H46.576Zm99.629,15.05c-1.265,1.815-3.889,3.289-5.924,4.3-1.184.588-2.618,0.454-3.231,1.612,0.886,1.235.809,2.951,1.346,4.569,1.177,3.541,1.966,7.232,3.231,11.018,2.525,7.552,4.76,15.834,7.271,23.38,1.491,4.484,2.044,8.957,3.769,13.169,10.353-3.826,17.218-7.338,25.311-13.169,2.27-1.635,6.3-3.662,7.271-6.449l-28.543-28.218C154.565,152.439,148.65,145.246,146.205,144.364Zm-34.735,1.075-4.309,4.3c-3.814,3.807-7.764,7.479-11.578,11.287L72.426,184.137l0.269,0.269c1.948,2.816,5.523,4.738,8.347,6.718,6.483,4.546,14,9.262,22.618,11.556,0.362-3.3,2-6.51,2.962-9.406,3.06-9.23,5.006-18.193,8.078-27.411,1.564-4.694,4.308-10.685,4.847-15.856C116.421,149.25,113.839,147.025,111.47,145.439Z"/>
</svg>
