<svg xmlns="http://www.w3.org/2000/svg" width="256" height="256" viewBox="0 0 256 256">
  <metadata><?xpacket begin="﻿" id="W5M0MpCehiHzreSzNTczkc9d"?>
<x:xmpmeta xmlns:x="adobe:ns:meta/" x:xmptk="Adobe XMP Core 5.6-c138 79.159824, 2016/09/14-01:09:01        ">
   <rdf:RDF xmlns:rdf="http://www.w3.org/1999/02/22-rdf-syntax-ns#">
      <rdf:Description rdf:about=""/>
   </rdf:RDF>
</x:xmpmeta>
                                                                                                    
                                                                                                    
                                                                                                    
                                                                                                    
                                                                                                    
                                                                                                    
                                                                                                    
                                                                                                    
                                                                                                    
                                                                                                    
                                                                                                    
                                                                                                    
                                                                                                    
                                                                                                    
                                                                                                    
                                                                                                    
                                                                                                    
                                                                                                    
                                                                                                    
                                                                                                    
                           
<?xpacket end="w"?></metadata>
<defs>
    <style>
      .cls-1 {
        
        fill-rule: evenodd;
      }
    </style>
  </defs>
  <path id="Preguntas_frecuentes_icono" data-name="Preguntas frecuentes icono" class="cls-1" d="M128,0A128,128,0,1,1,0,128,128,128,0,0,1,128,0Zm0,10.323A117.677,117.677,0,1,1,10.323,128,117.677,117.677,0,0,1,128,10.323ZM87.868,97.831s-4.44-40.116,41.807-40.024S168.91,98.394,168.91,98.394c-4.931,25.136-34.989,31.736-35.189,44.8,0.02,0.025,0,12.007,0,12.007H117.538s0.061-15.332,0-17.344c0.974-16.18,29.723-26.265,32.366-38.69,0.047-.02,6.271-26.767-21.578-26.683s-24.274,25.349-24.274,25.349H87.868Zm38.422,73.363a14.017,14.017,0,1,1-14.161,14.016A14.09,14.09,0,0,1,126.29,171.194Z"/>
</svg>
