<svg xmlns="http://www.w3.org/2000/svg" width="256" height="256" viewBox="0 0 256 256">
  <metadata><?xpacket begin="﻿" id="W5M0MpCehiHzreSzNTczkc9d"?>
<x:xmpmeta xmlns:x="adobe:ns:meta/" x:xmptk="Adobe XMP Core 5.6-c138 79.159824, 2016/09/14-01:09:01        ">
   <rdf:RDF xmlns:rdf="http://www.w3.org/1999/02/22-rdf-syntax-ns#">
      <rdf:Description rdf:about=""/>
   </rdf:RDF>
</x:xmpmeta>
                                                                                                    
                                                                                                    
                                                                                                    
                                                                                                    
                                                                                                    
                                                                                                    
                                                                                                    
                                                                                                    
                                                                                                    
                                                                                                    
                                                                                                    
                                                                                                    
                                                                                                    
                                                                                                    
                                                                                                    
                                                                                                    
                                                                                                    
                                                                                                    
                                                                                                    
                                                                                                    
                           
<?xpacket end="w"?></metadata>
<defs>
    <style>
      .cls-1 {
        fill:inherit;
        fill-rule: evenodd;
      }
    </style>
  </defs>
  <path id="Favorito" class="cls-1" d="M128.442,57.448s27.274-38.794,62.689-37.417c36.032,1.4,64.553,24.449,64.711,63.71,0,0,3.1,18.944-19.211,42.473S133.5,233.409,133.5,233.409s-4.8,5.829-12.133,0S17.22,127.226,17.22,127.226-0.3,108.483.032,83.741C-0.852,63.98,13.466,22.566,64.743,20.032c35.875-1.532,61.415,35.529,62.688,37.417C127.835,58.054,128.442,57.448,128.442,57.448Zm1.011,17.191c21.665-19.209,30.72-42.076,64.711-41.462,48.926,3.754,49.545,50.563,49.545,50.563s2.609,11.973-14.156,33.372c-19.178,19.211-102.122,105.172-102.122,105.172L25.309,118.124s-12-10.831-13.144-33.371c3-52.789,50.614-52.569,51.567-52.586,15.512,0.365,27.69,3.5,63.7,42.473a11.865,11.865,0,0,1,1.011,1.011Z"/>
</svg>
