<svg xmlns="http://www.w3.org/2000/svg" width="256" height="256" viewBox="0 0 256 256">
  <metadata><?xpacket begin="﻿" id="W5M0MpCehiHzreSzNTczkc9d"?>
<x:xmpmeta xmlns:x="adobe:ns:meta/" x:xmptk="Adobe XMP Core 5.6-c138 79.159824, 2016/09/14-01:09:01        ">
   <rdf:RDF xmlns:rdf="http://www.w3.org/1999/02/22-rdf-syntax-ns#">
      <rdf:Description rdf:about=""/>
   </rdf:RDF>
</x:xmpmeta>
                                                                                                    
                                                                                                    
                                                                                                    
                                                                                                    
                                                                                                    
                                                                                                    
                                                                                                    
                                                                                                    
                                                                                                    
                                                                                                    
                                                                                                    
                                                                                                    
                                                                                                    
                                                                                                    
                                                                                                    
                                                                                                    
                                                                                                    
                                                                                                    
                                                                                                    
                                                                                                    
                           
<?xpacket end="w"?></metadata>
<defs>
    <style>
      .cls-1 {
        fill: inherit;
        fill-rule: evenodd;
      }
    </style>
  </defs>
  <path id="Hotel_ícono" data-name="Hotel ícono" class="cls-1" d="M40.1,39.118s-1.245-6.138,6.171-6.166,40.111,0,40.111,0V58.645s-1.261,16.482,16.456,16.444,51.425,0,51.425,0,15.445,0.22,15.427-17.471,0-24.665,0-24.665H209.8s6.063-.767,6.171,6.166,0,210.684,0,210.684,0.818,6.124-6.171,6.166-55.538,0-55.538,0V213.831s1.429-10.152-11.314-10.277-30.854,0-30.854,0-10.155-1.357-10.285,10.277,0,42.137,0,42.137H45.239s-5.2.351-5.142-6.166S40.1,39.118,40.1,39.118ZM59.638,49.4h20.57V68.922H59.638V49.4Zm0,38.026h20.57v20.554H59.638V87.421Zm0,39.053h20.57v20.555H59.638V126.474Zm0,38.026h20.57v20.555H59.638V164.5Zm0,39.054h20.57v20.554H59.638V203.554ZM98.72,87.421h20.57v20.554H98.72V87.421Zm0,39.053h20.57v20.555H98.72V126.474Zm0,38.026h20.57v20.555H98.72V164.5Zm38.054,0h20.57v20.555h-20.57V164.5Zm0-38.026h20.57v20.555h-20.57V126.474Zm0-39.053h20.57v20.554h-20.57V87.421Zm39.083,136.687V203.554h20.57v20.554h-20.57Zm0-97.634h20.57v20.555h-20.57V126.474Zm0,58.581h20.57V164.5h-20.57v20.555Zm0-97.634h20.57v20.554h-20.57V87.421Zm0-38.026h21.6V69.95h-21.6V49.4ZM94.606,10.342S94.114,0.211,103.863.064s48.339,0,48.339,0,9.285,0.1,9.256,10.277,0,47.275,0,47.275,0.947,9.3-10.285,9.249-48.339,0-48.339,0-8.065.487-8.228-9.249S94.606,10.342,94.606,10.342Zm10.285,0h12.342V27.813h21.6V10.342h12.342V56.589H138.831V40.146h-21.6V56.589H104.891V10.342Z"/>
</svg>
