<svg xmlns="http://www.w3.org/2000/svg" width="256" height="256" viewBox="0 0 256 256">
  <metadata><?xpacket begin="﻿" id="W5M0MpCehiHzreSzNTczkc9d"?>
<x:xmpmeta xmlns:x="adobe:ns:meta/" x:xmptk="Adobe XMP Core 5.6-c138 79.159824, 2016/09/14-01:09:01        ">
   <rdf:RDF xmlns:rdf="http://www.w3.org/1999/02/22-rdf-syntax-ns#">
      <rdf:Description rdf:about=""/>
   </rdf:RDF>
</x:xmpmeta>
                                                                                                    
                                                                                                    
                                                                                                    
                                                                                                    
                                                                                                    
                                                                                                    
                                                                                                    
                                                                                                    
                                                                                                    
                                                                                                    
                                                                                                    
                                                                                                    
                                                                                                    
                                                                                                    
                                                                                                    
                                                                                                    
                                                                                                    
                                                                                                    
                                                                                                    
                                                                                                    
                           
<?xpacket end="w"?></metadata>
<defs>
    <style>
      .cls-1 {
        fill: inherit;
        fill-rule: evenodd;
      }
    </style>
  </defs>
  <path id="TurisCams_icono" data-name="TurisCams icono" class="cls-1" d="M246.541,176.626c0.027-.017-84.32,0-84.32,0L232.488,53.357S274.169,103.85,246.541,176.626ZM117.9,0.373S185.952-7.5,227.083,47.951C226.839,48.208,186,121.479,186,121.479ZM11.959,73.9s28.4-67.461,99.454-72.447c0.522,1.305,40,72.447,40,72.447H11.959ZM94.117,80.39L23.85,202.577S-18.609,147.086,9.8,80.39C11.106,80.709,94.117,80.39,94.117,80.39Zm44.322,175.171s-73.762,8.4-110.265-48.659c0.761-.924,42.16-72.447,42.16-72.447Zm105.94-73.529s-28.231,65.027-98.373,72.447c0.131-.164-41.079-72.447-41.079-72.447H244.379Z"/>
</svg>
