<svg xmlns="http://www.w3.org/2000/svg" width="256" height="256" viewBox="0 0 256 256">
  <metadata><?xpacket begin="﻿" id="W5M0MpCehiHzreSzNTczkc9d"?>
<x:xmpmeta xmlns:x="adobe:ns:meta/" x:xmptk="Adobe XMP Core 5.6-c138 79.159824, 2016/09/14-01:09:01        ">
   <rdf:RDF xmlns:rdf="http://www.w3.org/1999/02/22-rdf-syntax-ns#">
      <rdf:Description rdf:about=""/>
   </rdf:RDF>
</x:xmpmeta>
                                                                                                    
                                                                                                    
                                                                                                    
                                                                                                    
                                                                                                    
                                                                                                    
                                                                                                    
                                                                                                    
                                                                                                    
                                                                                                    
                                                                                                    
                                                                                                    
                                                                                                    
                                                                                                    
                                                                                                    
                                                                                                    
                                                                                                    
                                                                                                    
                                                                                                    
                                                                                                    
                           
<?xpacket end="w"?></metadata>
<defs>
    <style>
      .cls-1 {
        fill:inherit;
        fill-rule: evenodd;
      }
    </style>
  </defs>
  <path id="_Te_interesa_una_cámara_icono" data-name="¿Te interesa una cámara? icono" class="cls-1" d="M128.125,29.1a94.824,94.824,0,1,1-94.777,94.825A94.8,94.8,0,0,1,128.125,29.1Zm-1,66.226a27.594,27.594,0,1,1-27.58,27.594A27.587,27.587,0,0,1,127.122,95.326ZM44.38,255.875s-17.184,1.9-11.032-10.035C39.8,232,60.427,206.707,60.427,206.707s32.552,21.531,65.191,20.068c42.971,0.265,66.194-21.072,66.194-21.072L222.9,245.84s5.952,10.08-10.029,10.035S44.38,255.875,44.38,255.875ZM118.6,5.017S118.879,0.124,128.627,0s9.026,5.017,9.026,5.017V22.076s-0.065,5.273-9.026,5.017-10.03-4.014-10.03-4.014V5.017Z"/>
</svg>
