<svg xmlns="http://www.w3.org/2000/svg" width="256" height="256" viewBox="0 0 256 256">
  <metadata><?xpacket begin="﻿" id="W5M0MpCehiHzreSzNTczkc9d"?>
<x:xmpmeta xmlns:x="adobe:ns:meta/" x:xmptk="Adobe XMP Core 5.6-c138 79.159824, 2016/09/14-01:09:01        ">
   <rdf:RDF xmlns:rdf="http://www.w3.org/1999/02/22-rdf-syntax-ns#">
      <rdf:Description rdf:about=""/>
   </rdf:RDF>
</x:xmpmeta>
                                                                                                    
                                                                                                    
                                                                                                    
                                                                                                    
                                                                                                    
                                                                                                    
                                                                                                    
                                                                                                    
                                                                                                    
                                                                                                    
                                                                                                    
                                                                                                    
                                                                                                    
                                                                                                    
                                                                                                    
                                                                                                    
                                                                                                    
                                                                                                    
                                                                                                    
                                                                                                    
                           
<?xpacket end="w"?></metadata>
<defs>
    <style>
      .cls-1 {
        fill: inherit;
        fill-rule: evenodd;
      }
    </style>
  </defs>
  <path id="Museos_icono" data-name="Museos icono" class="cls-1" d="M72.182,9H187.42V118.364H72.182V9Zm9.1,9.114h97.043V109.25H81.279V18.114Zm40.435,18.227s21.591-1.423,23.249,23.291c-0.051-.107,15.134-0.055,15.163,15.189C160.107,88.834,149.007,89,149.007,89V99.124h-6.065V89s-8.544-.286-10.109-8.1c0.05,0.243-4.048,1.784-6.065,1.013,0.067-.086,0,17.215,0,17.215H116.659V81.91s-18.613-1.221-18.2-23.291S121.714,36.341,121.714,36.341Zm86.934,53.669s18.162,0.97,18.195,17.215c0.022,0.077.537,13.352-11.119,16.2-0.028,2.548,0,112.4,0,112.4s10.023-.963,10.108,5.064-10.108,6.075-10.108,6.075H196.517s-5.068-.14-5.054-6.075,5.054-5.064,5.054-5.064h6.065v-112.4s-11.052-1.486-11.119-16.2S208.648,90.011,208.648,90.011Zm11.062,36.737c0.145-3.137,6.068-5.2,7.133.731-0.321,5.566,3.015,36.135,27.293,52.657,3.149,0.831,2.66,9.332-4.043,6.075-2.268-1.3-30.179-19.837-30.326-58.732C219.754,127.58,219.71,126.747,219.71,126.747ZM192.474,129.5c-4.636,61.6-62.614,61.927-62.673,61.771-56.772-2.57-62.469-53.752-62.674-62.784-1.021-8.656-9.342-3.838-8.144-.243,2.848,71.556,70.991,70.906,70.818,71.128,76.2-6.41,69.737-71.557,69.749-71.9-1.066-5.48-7.386-3.433-7.123-.173C192.427,127.305,192.475,129.46,192.474,129.5ZM49.943,90.011s16.951-.593,17.185,17.215c-0.9,14.6-10.109,16.2-10.109,16.2v111.39s10.15-.986,10.109,6.076-10.109,6.075-10.109,6.075H42.867s-10.143.93-10.109-6.075,10.109-6.076,10.109-6.076V123.427s-10.039-.252-10.109-16.2S49.943,90.011,49.943,90.011ZM32.758,127.478c-0.78-2.595,6.6-5.923,8.087,0,0.03,3.75,4.394,39.55-34.494,62.141-2.042,1.829-9.42-.051-4.929-6.446,3.354-1.929,34.9-20.416,31.337-54.683A6.3,6.3,0,0,1,32.758,127.478Z"/>
</svg>
