<svg xmlns="http://www.w3.org/2000/svg" width="256" height="256" viewBox="0 0 256 256">
  <metadata><?xpacket begin="﻿" id="W5M0MpCehiHzreSzNTczkc9d"?>
<x:xmpmeta xmlns:x="adobe:ns:meta/" x:xmptk="Adobe XMP Core 5.6-c138 79.159824, 2016/09/14-01:09:01        ">
   <rdf:RDF xmlns:rdf="http://www.w3.org/1999/02/22-rdf-syntax-ns#">
      <rdf:Description rdf:about=""/>
   </rdf:RDF>
</x:xmpmeta>
                                                                                                    
                                                                                                    
                                                                                                    
                                                                                                    
                                                                                                    
                                                                                                    
                                                                                                    
                                                                                                    
                                                                                                    
                                                                                                    
                                                                                                    
                                                                                                    
                                                                                                    
                                                                                                    
                                                                                                    
                                                                                                    
                                                                                                    
                                                                                                    
                                                                                                    
                                                                                                    
                           
<?xpacket end="w"?></metadata>
<defs>
    <style>
      .cls-1 {
        fill: inherit;
        fill-rule: evenodd;
      }
    </style>
  </defs>
  <path id="Noche_y_dìa_icono" data-name="Noche y dìa icono" class="cls-1" d="M125.375,0h4.948V256h-4.948V0ZM53.233,24.555L71.2,23.51v0.261h-0.26c-0.88,1.013-2.226,1.346-3.386,2.09l-0.26.523H66.776l-0.26.522H65.995l-0.26.523H65.213V27.69l-0.781.261-0.26.523H63.651L63.39,29l-0.781.261v0.261l-1.042.261v0.261l-0.781.261-0.26.523H60l-0.26.522H59.223l-0.261.522H58.442v0.261l-0.781.261-0.26.522H56.879v0.261l-0.521.261V34.22h0.261l0.26,1.306H57.14V36.31H57.4v0.523h0.26v0.784h0.261V38.4c1.639,3.767,3.069,7.9,4.688,11.755H62.088L61.307,49.11H60.786L60,48.065H59.484L58.7,47.02H58.181L57.4,45.976H56.879L56.1,44.931H55.577L54.8,43.886H54.275l-0.781-1.045H52.973L52.191,41.8H51.67l-0.781-1.045H50.368l-0.781-1.045H49.066c-0.245-.148-0.15-0.721-0.781-0.522v0.261a2.767,2.767,0,0,0-1.3.784V40.49H46.462l-0.26.523h-0.26l-0.261.522H45.159l-0.26.522h-0.26l-0.261.523H43.857l-1.042,1.306H42.295l-0.781,1.045H40.992l-0.781,1.045H39.69L38.909,47.02H38.388l-0.781,1.045H37.086l-0.26.523H36.565l-0.26.522H35.784v0.261a2.859,2.859,0,0,1-1.3.784V49.894c0.635-.6.206-0.544,0.521-1.306h0.26V47.8h0.261V47.282h0.26V46.5h0.261V45.976H36.3V45.192h0.26V44.408h0.261V43.886h0.26l0.26-1.567h0.261V41.8h0.26V41.012h0.261V40.49h0.26l0.261-1.567h0.26V38.4h0.26l0.261-1.567h0.26V36.31h0.26V35.527h0.261a6.17,6.17,0,0,0,.521-2.09,2.374,2.374,0,0,1-.521-0.522H39.69l-0.26-.522H38.909l-0.26-.522H38.128l-0.261-.522H37.346l-0.26-.522H36.565L36.3,30.3l-0.781-.261V29.78l-1.042-.261L34.221,29H33.7l-0.26-.522H32.919l-0.261-.523H32.137V27.69l-0.781-.261L31.1,26.906H30.575l-0.26-.522H29.793l-0.26-.523L28.491,25.6l-0.26-.523c-0.841-.561-1.8-0.721-2.344-1.567h0.781c1.017,0.883,3.718-.155,5.209.261,1.537,0.43,4.151-.18,5.73.261v0.261h5.209v0.261h1.042l1.3-5.486H45.42l0.26-2.09h0.261V15.935H46.2V15.151h0.26l0.521-2.873h0.26V11.233H47.5V10.188h0.26V9.4h0.261c0.293-.818-0.023-1.526.521-2.09V7.576h0.26L49.066,9.4h0.261v1.045h0.26v1.045h0.261v0.784h0.26l0.521,2.873h0.26l0.521,2.874h0.26v1.045h0.261Zm88.549-6.269a11.053,11.053,0,0,1,3.126.523c0.554,0.94,1.431,1.386,1.823,2.612V36.31H146.47q-0.129.653-.26,1.306l-1.3,1.045v0.261l-1.042.261v0.261h-2.344V39.184H141V38.923H140.48V38.661c-0.745-.436-0.157.182-0.781-0.522h-0.261V37.616l-0.52-.261c-0.647-1.245-.261-7.131-0.261-9.143,0-1.957-.443-6.508.261-7.837l0.52-.261V19.592c0.066-.09,1.435-0.983,1.563-1.045h0.781V18.286ZM192.308,33.7a10.145,10.145,0,0,1,2.865.522,10.939,10.939,0,0,0,1.3,1.306c0.3,0.436,0,.6.521,1.045a7.45,7.45,0,0,1-.521,3.657l-0.521.261v0.523h-0.261l-0.52,1.567-0.521.261q-0.261.784-.521,1.567l-0.521.261v0.522h-0.261v0.523l-0.52.522v0.523l-0.521.261v0.523h-0.261v0.522l-0.521.523V49.11l-0.521.261v0.523h-0.26v0.522h-0.26v0.523h-0.261c-0.5.865-.741,1.554-1.823,1.829-0.566.584-1.686,0.547-2.865,0.522a2.175,2.175,0,0,0-1.041-.522V52.506h-0.521a13.27,13.27,0,0,1-1.3-2.09c-0.727-2.267.984-3.895,1.563-4.963l0.261-1.045,0.52-.261V43.625h0.261V43.1l0.521-.522V42.057l0.521-.261V41.274h0.26q0.261-.784.521-1.567l0.521-.261V38.923h0.26V38.4l0.521-.523V37.355l0.521-.261q0.261-.784.521-1.567l1.823-1.567h1.042V33.7ZM118.343,51.2v2.09l-2.605.522v0.261H114.7v0.261h-0.782V54.6h-0.781v0.261h-0.781v0.261h-0.782V55.38l-1.562.261V55.9h-0.521v0.261h-0.781v0.261h-0.782v0.261l-1.041.261v0.261H106.1v0.261h-0.521v0.261l-1.3.261v0.261l-1.563.522v0.261H102.2V59.3h-0.521v0.261h-0.521l-0.521.522h-0.521l-0.26.523-1.563.522-0.26.523-1.042.261-0.26.522-1.042.261-0.26.522H94.9l-0.26.523H94.122l-0.26.522H93.341v0.261l-0.781.261-0.26.522H91.778l-0.521.784H90.736l-0.521.784H89.695l-0.521.784H88.653l-1.042,1.306H87.09l-1.3,1.567H85.267l-1.3,1.567-4.688,4.441v0.522l-1.563,1.306V78.89l-1.3,1.045v0.522l-0.781.523V81.5l-0.781.523v0.522l-0.781.523v0.522l-0.521.261v0.522l-0.781.522V85.42l-0.521.261-0.26,1.045h-0.26l-0.26.784-0.521.261-0.26,1.045-0.521.261-0.521,1.567-0.521.261v0.523l-0.521.522v0.523h-0.26V93h-0.26v0.522h-0.26v0.522h-0.26l-0.521,1.567h-0.26v0.784h-0.26v0.522h-0.26l-0.26,1.045h-0.26l-3.386,9.927-0.26,2.351c-1.551,4.921-2.082,10.782-2.084,17.241l0.26,8.62h0.261l0.781,6.792h0.26l0.261,2.351h0.26v1.045h0.26v1.045h0.261v0.783h0.26v1.045H63.13v0.784h0.26v0.784h0.261v0.783h0.26v0.784h0.26v0.784h0.26l0.26,1.567h0.26v0.522h0.261v0.784h0.26v0.522h0.26v0.784h0.26l0.26,1.045h0.26v0.784h0.26l0.521,1.567h0.26v0.523h0.26V161.7h0.26v0.522h0.26v0.523H68.6v0.522h0.26v0.523l0.521,0.522v0.523l0.521,0.261,0.26,1.045,0.521,0.261,0.26,1.045,0.521,0.261,0.26,1.045,0.521,0.261v0.523h0.26l0.26,0.783,0.521,0.262V171.1l0.781,0.523v0.522l0.521,0.261v0.523l0.781,0.522v0.523l1.042,0.783v0.523l1.042,0.783v0.523l1.3,1.045v0.522l4.427,4.18,2.344,2.612h0.521l1.3,1.567h0.521l0.781,1.045h0.521l0.781,1.045h0.521L91,189.388h0.521l0.26,0.522H92.3l0.521,0.784h0.521l0.26,0.522,0.781,0.262v0.261H94.9l0.26,0.522,1.042,0.261,0.26,0.523,1.042,0.261,0.26,0.523,1.563,0.522,0.26,0.522h0.521l0.521,0.523h0.521v0.261h0.521v0.261H102.2v0.262h0.52v0.261h0.521V196.7l1.563,0.522v0.262l1.3,0.261v0.261l1.042,0.261v0.262h0.781v0.261h0.782v0.261h0.52v0.261l1.563,0.262v0.261h0.521V200.1l2.6,0.522v0.262l4.428,1.045v2.089c-11.831.732-23.224-.529-31.513-4.179l-2.344-.523v-0.261H83.965v-0.261H83.184v-0.261l-1.042-.262v-0.261H81.36v-0.261l-1.563-.523v-0.261H79.277V196.7H78.5l-0.26-.522H77.714l-0.521-.523H76.673V195.4H76.152v-0.261H75.631l-0.521-.523H74.589l-0.26-.522-1.563-.523v-0.261l-0.781-.261-0.26-.523-1.042-.261V192l-0.781-.261-0.26-.523H69.12l-0.26-.522H68.339l-0.521-.784H67.3l-0.26-.522H66.515l-0.521-.784H65.474l-0.781-1.045H64.171l-1.042-1.306H62.609l-1.3-1.567H60.786l-1.3-1.568-4.428-4.179v-0.523l-1.563-1.306v-0.522l-1.3-1.045V175.02L51.41,174.5v-0.522l-0.781-.523v-0.522l-0.781-.523v-0.522l-0.521-.261V171.1l-0.781-.522-0.261-1.045-0.521-.262v-0.522l-0.521-.261v-0.523l-0.521-.261v-0.522H46.462v-0.523l-0.521-.261-0.521-1.567-0.521-.262v-0.522l-0.521-.522V163h-0.26v-0.522H43.857v-0.523H43.6v-0.522h-0.26v-0.523H43.076l-0.521-1.567h-0.26v-0.784h-0.26l-0.261-1.045h-0.26v-0.783h-0.26v-0.523H40.992v-0.783h-0.26v-0.523H40.471l-0.26-1.567H39.951v-0.784H39.69v-0.522H39.43v-0.784H39.169l-0.521-2.612H38.388l-0.26-2.09H37.867V145.5h-0.26v-1.045H37.346v-1.306h-0.26v-1.306h-0.26v-1.306H36.565V138.71c-0.752-2.588-.581-6.258-1.042-9.143l0.26-.522h-0.26v-2.874h0.26v-2.612A18.187,18.187,0,0,1,36.3,118.6v-2.09h0.26v-1.567h0.261v-1.568h0.26v-1.306c0.434-1.361.848-3.133,1.3-4.441V106.58h0.261l0.781-3.4h0.26v-0.523h0.26v-0.783h0.261l0.26-1.568h0.261V99.788h0.26V99h0.261V98.482h0.26V97.7h0.26l0.261-1.045h0.26V96.131h0.26V95.347h0.26V94.825h0.26V94.3h0.261V93.78H43.6V93.257h0.26V92.735h0.261l0.521-1.567,0.521-.261,0.521-1.567,0.521-.261,0.26-1.045,0.521-.261,0.26-1.045,0.521-.261V85.943h0.261l0.26-.784,0.521-.261V84.376l0.521-.261V83.592l0.781-.522V82.547l0.521-.261V81.763l0.781-.523V80.718l1.042-.784V79.412l1.3-1.045V77.845l1.823-1.567V75.755l3.386-3.135,1.3-1.567h0.521l1.563-1.829h0.521l1.042-1.306h0.521l0.781-1.045h0.521l0.521-.784,0.781-.261,0.26-.522h0.521l0.26-.522H68.6l0.26-.522H69.38l0.26-.522h0.521l0.26-.523h0.521l0.26-.522h0.521l0.26-.523,1.042-.261,0.26-.523,1.563-.522,0.26-.522h0.521l0.521-.523h0.521V59.559h0.521V59.3h0.521V59.037h0.521V58.776h0.521V58.514h0.521V58.253l1.563-.523V57.469h0.781V57.208l1.042-.261V56.686h0.781V56.425h0.521V56.163h0.781V55.9h0.521V55.641l8.594-2.612H94.9V52.767h1.042V52.506h1.3V52.245h1.3V51.984h1.563V51.723l4.167-.261V51.2h2.865C110.269,50.3,115.141,51.163,118.343,51.2Zm20.314-.261a68.006,68.006,0,0,1,28.649,5.486h0.781v0.261h0.521v0.261h0.781v0.261l1.042,0.261v0.261h0.521v0.261h0.781v0.261l1.563,0.522v0.261h0.52V59.3l1.563,0.522,0.261,0.523,1.562,0.522,0.261,0.522,1.562,0.523,0.261,0.522h0.521q0.129,0.261.26,0.522h0.521q0.131,0.261.26,0.522l1.042,0.261,0.521,0.784h0.521l0.26,0.522h0.521l0.521,0.784h0.521q0.131,0.261.26,0.522h0.521l0.782,1.045h0.52l0.782,1.045h0.521l1.041,1.306H189.7l0.261,0.523,2.344,2.09,0.521,0.784h0.52v0.522l3.647,3.4v0.522l1.3,1.045v0.522h0.26l0.521,0.784L199.6,80.2v0.523l0.781,0.522,0.261,0.784,0.521,0.261v0.522l0.521,0.261v0.522l0.781,0.522v0.522l0.521,0.261V85.42l0.521,0.261q0.129,0.522.26,1.045h0.26l0.261,0.784,0.521,0.261q0.13,0.522.26,1.045l0.521,0.261q0.261,0.784.521,1.567l0.521,0.261v0.523l0.521,0.522v0.523h0.26V93h0.261v0.522h0.26v0.522H208.2l0.52,1.567h0.261q0.13,0.653.26,1.306H209.5v0.522h0.26V98.22h0.261q0.129,0.522.26,1.045h0.26l0.261,1.568h0.26v0.522h0.261l2.865,9.927v1.306c0.409,1.353.653,3.342,1.041,4.7v2.351h0.261v3.4h0.26v3.657q-0.131,4.44-.26,8.882h-0.261v2.351h-0.26v1.828h-0.261v1.306h-0.26v1.568h-0.26v1.306h-0.261v1.045h-0.26v1.044H213.4v1.045h-0.26v1.045h-0.261V148.9h-0.26v1.045c-1.852,5.167-3.811,10.326-6.511,14.628l-0.521,1.568-0.521.261q-0.13.522-.26,1.045l-0.521.261-0.261,1.045-0.52.261v0.523l-0.521.261v0.522l-0.521.262V171.1l-0.521.261v0.523l-0.781.522v0.523l-0.782.522v0.523l-0.781.522v0.522l-1.042.784v0.523l-1.3,1.044v0.523l-2.6,2.351v0.522l-1.823,1.568q-0.261.391-.521,0.783h-0.521l-2.344,2.613h-0.521q-0.52.653-1.042,1.306h-0.521q-0.39.522-.781,1.045h-0.521q-0.26.392-.521,0.783h-0.521q-0.259.393-.52,0.784h-0.521q-0.261.392-.521,0.784h-0.521l-0.261.522h-0.52l-0.261.523h-0.521l-0.26.522h-0.521l-0.261.522-1.041.262-0.261.522H178.5v0.261h-0.52l-0.261.523-1.563.522c-0.086.174-.173,0.349-0.26,0.523h-0.521l-0.521.522h-0.521v0.261h-0.521v0.262H173.3v0.261h-0.521V196.7h-0.521v0.261l-1.563.523v0.261H169.91v0.261l-1.042.261v0.262h-0.781c-8.29,3.673-17.5,5.625-29.43,5.747V50.939ZM23.543,69.225L32.4,68.7v0.261a2.455,2.455,0,0,0-.521.522H31.356l-0.261.523H30.575l-0.26.522H29.793l-0.26.522H29.012l-0.261.522-1.042.261-0.261.523-2.344,1.306a16.247,16.247,0,0,0,1.563,3.918v0.784h0.261V78.89h0.26v0.784h0.26l0.781,2.351H27.71l-0.521-.784H26.668L25.887,80.2H25.366l-0.781-1.045H24.064l-0.521-.784-0.781-.261V77.845A3.234,3.234,0,0,0,20.678,76.8L19.9,77.845H19.376L18.595,78.89H18.074l-0.781,1.045H16.771l-0.26.522H16.25l-0.26.523H15.469v0.261a2.8,2.8,0,0,1-1.3.784V81.763h0.261l0.26-1.567h0.26V79.674h0.261V78.89h0.26V78.106a22.562,22.562,0,0,0,1.823-4.441L16.511,73.4l-0.261-.522-1.042-.261L14.948,72.1H14.428l-0.261-.522H13.646l-0.261-.522H12.865l-0.26-.522H12.084l-0.26-.522A5.179,5.179,0,0,0,10,69.225V68.7l8.855,0.523,1.3-5.486h0.261V62.694h0.26c0.282-.823-0.018-1.533.521-2.09v0.261c0.528,0.591.235,1.247,0.521,2.09h0.26V64A37.562,37.562,0,0,1,23.543,69.225Zm204.445,2.612h2.865V72.1l1.042,0.261,0.781,1.045h0.26c0.581,0.879.529,2.184,0.521,3.657-0.524.447-.219,0.607-0.521,1.045l-1.041.784-0.261.523h-0.521l-0.26.522-1.042.261q-0.131.261-.26,0.523l-1.042.261v0.261l-0.782.261q-0.129.261-.26,0.523l-1.042.261-0.26.522-1.042.261q-0.13.261-.26,0.522h-0.521l-0.261.522-1.041.261-0.261.522h-0.521L222,85.42l-1.042.261q-0.13.261-.26,0.522a7.066,7.066,0,0,1-3.386.522V86.465h-0.781l-0.261-.522h-0.521l-1.3-1.829V81.241l1.3-1.828h0.521l0.261-.523h0.52l0.261-.522,1.042-.261V77.845l0.781-.261q0.13-.261.26-0.522l1.042-.261,0.261-.522h0.52l0.261-.522,1.042-.261,0.26-.522,1.042-.261V74.449l0.781-.261,0.261-.522h0.521V73.4h0.52l0.261-.522A7.561,7.561,0,0,0,227.988,71.837Zm-1.042,58.514a12.077,12.077,0,0,0-1.042-1.829v-2.351q0.522-.914,1.042-1.828c0.585-.465,1.343-0.488,1.823-1.045l8.855-.261c1.228-.344,3.41.118,4.949-0.262a0.676,0.676,0,0,1,.781-0.261c0.646,0.153,1.353.628,2.083,0.784q0.261,0.391.521,0.784h0.261a6,6,0,0,1,.781,3.657h-0.26l-0.261,1.306-1.042.784v0.261h-0.521v0.261H244.4v0.261h-1.042v0.261l-10.157.262c-0.7.117-3.4,0.638-4.428,0.261A12.381,12.381,0,0,0,226.946,130.351Zm-9.636,37.616c2.823-.067,3.746.9,5.469,1.829H223.3v0.261h0.521v0.261h0.521v0.262h0.521v0.261h0.521V171.1l1.041,0.261v0.262h0.521v0.261h0.521v0.261l1.563,0.522v0.262h0.781l3.386,2.089v0.523l0.521,0.261q0.129,1.567.26,3.135h-0.26v0.783l-0.521.262v0.522l-2.084,1.306c-1.151.406-3.3-.458-3.906-0.783v-0.262h-0.521v-0.261h-0.521v-0.261h-0.521v-0.261h-0.521v-0.262H224.6v-0.261l-1.042-.261v-0.261h-0.52v-0.261h-0.521v-0.262H222v-0.261l-1.563-.522v-0.262h-0.781V177.11l-1.042-.261v-0.261c-1.8-.97-4.058-1.249-4.167-3.919h-0.26c-0.285-.487.373-2.206,0.52-2.351,0.279-1.07.95-1.346,1.824-1.828v-0.261h0.781v-0.262Zm-32.3,33.437h2.865l1.823,1.306v0.523l0.782,0.522v0.523l0.52,0.261v0.522l0.521,0.261v0.523l0.782,0.522v0.523l0.521,0.261q0.129,0.392.26,0.784h0.26v0.522l0.782,0.523V209.5l0.521,0.261c0.086,0.261.173,0.523,0.26,0.784h0.261v0.522l0.781,0.523v0.522l0.521,0.261V212.9L197,213.159c0.086,0.261.173,0.523,0.26,0.784h0.26v0.522h0.261v1.045h0.26c0.338,1.212-1.022,3.552-1.562,3.919h-0.521c-0.589.336-1.625,1.174-2.865,0.783v-0.261h-0.781V219.69h-0.521l-0.261-.523h-0.521q-0.129-.391-0.26-0.783l-0.781-.523v-0.522l-0.521-.261-0.261-.784h-0.26v-0.523l-0.521-.261v-0.522l-0.781-.523v-0.522l-0.521-.261-0.261-.784h-0.26v-0.523l-0.521-.261v-0.522l-0.781-.523v-0.522l-0.521-.261v-0.523l-0.521-.261V208.98l-0.781-.523a6.6,6.6,0,0,1-1.042-4.179c0.523-.456.219-0.518,0.521-1.045h0.26V202.71Zm-43.753,13.061,3.385,0.262a4.854,4.854,0,0,0,1.042.783v0.523l0.521,0.261v0.522h0.26c0.405,0.918.261,2.629,0.261,3.919v8.359c0,1.255.183,3.341-.261,4.179q-0.26.132-.521,0.262v0.522h-0.26a3.36,3.36,0,0,1-3.646,1.306H141V235.1c-1.374-.359-1.452-1.564-2.344-2.351-0.031-5.379-.444-12.215.521-16.718l1.042-.784v-0.261C140.657,214.685,140.817,214.993,141.262,214.465Z"/>
</svg>
