<svg xmlns="http://www.w3.org/2000/svg" width="256" height="256" viewBox="0 0 256 256">
  <metadata><?xpacket begin="﻿" id="W5M0MpCehiHzreSzNTczkc9d"?>
<x:xmpmeta xmlns:x="adobe:ns:meta/" x:xmptk="Adobe XMP Core 5.6-c138 79.159824, 2016/09/14-01:09:01">
   <rdf:RDF xmlns:rdf="http://www.w3.org/1999/02/22-rdf-syntax-ns#">
      <rdf:Description rdf:about=""/>
   </rdf:RDF>
</x:xmpmeta>                                                                                     
                           
<?xpacket end="w"?></metadata>
<defs>
    <style>
      .cls-1 {
        fill: inherit;
        fill-rule: evenodd;
      }
    </style>
  </defs>
  <path id="Teléfono_2_icono" data-name="Teléfono 2 icono" class="cls-1" d="M88.442,0.064S37.735-2.122,32,43.04c-0.058,24.76,2.466,84.578,18.472,111.532,4.9,10.09,48.653,92.722,101.6,101.3,47.185,1.755,59.521-16.372,59.521-16.372l-58.495-46.045s-14.835,7.45-26.681,0c-7.156-10.472-49.259-92.091-49.259-92.091s-6.73-18.44,13.341-26.6C90.4,74.744,88.442.064,88.442,0.064Zm5.131,0s14.921-1.62,21.551,10.232c-0.07.163,1.026,52.185,1.026,52.185s-1.092,15.613-22.577,10.232C93.584,59.512,93.573.064,93.573,0.064ZM157.2,187.316s16.586-11.073,21.551-8.186S222.878,212.9,222.878,212.9s4.312,3.352-4.1,22.511C180.462,205.143,157.2,187.316,157.2,187.316Z"/>
</svg>
