<svg xmlns="http://www.w3.org/2000/svg" width="256" height="256" viewBox="0 0 256 256">
  <metadata><?xpacket begin="﻿" id="W5M0MpCehiHzreSzNTczkc9d"?>
<x:xmpmeta xmlns:x="adobe:ns:meta/" x:xmptk="Adobe XMP Core 5.6-c138 79.159824, 2016/09/14-01:09:01        ">
   <rdf:RDF xmlns:rdf="http://www.w3.org/1999/02/22-rdf-syntax-ns#">
      <rdf:Description rdf:about=""/>
   </rdf:RDF>
</x:xmpmeta>
                                                                                                    
                                                                                                    
                                                                                                    
                                                                                                    
                                                                                                    
                                                                                                    
                                                                                                    
                                                                                                    
                                                                                                    
                                                                                                    
                                                                                                    
                                                                                                    
                                                                                                    
                                                                                                    
                                                                                                    
                                                                                                    
                                                                                                    
                                                                                                    
                                                                                                    
                                                                                                    
                           
<?xpacket end="w"?></metadata>
<defs>
    <style>
      .cls-1 {
        fill-rule: evenodd;
      }
    </style>
  </defs>
  <path id="Teléfono_icono" data-name="Teléfono icono" class="cls-1" d="M54.206,1.527s23,8.62,39.565,38.47c-0.229.357,7.7,11.185-1.041,22.874-9.12,13.7-18.385,23.92-26.029,29.112,0.328,0.149,19.065,58.762,97.87,96.695,0.1,0.446,23.7-24.18,31.236-25.993a18.677,18.677,0,0,1,17.7-1.04c0.416,0.552,29.918,12.569,40.606,41.589,0.318,0.5,6.016,9.3-4.165,23.914,0.083,0.452-16.338,23.392-42.688,28.072-0.457-.039-13.451,3.143-35.4-3.119C171.1,251.66,34.509,203.624,1.106,73.268c0-.1-3.061-22.063,1.041-28.073C2.131,45.09,8.091,16.124,36.506,2.567,36.419,2.465,43.49-1.34,52.124.487A4.986,4.986,0,0,1,54.206,1.527ZM45.877,16.083s23.066,7.7,34.359,35.351c-0.186,1.012-2.583,11.872-30.194,34.311-0.137.935-2.5,9.038,1.041,15.6-0.014.575,31.241,69.6,108.283,103.972-0.458-.058,10.508,3.178,14.576-3.119,0.137,0.079,13.947-19.58,31.235-27.033a50.725,50.725,0,0,1,34.359,35.351c0.072,1.038-3.859,21.036-34.359,28.073-0.23.191-6.555,3.762-20.823,0-1.619-.392-143.1-45.824-168.671-180.913C22.987,25.414,45.877,16.083,45.877,16.083Z"/>
</svg>
