<svg xmlns="http://www.w3.org/2000/svg" width="256" height="256" viewBox="0 0 256 256">
  <metadata><?xpacket begin="﻿" id="W5M0MpCehiHzreSzNTczkc9d"?>
<x:xmpmeta xmlns:x="adobe:ns:meta/" x:xmptk="Adobe XMP Core 5.6-c138 79.159824, 2016/09/14-01:09:01        ">
   <rdf:RDF xmlns:rdf="http://www.w3.org/1999/02/22-rdf-syntax-ns#">
      <rdf:Description rdf:about=""/>
   </rdf:RDF>
</x:xmpmeta>
                                                                                                    
                                                                                                    
                                                                                                    
                                                                                                    
                                                                                                    
                                                                                                    
                                                                                                    
                                                                                                    
                                                                                                    
                                                                                                    
                                                                                                    
                                                                                                    
                                                                                                    
                                                                                                    
                                                                                                    
                                                                                                    
                                                                                                    
                                                                                                    
                                                                                                    
                                                                                                    
                           
<?xpacket end="w"?></metadata>
<defs>
    <style>
      .cls-1 {
        fill:inherit;
        fill-rule: evenodd;
      }
    </style>
  </defs>
  <path id="Fotografìas_profesionales_icono" data-name="Fotografìas profesionales icono" class="cls-1" d="M198.848,54.51c4.574-.056,11.361-0.789,15,0.517h3.361c3.886,1.405,8.085,2.225,11.9,3.879,1.888,0.819,3.583,2.512,5.171,3.62h1.034c0.208,0.147.316,0.859,0.517,1.034a26.693,26.693,0,0,0,3.62,2.327c1.383,0.869,5.759,5.775,6.723,7.24V73.9c0.308,0.4,1.261.625,1.552,1.034v1.034c0.663,0.95,1.982,2.082,2.585,3.1,2.366,4.007,3.179,8.638,4.913,13.446v3.361c1.382,2.995.517,9.476,0.517,13.446v70.333c0,3.468.421,8.247-.517,10.86v3.362c-0.669,1.4-1.464,3.7-2.068,5.171-0.456,1.108-.047,1.744-0.517,2.845a50.171,50.171,0,0,1-25.857,26.374c-3.351,1.45-7.189,1.872-10.6,3.1h-2.844v0.517H71.373c-15.4,0-31.657,1.027-42.405-3.62a19.536,19.536,0,0,1-2.069-1.551,18.336,18.336,0,0,0-1.81-.517c-1.584-.832-3.3-1.844-4.913-2.845l-1.293-1.551c-5.939-3.726-9.345-8.882-12.929-15l-1.034-.775c-1.868-3.748-2.639-8.366-4.4-12.153v-3.362c-0.646-1.83-.517-5.136-0.517-7.757V78.558L0.525,78.3v-1.81l0.517-.259V74.42c0.294-.556,1.278-1.441,1.551-2.069V71.059A35.517,35.517,0,0,1,4.4,67.7l1.034-.776C7.657,63.314,14.2,56.865,19.4,56.579c-0.2-13.129,8.05-12.153,20.686-12.153,3.9,0,9.668-.768,12.67.517,3.758,1.609,5.988,4.865,6.723,9.567H76.286c3.236-5.726,6.784-11.461,10.084-17.066,2.625-4.458,4.123-9.3,9.05-11.377,3.218-1.357,7.9-1.035,12.412-1.034H176.87a58.407,58.407,0,0,1,6.464,3.1c2.129,1.325,2.577,3.98,3.878,6.206l1.035,0.776c0.563,0.96.457,1.895,1.034,2.844a10.049,10.049,0,0,0,1.034.517v1.034h0.517v1.034h0.518v1.034a10.029,10.029,0,0,1,1.034.517c0.705,1.162.611,2.416,1.293,3.62C195.04,48.127,198.253,51.647,198.848,54.51ZM49.912,64.077H49.136c-2.331-3.656-10.662-5.769-16.031-3.1l-0.776,1.034c-3.468,2.113-4.058,2.755-5.947,6.464-0.136.267-.939,1.023-1.034,1.293L25.607,70.8c-0.321,1.108-1.2,4.863-.517,6.723a31.423,31.423,0,0,0,1.81,3.361c1.072,1.964,2.063,4.047,3.879,5.171,4.591,2.844,11.51,3.4,16.548.517l1.293-1.551c0.442-.3,1-0.13,1.293-0.517V83.471c0.285-.408,1.249-0.634,1.551-1.034,0.418-.554.163-1.2,0.517-1.81l1.034-.776v-1.81l0.517-.259V75.455l0.517-.259a2.862,2.862,0,0,0-.517-2.327c-0.582-1.55.147-2.717-.517-4.137C52.3,67.2,50.306,65.935,49.912,64.077Zm85.069,0c-0.874.964-4.438,0.568-6.2,0.517-0.948.949-8.067,0.962-9.826,1.81-4.975,2.4-10.6,3.726-15.256,6.464A74.657,74.657,0,0,0,77.32,99.244c-2.746,4.655-4.028,10.3-6.464,15.256v1.81l-0.517.258v1.81l-0.517.259v2.327l-0.517.259c-0.155.609,0.618,1.865,0.259,2.844a4.543,4.543,0,0,0-.776,1.034,11.9,11.9,0,0,1,.259,5.172c-0.344,1-1.138,4.451-.517,6.206a16.784,16.784,0,0,1,.517,5.171,3.352,3.352,0,0,0,.517,1.035c0.334,0.89-.366,1.746-0.259,2.327,0.091,0.492.864,2.388,1.034,2.844v1.81A115.7,115.7,0,0,0,75.51,162.6c0.428,0.828.1,1.367,0.517,2.327a31.759,31.759,0,0,0,1.81,3.362,10.01,10.01,0,0,0,1.034.517c0.462,0.629.074,1.42,0.517,2.068a76.129,76.129,0,0,0,29.735,25.6l2.069,0.259c6.651,2.779,14.406,5.686,23.788,5.689h9.309V201.9c1.8-.825,5.026.185,6.981-0.518,4.22-1.517,8.793-2.494,12.929-4.137,16.881-6.7,28.79-19.924,36.717-35.683,0.743-1.478.6-2.772,1.292-4.4,6.18-14.522,6.041-33.306,0-47.837-1.457-3.506-2.015-6.778-3.878-9.826C186.239,79.725,166.825,64.117,134.981,64.077Zm1.81,21.462A49.207,49.207,0,0,1,179.2,109.328c0.389,0.67.157,1.118,0.517,1.81,0.781,1.5,1.9,3.245,2.586,4.913,0.459,1.115.065,1.726,0.517,2.845,3,7.425,3.547,19.224.517,27.15-0.491,1.283.089,2.2-.517,3.362-1.939,3.728-3.746,7.83-5.947,11.377-0.857,1.38-2.77,2.526-3.62,3.879-0.914,1.452-1.954,3.251-3.362,4.137-2.72,1.711-5.033,4.158-7.757,5.688l-1.551.259c-2.1,1.031-4.655,2.483-6.723,3.62h-1.551c-2.854,1.37-6.923,1.448-10.085,2.586-1.835.66-8.166-.1-9.308-0.517-2.122-.771-3.941.213-5.947-0.517a81.911,81.911,0,0,1-9.309-3.621c-11.1-5.807-19.216-13.345-24.305-25.081-0.476-1.1-.069-1.733-0.517-2.845-0.366-.909-1.279-2.405-1.551-3.361l0.259-1.293-0.776-.776c-0.077-.32.517-1.575,0.258-2.327-1.827-5.318,0-10.916,0-16.549a49.57,49.57,0,0,1,2.327-9.05A52.426,52.426,0,0,1,119.467,88.9c3.428-1.514,7.756-1.532,11.377-2.844C132.742,85.368,135.584,86.819,136.791,85.539Z"/>
</svg>
