<svg xmlns="http://www.w3.org/2000/svg" width="256" height="256" viewBox="0 0 256 256">
  <metadata><?xpacket begin="﻿" id="W5M0MpCehiHzreSzNTczkc9d"?>
<x:xmpmeta xmlns:x="adobe:ns:meta/" x:xmptk="Adobe XMP Core 5.6-c138 79.159824, 2016/09/14-01:09:01        ">
   <rdf:RDF xmlns:rdf="http://www.w3.org/1999/02/22-rdf-syntax-ns#">
      <rdf:Description rdf:about=""/>
   </rdf:RDF>
</x:xmpmeta>
                                                                                                    
                                                                                                    
                                                                                                    
                                                                                                    
                                                                                                    
                                                                                                    
                                                                                                    
                                                                                                    
                                                                                                    
                                                                                                    
                                                                                                    
                                                                                                    
                                                                                                    
                                                                                                    
                                                                                                    
                                                                                                    
                                                                                                    
                                                                                                    
                                                                                                    
                                                                                                    
                           
<?xpacket end="w"?></metadata>
<defs>
    <style>
      .cls-1 {
        fill:inherit;
        fill-rule: evenodd;
      }
    </style>
  </defs>
  <path id="Promocionamos_tu_evento" data-name="Promocionamos tu evento" class="cls-1" d="M165.365,30s7.779,15.048,26.761,8.03c0.481,1.357,35.85,62.988,35.85,62.988s-15.6,6.715-7.574,26.349C203.3,136.908,62.611,215.2,62.611,215.2s-8.824-15.923-26.761-7.027C27.1,192.611,0,144.933,0,144.933s16.214-8.214,7.574-26.851C15.132,113.888,165.365,30,165.365,30Zm-2.02,10.54s7.52,9.873,24.994,7.026C191.8,53.64,217.625,99.01,217.625,99.01a25.4,25.4,0,0,0-6.816,24.593c-10.283,5.451-146.178,81.306-146.178,81.306a25.908,25.908,0,0,0-24.994-6.776C33.722,187.585,10.6,147.192,10.6,147.192a27.664,27.664,0,0,0,7.069-25.346C25.306,117.578,163.345,40.54,163.345,40.54Zm-0.5,3.513s8.483,8.861,24.237,6.776c0.017,0.047,27.014,47.68,27.014,47.68s-8.237,8.059-6.817,23.589c-1.531.857-142.138,79.3-142.138,79.3s-8.84-8.639-24.237-6.525c-20.1-35.672-26.761-47.429-26.761-47.429s8.714-8.944,6.817-24.09C37.966,113.807,162.84,44.053,162.84,44.053Zm7.322,40.4,11.613-6.525-5.554,11.794,9.594,9.034-13.129-1.506-5.3,12.046L164.607,96.25l-13.128-1.255L162.84,88.47l-2.524-12.8ZM123.708,96l9.846,8.783,11.614-6.525L139.613,110.3l9.594,8.783-13.128-1.506-5.554,12.045L128,116.576l-13.128-1.255,11.361-6.524ZM87.1,116.325l9.846,8.783,11.613-6.273-5.554,12.045,9.846,8.532-13.128-1.255L94.17,149.952l-2.777-12.8-13.128-1.506,11.361-6.274ZM50.493,136.652l9.846,9.034,11.613-6.525L66.4,151.207l9.594,8.783-13.128-1.506L57.31,170.529,54.785,157.48,41.4,156.226,53.27,149.7ZM236.56,115.321S235.9,133.886,256,134.9c-0.015,2.44,0,72.774,0,72.774s-18.3-.571-19.44,19.323c-7.082.021-181.522,0-181.522,0s0.591-14.016-13.381-18.57c-0.013-.029,12.761-4.073,20.45,10.289,4.429,0.011,167.385,0,167.385,0s2.034-12.87,18.178-18.068c0.011-9.867,0-58.47,0-58.47s-14.581-4.011-18.43-18.57c-4.749.043-7.574,0-7.574,0s-1.463-2.724-1.01-8.282C233.4,115.289,236.56,115.321,236.56,115.321Zm-13.381,11.042h4.292s2.866,11.385,17.421,17.817c-0.043,7.758,0,54.706,0,54.706a27.685,27.685,0,0,0-17.168,17.065c-11.657-.057-161.073,0-161.073,0l63.116-35.384,6.564,4.768-2.272-7.026,19.44-10.791,7.322,5.27-4.292,12.547,10.856-7.779,10.856,7.528-4.04-12.3,10.6-7.779H171.424l-1.767-6.525,54.532-30.364Zm-65.136,38.4,6.564-3.514-1.262,3.765Zm51.251-12.548,4.292,12.548,13.128,0.251-10.6,7.528,4.292,12.8-11.108-8.03-10.6,8.03,4.04-12.547-10.856-7.779h13.633Z"/>
</svg>
