<svg xmlns="http://www.w3.org/2000/svg" width="256" height="256" viewBox="0 0 256 256">
  <metadata><?xpacket begin="﻿" id="W5M0MpCehiHzreSzNTczkc9d"?>
<x:xmpmeta xmlns:x="adobe:ns:meta/" x:xmptk="Adobe XMP Core 5.6-c138 79.159824, 2016/09/14-01:09:01        ">
   <rdf:RDF xmlns:rdf="http://www.w3.org/1999/02/22-rdf-syntax-ns#">
      <rdf:Description rdf:about=""/>
   </rdf:RDF>
</x:xmpmeta>
                                                                                                    
                                                                                                    
                                                                                                    
                                                                                                    
                                                                                                    
                                                                                                    
                                                                                                    
                                                                                                    
                                                                                                    
                                                                                                    
                                                                                                    
                                                                                                    
                                                                                                    
                                                                                                    
                                                                                                    
                                                                                                    
                                                                                                    
                                                                                                    
                                                                                                    
                                                                                                    
                           
<?xpacket end="w"?></metadata>
<defs>
    <style>
      .cls-1 {
        fill: inherit;
        fill-rule: evenodd;
      }
    </style>
  </defs>
  <path id="Registro_de_usuario_icono" data-name="Registro de usuario icono" class="cls-1" d="M84.808,112.64a46.256,46.256,0,0,1-11.283-21.5c-0.442-.678-9.291-5.2-5.129-23.552-0.43-.957-5.955-7.47-2.051-28.672C65.567,37.873,71.994,1.388,107.373,0c1.828,0.127,20.515,0,20.515,0s33.563-.156,42.054,38.912c-0.176,2.282,3.244,18.188-2.051,28.672,0.724,1.213,3.894,19.316-5.129,24.576-1.587.222-4.565,15.458-12.308,21.5-0.451,1.741-3.293,15.279,14.36,21.5,0.414,0.552,46.81,12.262,51.286,29.7-23.006-5-75.758,20.932-47.183,75.776-1-.585-132.364,14.077-164.116-22.528,0.521-.484-8.263-31.525,22.566-64.512-0.008.182,7.5-11.869,41.029-18.432,0.053-.211,14.369-1.554,16.412-20.48C84.8,114.445,84.808,112.64,84.808,112.64ZM208.92,168.96s39.743,0.162,43.08,43.008c0.072,0.337.877,39.936-43.08,44.032,0.167,0.239-41.848.048-43.081-43.008-0.212-.14-2.476-39.512,41.029-44.032C207.126,168.9,208.92,168.96,208.92,168.96Zm-7.18,23.552H216.1V204.8h13.334v14.336H216.1v14.336H201.74V219.136H188.405V204.8H201.74V192.512Z"/>
</svg>
