<svg xmlns="http://www.w3.org/2000/svg" width="256" height="256" viewBox="0 0 256 256">
  <metadata><?xpacket begin="﻿" id="W5M0MpCehiHzreSzNTczkc9d"?>
<x:xmpmeta xmlns:x="adobe:ns:meta/" x:xmptk="Adobe XMP Core 5.6-c138 79.159824, 2016/09/14-01:09:01        ">
   <rdf:RDF xmlns:rdf="http://www.w3.org/1999/02/22-rdf-syntax-ns#">
      <rdf:Description rdf:about=""/>
   </rdf:RDF>
</x:xmpmeta>
                                                                                                    
                                                                                                    
                                                                                                    
                                                                                                    
                                                                                                    
                                                                                                    
                                                                                                    
                                                                                                    
                                                                                                    
                                                                                                    
                                                                                                    
                                                                                                    
                                                                                                    
                                                                                                    
                                                                                                    
                                                                                                    
                                                                                                    
                                                                                                    
                                                                                                    
                                                                                                    
                           
<?xpacket end="w"?></metadata>
<defs>
    <style>
      .cls-1 {
        fill: inherit;
        fill-rule: evenodd;
      }
    </style>
  </defs>
  <path id="Religión_icono" data-name="Religión icono" class="cls-1" d="M130.546,6q0.132,8.324.265,16.65c1.04,6.654,2.172,13.225,3.184,19.293-19.5,13.5-32.3,32.3-42.719,54.973a115.809,115.809,0,0,0-18.043-5.55c0.943-28.012,23.282-60.146,39.8-73.209C118.516,13.821,125.149,10.564,130.546,6Zm72.7,20.615c12.141-.2,29.453.436,37.412,4.757l-1.326,1.586c-6.393,3.174-12.033,11.551-16.186,17.179-6.225,8.437-11.985,17.48-16.186,28.015-3.8,9.524-4.956,20.765-8.225,31.186a119.548,119.548,0,0,1-19.37,36.737c-4.05,5.355-9.451,13.7-15.654,16.651l1.061,1.321,11.675,7.929c14.4,8.466,37.891,13.83,60.5,9.779,8.346-1.5,16.723-.6,18.573,6.078,1.056,3.814.139,9.709-.531,12.951-4.344,21.034-13.788,34.25-29.717,43.608-5.17,3.037-14.542,7.787-22.554,4.493-6.041-2.483-16.92-25.845-18.573-33.3l-8.491,5.286c-6.587,3.854-14.71,6.654-22.819,8.722-35.52,9.054-67.922-7.405-85.173-24.58a89.377,89.377,0,0,1-19.369-29.865c-2.678-6.68-2.934-14.931-5.837-21.936-3.97-9.576-16.682-22.359-32.636-19.558L0,136.3C-0.7,85.454,64.3,93.041,96.317,108.81l5.838-14.8c3.707-8.4,9.023-16.269,14.328-23.258,13.461-17.735,33.628-31.685,57.312-39.115,6.353-1.993,13.136-2.95,20.166-4.229Z"/>
</svg>
