<svg id="Otros" xmlns="http://www.w3.org/2000/svg" width="256" height="256" viewBox="0 0 256 256">
  <defs>
    <style>
      .cls-1 {
        fill: inherit;
        fill-rule: evenodd;
      }
    </style>
  </defs>
  <path id="Reservas_icono" data-name="Reservas icono" class="cls-1" d="M117.27,40.032h21.27s6.057-.215,6.077,7.075-6.077,7.075-6.077,7.075H135.5s2.376,2.3-1.012,4.043c0.055,0.3,3.907.2,3.038,6.064,0.029,0.188,97.9.974,106.35,115.22-99.075-.041-230.931,0-230.931,0s1.56-103.22,105.337-115.22c0.024-.009-1.322-4.685,3.038-6.064,0.013,0-3.571-1.866-1.012-4.043-0.022.071-3.039,0-3.039,0s-6.1.755-6.077-7.075S117.27,40.032,117.27,40.032ZM12.946,187.6c-18.038-.2-16.437,29.092,0,29.31,13.779,0.21,230.116-.024,230.116-0.024,13.285-.556,20.9-25.467-0.2-29.286C221.105,187.567,36.878,187.612,12.946,187.6Z"/>
</svg>
