<svg xmlns="http://www.w3.org/2000/svg" width="256" height="256" viewBox="0 0 256 256">
  <metadata><?xpacket begin="﻿" id="W5M0MpCehiHzreSzNTczkc9d"?>
<x:xmpmeta xmlns:x="adobe:ns:meta/" x:xmptk="Adobe XMP Core 5.6-c138 79.159824, 2016/09/14-01:09:01        ">
   <rdf:RDF xmlns:rdf="http://www.w3.org/1999/02/22-rdf-syntax-ns#">
      <rdf:Description rdf:about=""/>
   </rdf:RDF>
</x:xmpmeta>
                                                                                                    
                                                                                                    
                                                                                                    
                                                                                                    
                                                                                                    
                                                                                                    
                                                                                                    
                                                                                                    
                                                                                                    
                                                                                                    
                                                                                                    
                                                                                                    
                                                                                                    
                                                                                                    
                                                                                                    
                                                                                                    
                                                                                                    
                                                                                                    
                                                                                                    
                                                                                                    
                           
<?xpacket end="w"?></metadata>
<defs>
    <style>
      .cls-1 {
        fill: inherit;
        fill-rule: evenodd;
      }
    </style>
  </defs>
  <path id="Restaurantes_íconos" data-name="Restaurantes íconos" class="cls-1" d="M70.654-.016c2.805-.119,4.956.432,5.619,2.4,1.514,1.721.8,9.986,0.8,13.32v37.03c0,6.65-1.386,14.84,4.014,16.251,7.215,1.885,5.887-9.361,5.887-15.185V20.5c0-5.867-.562-13.131.535-18.116,2.011-1.388,2.367-2.44,6.155-2.4C94.475,1,96,1.431,96.611,2.648c0.944,1.883.268,12.643,0.268,15.718v32.5c0,7.2-1.673,16.643,4.282,18.116,6.981,1.726,5.619-9.231,5.619-14.919V17.034c0-3.225-.761-12.237.535-14.119,0.679-2.283,2.765-3.028,5.887-2.93,0.826,0.953,2.331,1.216,2.944,2.4,1.16,2.239.535,7,.535,10.123v61.54c0,10.8.106,21.058-2.676,29.3-1.946,5.768-4.232,11.458-7.492,15.984a30.888,30.888,0,0,1-4.55,4.8l-0.8.267v22.911a0.963,0.963,0,0,0-.268.532H82.964c-0.622-1.871-.268-5.124-0.268-7.459V124.662H82.428c-0.967-2.083-3.741-3.471-5.084-5.328-3.272-4.523-5.517-10.237-7.493-15.984-2.818-8.2-2.675-18.561-2.676-29.3V11.973c0-2.632-.643-7.371.535-9.058C68.28,1.133,69.616,1.174,70.654-.016ZM190,182.206v19.447h-0.535c-0.663.438-2.382,0.3-3.479,0.267V256h-29.7V202.186a14.388,14.388,0,0,0-4.014-.266V182.206h3.746c1.064-3.226.268-10.2,0.268-14.12V35.416c0.609-1.005.179-2.374,0.535-3.73a58.644,58.644,0,0,1,2.408-7.992A41.315,41.315,0,0,1,176.085,4.513c1.5-.938,7.908-4.946,9.634-4.262,1.015,1.637.267,10.643,0.267,13.32V181.939A14.348,14.348,0,0,0,190,182.206Zm-80.277-33.567v17.582a8.833,8.833,0,0,1-2.676.267V256H77.077V166.488H74.133v-0.533c-0.31-.6,0-2.639,0-4V149.171c0.651-.949,6.971-0.532,8.831-0.532h26.76Z"/>
</svg>
