<svg xmlns="http://www.w3.org/2000/svg" width="256" height="256" viewBox="0 0 256 256">
  <metadata><?xpacket begin="﻿" id="W5M0MpCehiHzreSzNTczkc9d"?>
<x:xmpmeta xmlns:x="adobe:ns:meta/" x:xmptk="Adobe XMP Core 5.6-c138 79.159824, 2016/09/14-01:09:01        ">
   <rdf:RDF xmlns:rdf="http://www.w3.org/1999/02/22-rdf-syntax-ns#">
      <rdf:Description rdf:about=""/>
   </rdf:RDF>
</x:xmpmeta>
                                                                                                    
                                                                                                    
                                                                                                    
                                                                                                    
                                                                                                    
                                                                                                    
                                                                                                    
                                                                                                    
                                                                                                    
                                                                                                    
                                                                                                    
                                                                                                    
                                                                                                    
                                                                                                    
                                                                                                    
                                                                                                    
                                                                                                    
                                                                                                    
                                                                                                    
                                                                                                    
                           
<?xpacket end="w"?></metadata>
<defs>
    <style>
      .cls-1 {
        fill:inherit;
        fill-rule: evenodd;
      }
    </style>
  </defs>
  <path id="ver_icono" data-name="ver icono" class="cls-1" d="M118.182,59.409H93.791l-11.818.252v0.252H79.458v0.252H77.447v0.252h-1.76v0.252h-1.76L64.12,62.933a15.955,15.955,0,0,1,2.514-8.307l0.5-1.511,0.5-.252v-0.5l0.754-.5v-0.5l1.257-1.007v-0.5l1.257-1.007,0.251-.5h0.5l1.006-1.259h0.5l0.5-.755h0.5l0.251-.5,1.006-.252,0.251-.5,1.509-.5V44.3h0.5V44.052l1.509-.5V43.3l6.035-1.762H86.75a20.426,20.426,0,0,1,9.3,0h1.509v0.252H98.82v0.252h1.006V42.29h0.754v0.252h0.754v0.252h1.006v0.252h0.5V43.3H103.6v0.252l1.508,0.5V44.3h0.5v0.252h0.5v0.252l1.509,0.5v0.252l0.754,0.252,0.252,0.5h0.5l0.252,0.5,0.754,0.252,0.755,1.007h0.5l1.508,1.762,0.755,0.5v0.5l1,0.755v0.5l0.5,0.252v0.5l0.5,0.252v0.5l0.5,0.252,0.252,1.007h0.251v0.5h0.251v0.5h0.252Q117.678,57.646,118.182,59.409Zm73.675,3.524-9.807-2.266h-1.76V60.416h-1.76V60.164h-2.263V59.912h-2.515V59.66l-11.818-.252H137.543V59.157h0.252q0.126-.881.251-1.762H138.3v-0.5h0.251V56.136H138.8q0.125-.5.251-1.007H139.3l0.252-1.007,0.5-.252q0.126-.5.251-1.007l0.5-.252v-0.5l1.006-.755v-0.5l4.275-4.028h0.5l0.5-.755h0.5l0.252-.5,1.508-.5,0.252-.5h0.5V44.3l1.006-.252V43.8c2.6-1.161,5.641-1.679,8.549-2.517h2.514V41.032h4.527v0.252l4.023,0.252v0.252h1.257v0.252h0.754V42.29h1.006v0.252h0.755v0.252h0.754v0.252h0.754V43.3h0.5v0.252h0.754V43.8l1.509,0.5v0.252l1.006,0.252q0.126,0.252.251,0.5l1.006,0.252v0.252l0.755,0.252q0.124,0.252.251,0.5h0.5l0.754,1.007A20.423,20.423,0,0,1,191.857,62.933ZM155.9,172.188H99.826a17.618,17.618,0,0,1-1.257,5.79l-0.251,1.763H98.066V180.5H97.814v0.755H97.563v0.755H97.311v0.755H97.06v0.5H96.808v0.755H96.557v0.5H96.306l-0.251,1.258H95.8l-0.5,1.511H95.048l-0.5,1.51-0.5.252-0.251,1.007H93.54v0.5l-0.5.252v0.5l-0.5.251-0.251,1.007-0.5.252v0.5l-0.5.251-0.251.756-0.754.5v0.5l-0.5.251-0.251.755-1.257,1.007v0.5l-1.76,1.51L83.23,202.9h-0.5l-1.006,1.258h-0.5l-0.5.756h-0.5l-0.5.755h-0.5l-0.5.755H78.2l-0.251.5-1.006.251-0.251.5-0.754.252v0.251l-1.509.5-0.251.5-1.006.252V209.7l-1.509.5v0.252H70.909v0.252h-0.5v0.251l-1.006.252v0.252H68.646v0.252h-0.5v0.251H67.389v0.252H66.634v0.252H65.88v0.252H65.126v0.251H64.12v0.252H63.366v0.252H62.36a38.118,38.118,0,0,1-12.07,1.51H45.513v-0.251H43.5v-0.252h-1.76v-0.252H40.484v-0.252H39.226v-0.251H38.221v-0.252H37.215v-0.252H36.209V212.97H35.455v-0.251H34.7v-0.252H33.946v-0.252l-1.509-.252v-0.251h-0.5V211.46H31.18v-0.252l-1.006-.252v-0.251H29.42v-0.252l-1.509-.5V209.7h-0.5v-0.252l-1.006-.252-0.252-.5-1.509-.5-0.251-.5-1.006-.252V207.18l-0.754-.251-0.251-.5h-0.5l-0.5-.755h-0.5l-0.252-.5h-0.5l-0.5-.755h-0.5L18.1,203.152H17.6l-2.766-3.02-2.766-2.518v-0.5L10.812,196.1v-0.5l-0.754-.5v-0.5l-0.754-.5v-0.5l-0.5-.251-0.251-.756H8.3v-0.5l-0.5-.252-0.251-1.007-0.5-.252-0.251-1.007-0.5-.251-0.5-1.511H5.532v-0.5H5.28v-0.5H5.029l-0.5-1.51H4.275v-0.755H4.023v-0.5H3.772L3.52,182.761H3.269v-0.755H3.017v-0.5H2.766V180.5H2.515v-0.5H2.263v-1.007A44.334,44.334,0,0,1,0,164.133l0.251-6.294,2.012-11.076c1.468-4.51,2.475-9.467,4.275-13.594l0.5-2.266H7.292v-0.5H7.544l0.251-1.51H8.046L8.3,127.63H8.549v-0.5H8.8v-0.755H9.052L9.3,125.365H9.555v-0.756H9.807l0.251-1.007H10.31v-0.755h0.251l0.5-1.51h0.252v-0.5h0.251v-0.5h0.251v-0.5H12.07l0.5-1.762,0.5-.252v-0.5h0.252v-0.5h0.251v-0.5H13.83v-0.5h0.251v-0.5h0.252v-0.5l0.5-.5v-0.5l0.5-.252,0.5-1.511,0.5-.251v-0.5H16.6v-0.5l0.5-.252,0.252-1.007,0.5-.252v-0.5l0.5-.252v-0.5l0.5-.251v-0.5l0.5-.251v-0.5h0.251l0.252-.755,0.5-.252v-0.5l0.5-.252v-0.5l0.754-.5v-0.5l0.5-.251v-0.5l0.5-.252,0.252-.755,1.006-.755v-0.5l1.006-.756v-0.5l1.006-.755v-0.5l1.76-1.51v-0.5l2.514-2.266,4.023-4.28h0.5l1.257-1.51h0.5l1.006-1.259,0.754-.252,0.251-.5h0.5l0.754-1.007h0.5l0.252-.5h0.5l0.5-.755h0.5l0.252-.5h0.5l0.251-.5h0.5l0.252-.5h0.5l0.251-.5h0.5l0.252-.5,1.006-.252,0.251-.5,1.006-.252,0.252-.5h0.5l0.5-.5h0.5V78.541h0.5V78.289l1.006-.252,0.251-.5h0.5V77.282h0.5V77.03H52.8V76.779h0.5V76.527h0.5V76.275l1.509-.5V75.52h0.754V75.268h0.5V75.017l1.257-.252V74.513h0.754V74.261h0.5V74.01l2.263-.5V73.254h0.5V73h1.006V72.751h0.754V72.5h0.754V72.247h0.754V72L68.9,71.24V70.989h1.257V70.737H71.16V70.485h1.257V70.233h1.257V69.982h1.509V69.73h1.509V69.478H78.7V69.226h2.012V68.975h2.766V68.723h4.526c2.68-.758,7.6-0.251,10.812-0.252h59.594c2.976,0,7.04-.467,9.555.252H172.5v0.252l6.538,0.5V69.73h1.508v0.252h1.509v0.252h1.257v0.252l2.515,0.252v0.252h1.006V71.24h1v0.252h1.006v0.252h1.006V72H190.6v0.252h1.006V72.5l4.526,1.259V74.01h0.5v0.252l1.509,0.252v0.252h0.5v0.252H199.4v0.252l1.006,0.252v0.252l1.257,0.252v0.252l1.509,0.5V77.03h0.5v0.252h0.5v0.252h0.5v0.252h0.5v0.252h0.5v0.252h0.5l0.5,0.5h0.5l0.252,0.5,1.508,0.5,0.252,0.5,1,0.252,0.252,0.5h0.5l0.251,0.5h0.5l0.252,0.5h0.5v0.252l0.754,0.252q0.126,0.252.251,0.5h0.5l0.252,0.5h0.5l0.5,0.755h0.5l0.5,0.755h0.5l0.5,0.755h0.5l0.754,1.007h0.5l1.006,1.259h0.5l1.257,1.51h0.252q0.125,0.252.251,0.5h0.5l2.263,2.517,2.263,2.014v0.5l2.012,1.762v0.5l1.257,1.007v0.5h0.251l0.5,0.755,0.5,0.252v0.5l0.755,0.5v0.5l0.754,0.5v0.5l0.754,0.5v0.5l0.755,0.5v0.5l0.5,0.252,0.252,0.755h0.251v0.5l0.5,0.251v0.5l0.5,0.252v0.5l0.5,0.252v0.5l0.5,0.252V109l0.5,0.252q0.126,0.5.251,1.007l0.5,0.252,0.252,1.007,0.5,0.252,0.5,1.51,0.5,0.252v0.5h0.252v0.5h0.251v0.5l0.5,0.5v0.5l0.5,0.252q0.252,0.754.5,1.51h0.251v0.5H243.4v0.5h0.251q0.252,0.756.5,1.511h0.252v0.755h0.251v0.5h0.252v0.5h0.251q0.252,0.754.5,1.51h0.251l0.252,1.259h0.251v0.5h0.252v0.755h0.251v0.5h0.252v0.756h0.251v0.5h0.252v0.755h0.251v0.5h0.251l0.252,1.51h0.251v0.5h0.252q0.251,1.132.5,2.265h0.251v0.756h0.252v0.5h0.251l0.252,1.762H250.7V137.2h0.251v0.756H251.2v0.755h0.251v0.755H251.7v1.007h0.251v0.755h0.252v1.007h0.251v1.007h0.252v1.007h0.251v1.007h0.251l0.252,2.014h0.251v1.259h0.252v1.007h0.251v1.258h0.252v1.259h0.251v1.511c0.426,1.448.576,3.531,1.006,5.034v3.525h0.251c0.034,0.354-.189-0.1-0.251.251v1.511a0.6,0.6,0,0,0,.251.5,0.66,0.66,0,0,1-.251.756v4.531h-0.251v2.014h-0.252v1.762h-0.251l-0.252,2.266h-0.251q-0.252,1.511-.5,3.021h-0.252v0.755h-0.251v0.755H253.21V181h-0.251q-0.126.756-.251,1.511h-0.252v0.5h-0.251v0.755h-0.252v0.5H251.7v0.755H251.45q-0.25.756-.5,1.511H250.7v0.5h-0.251v0.5h-0.252v0.5h-0.251v0.5l-0.5.5v0.5l-0.5.252-0.252,1.007-0.5.252q-0.124.5-.251,1.007l-0.5.252v0.5l-0.5.252v0.5l-0.754.5v0.5l-0.754.5v0.5l-0.755.5v0.5l-1.509,1.259v0.5l-2.766,2.518-1.257,1.51h-0.5l-1.257,1.511h-0.5l-0.754,1.007h-0.5l-0.252.5h-0.5l-0.5.755h-0.5l-0.252.5h-0.5c-0.083.168-.167,0.335-0.251,0.5l-0.754.252v0.252l-1.006.252-0.252.5h-0.5l-0.5.5h-0.5v0.252h-0.5v0.252h-0.5V209.7h-0.5v0.251h-0.5V210.2h-0.5v0.252l-1.509.5v0.252h-0.754v0.252h-0.5v0.252l-1.508.251v0.252h-0.5v0.252l-1.509.252v0.251h-1.006c-8.29,2.945-21.615,2.6-29.42-.5l-2.263-.5v-0.251h-0.5V211.46h-0.754v-0.252h-0.5v-0.252h-0.754v-0.251l-1.509-.5v-0.252h-0.5V209.7h-0.5v-0.252h-0.5v-0.252l-1.508-.5C167.9,200.573,159.26,189.888,155.9,172.188ZM79.458,135.434a8.426,8.426,0,0,1-2.514-2.014l-0.251-.5h-0.5l-0.754-1.007h-0.5l-0.5-.755h-0.5l-0.252-.5h-0.5l-0.251-.5-0.754-.252v-0.252l-1.006-.252-0.251-.5h-0.5l-0.5-.5H69.4v-0.251H68.9v-0.252h-0.5V127.63h-0.5v-0.251l-1.509-.5v-0.252l-6.035-2.014H59.091v-0.251H57.834v-0.252H56.325v-0.252H54.313c-2.44-.689-7.924-0.371-10.058.252l-4.023.5L34.2,126.623v0.252l-1.509.5v0.251h-0.5v0.252h-0.5v0.252h-0.5v0.251h-0.5l-0.5.5h-0.5l-0.251.5-1.006.252-0.252.5h-0.5V130.4l-0.754.252-0.252.5h-0.5l-0.251.5-0.754.252-0.754,1.007h-0.5l-1.509,1.762h-0.5l-1.006,1.259-0.5.251v0.5l-1.76,1.51v0.5l-1.006.755-0.251.755-0.5.252v0.5l-0.5.251-3.772,6.8v0.755H12.321v0.5H12.07l-2.012,6.545-0.5,5.287H9.3a27.768,27.768,0,0,0,.251,7.048l0.251,3.777,2.012,7.3H12.07v0.5h0.252V180.5h0.251l0.5,1.51h0.252v0.5h0.251v0.5H13.83v0.5h0.251v0.5h0.252v0.5l0.5,0.5v0.5l0.5,0.251,0.251,1.007h0.252l0.251,0.756,0.5,0.251,0.252,1.007,0.754,0.5v0.5l0.754,0.5v0.5l1.006,0.755v0.5l2.515,2.266,1.257,1.51h0.5l1.006,1.259h0.5l0.5,0.755h0.5l0.5,0.755h0.5l0.252,0.5,0.754,0.251v0.252l1.006,0.252,0.252,0.5h0.5l0.5,0.5h0.5v0.252h0.5l0.251,0.5h0.754v0.252h0.5v0.251l1.509,0.5V202.9l1.509,0.251V203.4h0.5v0.252l1.509,0.252v0.251h1.006c5.583,1.968,14.59,2.423,20.619.5h1.257v-0.252h0.754v-0.252l2.514-.5V203.4h0.5v-0.252h0.754V202.9h0.5v-0.252h0.754V202.4l1.509-.5v-0.252h0.5V201.39h0.5v-0.251h0.5v-0.252h0.5l0.5-.5h0.5v-0.251l0.754-.252,0.251-.5,1.006-.251,0.5-.756h0.5l0.251-.5h0.5l0.251-.5h0.252l0.251-.5h0.5L77.2,195.6h0.5l2.263-2.517,1.257-1.007v-0.5l1.006-.755v-0.5l1.006-.756v-0.5l0.5-.252,0.251-.755h0.252v-0.5l0.5-.252,0.251-.755h0.251l0.5-1.511,0.5-.252,0.251-1.007H86.75v-0.5H87l0.5-1.51h0.252l2.766-8.308v-1.259h0.252v-1.51h0.251v-2.266h0.251a30.64,30.64,0,0,0-.251-7.552v-2.266H90.774v-1.258H90.522v-1.511H90.271v-1.007H90.019v-1.007H89.768l-0.251-1.762H89.265v-0.755H89.013v-0.755H88.762v-0.5H88.511V149.28H88.259v-0.5H88.008v-0.755H87.756l-0.5-1.51H87v-0.5H86.75v-0.5H86.5L86,143.993l-0.5-.251-0.251-1.007-0.5-.252v-0.5H84.487l-0.251-.755-0.5-.251v-0.5l-0.754-.5v-0.5l-1.006-.755v-0.5l-0.5-.251A8.453,8.453,0,0,1,79.458,135.434ZM124.971,123.6c-0.569.5-1.469,0.218-2.263,0.5v0.252h-0.755v0.251h-0.5v0.252H120.7v0.252l-1.006.252v0.251l-1,.252-0.252.5h-0.5c-0.084.167-.167,0.335-0.251,0.5h-0.5q-0.252.378-.5,0.755h-0.5l-1.76,2.014-0.754.5v0.5l-0.755.5v0.5l-0.5.252q-0.251.755-.5,1.51l-0.5.252v0.755h-0.252v0.5H110.89v0.755h-0.252v0.5h-0.251V137.2h-0.252V138.2c-0.3.941-.905,3.878-0.5,5.287h0.252v1.762h0.251v1.259h0.252v0.755h0.251v0.755h0.252v0.755h0.251l0.5,1.511H111.9l0.252,1.007,0.5,0.252v0.5l0.5,0.252v0.5l1,0.756v0.5l1.258,1.007q0.124,0.252.251,0.5h0.5l0.754,1.007h0.5l0.252,0.5h0.5q0.124,0.252.251,0.5l1.006,0.252v0.252l1.509,0.5v0.252H121.7V159.1h0.5v0.252h1.006c1.15,0.387,4.879,1.3,6.789.755v-0.252h1.76c4.739-1.455,7.991-3.417,10.561-7.049l0.754-.5v-0.5l0.5-.251v-0.5l0.5-.5v-0.5h0.251v-0.5h0.252q0.126-.5.251-1.007h0.252q0.25-1.258.5-2.518a14.974,14.974,0,0,0,.251-7.048V137.7q-0.879-2.391-1.76-4.783l-0.5-.252q-0.126-.5-0.251-1.007l-0.755-.5v-0.5l-1-.755v-0.5l-0.5-.251q-0.378-.5-0.755-1.007h-0.5l-0.754-1.007-0.754-.252-0.252-.5-1.006-.252q-0.124-.252-0.251-0.5h-0.5v-0.251h-0.5v-0.252h-0.754v-0.252h-0.5v-0.252h-0.754v-0.251h-0.755v-0.252h-1.006v-0.252h-1.257V123.6h-5.783Zm76.441,0c-0.655.559-3.473,0.41-4.526,0.756l-6.035,1.762v0.252l-1.257.251v0.252l-1.006.252v0.252h-0.755v0.251l-1,.252v0.252h-0.5l-0.252.5-1.508.5-0.252.5-1.006.252c-0.084.168-.167,0.336-0.251,0.5h-0.5l-0.5.756h-0.5q-0.126.251-.251,0.5h-0.5l-0.252.5H180.29l-0.252.5h-0.5l-1.006,1.259h-0.5l-2.012,2.265-1.006.756v0.5l-1.508,1.259v0.5l-0.755.5v0.5l-0.754.5v0.5l-0.5.252c-0.084.252-.168,0.5-0.251,0.755h-0.252v0.5l-0.5.251q-0.25.756-.5,1.511l-0.5.252-0.252,1.007h-0.251v0.5h-0.252q-0.25.756-.5,1.511h-0.251v0.755h-0.252v0.5h-0.251v0.755h-0.252v0.5h-0.251q-1,3.9-2.012,7.8-0.124,2.643-.251,5.286h-0.251v2.77H164.7v3.272h0.251v1.762H165.2q0.126,1.385.251,2.77h0.252v0.755h0.251l0.252,2.014q1.633,3.9,3.269,7.8l0.5,0.251q0.252,0.756.5,1.511h0.252l0.251,0.755,0.5,0.252v0.5h0.252q0.124,0.378.251,0.755l0.5,0.252v0.5l0.754,0.5v0.5q0.5,0.376,1.006.755v0.5l2.766,2.518,2.012,2.265h0.5q0.377,0.5.754,1.007h0.5q0.25,0.378.5,0.756h0.5l0.251,0.5,0.754,0.252v0.252h0.5l0.252,0.5,0.754,0.252v0.252l1.509,0.5,0.251,0.5,1.006,0.251v0.252l1.006,0.252v0.251h0.754V202.4l1.006,0.252V202.9H190.6v0.251h0.5V203.4h0.755v0.252h0.754v0.252h0.754v0.251h0.755v0.252l2.011,0.252v0.252l2.515,0.251v0.252l4.274,0.252v0.252a16.927,16.927,0,0,0,5.532-.252h2.515v-0.252h1.76v-0.252h1.257v-0.251h1.006v-0.252H216v-0.252H217v-0.252h0.754v-0.251h0.754v-0.252h0.755V203.4l1.508-.252V202.9h0.5v-0.252h0.755l6.789-3.776,0.251-.5h0.5l0.252-.5,0.754-.252,0.5-.755h0.5l1.257-1.51h0.5l1.76-2.014,0.754-.5v-0.5l1.258-1.007v-0.5l1-.755v-0.5l0.5-.251v-0.5l0.5-.252v-0.5l0.5-.252v-0.5l0.5-.252q0.126-.5.251-1.007l0.5-.252v-0.5l0.5-.5v-0.5h0.252v-0.5H241.9v-0.5l0.5-.252v-0.755h0.252v-0.5H242.9q0.252-.756.5-1.511h0.251v-0.755h0.252v-0.5h0.251V178.23h0.252v-0.755h0.251V176.72h0.252q0.125-.882.251-1.763h0.252v-1.006h0.251q0.126-1.385.251-2.77h0.252q0.126-2.517.251-5.034h0.252a9.3,9.3,0,0,0-.252-3.525V159.6H246.17v-1.762h-0.252q-0.125-1.258-.251-2.517h-0.251v-1.007h-0.252v-1.007h-0.251v-0.755h-0.252V151.8H244.41q-0.252-1.132-.5-2.265h-0.252v-0.5H243.4v-0.755h-0.252l-0.5-1.51H242.4v-0.5h-0.251v-0.5H241.9v-0.5h-0.251q-0.252-.755-0.5-1.51l-0.5-.252-0.252-1.007-0.5-.252v-0.5l-0.5-.252v-0.5l-0.755-.5v-0.5l-0.754-.5v-0.5l-1.257-1.007v-0.5l-2.012-1.762-2.011-2.266h-0.5q-0.378-.5-0.755-1.007h-0.5l-0.754-1.007h-0.5c-0.084-.167-0.167-0.335-0.251-0.5h-0.5l-0.252-.5h-0.5l-0.251-.5h-0.5q-0.126-.252-0.251-0.5l-1.509-.5-0.252-.5-1-.251v-0.252l-1.509-.5v-0.252l-8.3-2.769H213.23C210.057,123.392,205.568,123.615,201.412,123.6Zm-75.184,9.063H129.5v0.252H130.5v0.252h0.754v0.251h0.754l0.252,0.5h0.5v0.252h0.5l0.754,1.006,1.509,1.259v0.5l0.5,0.251q0.124,0.63.251,1.259h0.252v0.5h0.251v1.007h0.251a8.31,8.31,0,0,1-.5,4.531v0.755h-0.252l-0.5,1.511-0.5.251v0.5l-1.508,1.258-0.252.5h-0.5c-0.084.168-.167,0.336-0.251,0.5l-1.006.252v0.252h-0.754v0.252h-0.755v0.251h-1.257v0.252a15.047,15.047,0,0,1-4.275-.5v-0.252h-0.5v-0.252l-1.508-.5q-0.378-.5-0.755-1.007l-1.508-1.259v-0.5l-0.5-.252v-0.5a7.55,7.55,0,0,1-.755-6.293v-1.007h0.252v-0.5h0.251v-0.5h0.252q0.126-.5.251-1.007l0.5-.252v-0.5l1.006-.756q0.126-.251.251-0.5h0.5l0.5-.755h0.5v-0.252l1.006-.252v-0.251l1.76-.252v-0.252ZM30.677,145.5a7.221,7.221,0,0,1-1.006,1.762l-0.251,1.007H29.168l-0.251,1.259H28.665v0.5H28.414v0.755H28.162v0.756H27.911V152.3H27.66v0.755H27.408v1.007H27.157v1.007H26.905v1.259H26.654v1.762H26.4v3.776a21.67,21.67,0,0,0,1.509,8.559l0.251,1.511h0.252l0.251,1.007h0.252V173.7h0.251v0.5H29.42v0.5l0.5,0.251,0.5,1.511h0.251l0.252,0.755,0.5,0.252v0.5l0.754,0.5v0.5l1.509,1.259,2.012,2.266h0.5l0.754,1.007h0.5l0.251,0.5h0.5l0.251,0.5,1.006,0.251,0.251,0.5,1.509,0.5v0.252l1.509,0.5v0.251l1.509,0.252v0.252H45.01v0.252h0.754V187.8h0.754v0.252h1.257a22.164,22.164,0,0,0,11.315,0h1.257l5.28-1.762v-0.252h0.5v-0.252h0.5v-0.251h0.5v-0.252h0.5v-0.252h0.5v-0.252h0.5v-0.251l0.754-.252v0.5a6.291,6.291,0,0,0-1.006,1.511l-0.754.5v0.5l-0.754.5-1.76,2.014a41.748,41.748,0,0,1-7.795,4.532l-2.514.5a23.386,23.386,0,0,1-12.573.252H40.986v-0.252H40.232v-0.252l-2.514-.5v-0.252l-1.006-.252v-0.251l-2.263-.756-0.251-.5-1.509-.5-0.251-.5h-0.5l-0.5-.755h-0.5l-0.252-.5h-0.5l-1.006-1.259h-0.5l-1.257-1.51-0.5-.252v-0.5l-1.006-.755v-0.5l-0.5-.252v-0.5l-0.754-.5v-0.5l-0.5-.252v-0.5l-0.5-.252v-0.5l-0.5-.252L22.882,180.5H22.631v-0.5H22.379l-0.5-1.51H21.625v-0.755H21.373v-0.5H21.122l-0.251-1.51c-1.663-4.253-2.407-10.453-.754-15.356l0.5-2.518H20.87l0.251-1.259h0.252l0.251-1.007h0.252v-0.755l0.5-.251,0.5-1.511,0.5-.252v-0.5h0.251l0.252-.755,0.5-.252v-0.5l1.509-1.258v-0.5l1.006-.755v-0.252h0.5l0.5-.755h0.251l0.252-.5h0.5l0.251-.5,0.754-.252v-0.251Zm194.371,0c1.859,0.405,3.593,2.584,4.778,3.776l1,0.755v0.5l0.755,0.5v0.5l0.754,0.5v0.5l0.5,0.251,0.5,1.511,0.5,0.252q0.126,0.628.251,1.258h0.252q0.126,0.5.251,1.007h0.252q0.124,0.63.251,1.259h0.251V159.1a24.139,24.139,0,0,1,.252,14.6v1.007c-3.159,8.885-8.487,15.476-16.847,19.132l-1.509.252c-4.047,1.586-10.112,2.551-15.087,1.007h-1.257c-5.563-1.884-9.986-4.445-13.076-8.811l-0.754-.5v-0.5l-0.5-.252c-0.084-.252-0.168-0.5-0.251-0.755h0.5c0.578,0.879,1.777,1.028,2.766,1.51v0.252h0.754v0.252h0.5v0.252h0.754v0.251h0.5v0.252l2.515,0.5a26.507,26.507,0,0,0,16.092-.252h1.006v-0.252l1.257-.252v-0.251h0.5v-0.252h0.755v-0.252h0.5v-0.252h0.5l0.252-.5,1.509-.5v-0.251l0.754-.252q0.126-.252.251-0.5h0.5q0.252-.376.5-0.755h0.5q0.378-.5.754-1.007h0.5l1.509-1.762,0.754-.5v-0.5l1.006-.755,0.252-.755,0.5-.252q0.124-.5.251-1.007l0.5-.252q0.126-.5.251-1.007l0.5-.252,0.252-1.006h0.251l0.252-1.007h0.251v-0.756h0.252v-0.5h0.251V170.93h0.251v-0.756h0.252v-0.755h0.251v-1.007h0.252v-1.007h0.251V165.9a21.331,21.331,0,0,0-.251-10.322v-1.258h-0.252v-1.007h-0.251v-0.755h-0.252V151.8h-0.251v-0.755h-0.251v-0.755h-0.252v-0.5H227.06v-0.755h-0.252v-0.5h-0.251v-0.5Z"/>
</svg>
