<svg xmlns="http://www.w3.org/2000/svg" width="256" height="256" viewBox="0 0 256 256">
  <metadata><?xpacket begin="﻿" id="W5M0MpCehiHzreSzNTczkc9d"?>
<x:xmpmeta xmlns:x="adobe:ns:meta/" x:xmptk="Adobe XMP Core 5.6-c138 79.159824, 2016/09/14-01:09:01        ">
   <rdf:RDF xmlns:rdf="http://www.w3.org/1999/02/22-rdf-syntax-ns#">
      <rdf:Description rdf:about=""/>
   </rdf:RDF>
</x:xmpmeta>
                                                                                                    
                                                                                                    
                                                                                                    
                                                                                                    
                                                                                                    
                                                                                                    
                                                                                                    
                                                                                                    
                                                                                                    
                                                                                                    
                                                                                                    
                                                                                                    
                                                                                                    
                                                                                                    
                                                                                                    
                                                                                                    
                                                                                                    
                                                                                                    
                                                                                                    
                                                                                                    
                           
<?xpacket end="w"?></metadata>
<defs>
    <style>
      .cls-1 {
        fill:inherit;
        fill-rule: evenodd;
      }
    </style>
  </defs>
  <path id="Compartir_iOS_icono" data-name="Compartir iOS icono" class="cls-1" d="M124.418,1.38c3.709-3.064,6.168,0,6.168,0s43.764,44.562,44.2,45.175c4.019,4.777-2.281,12.509-8.224,8.214-10.192-10.213-32.9-32.854-32.9-32.854V166.678s0.778,5.111-6.168,5.133c-6.015.019-5.14-5.133-5.14-5.133V22.94s-30.611,30.732-30.841,30.8c-7.41,7.215-15.914-.506-11.308-7.187C80.187,46.542,124.3,1.6,124.418,1.38ZM45.26,75.3H86.381s5.137,0.128,5.14,6.16-5.14,6.16-5.14,6.16H49.373V244.706H206.66V87.622H168.623c-1.118-.015-4.079-1.568-4.112-6.16-0.023-6.193,4.112-6.16,4.112-6.16h44.205s5.2-.273,5.14,5.133,0,171.458,0,171.458,0.611,4.1-4.112,4.107-172.708,0-172.708,0-3.1-.077-3.084-3.08,0-173.512,0-173.512-0.835-4.126,4.112-4.107A28.2,28.2,0,0,0,45.26,75.3Z"/>
</svg>
