<svg xmlns="http://www.w3.org/2000/svg" width="256" height="256" viewBox="0 0 256 256">
  <metadata><?xpacket begin="﻿" id="W5M0MpCehiHzreSzNTczkc9d"?>
<x:xmpmeta xmlns:x="adobe:ns:meta/" x:xmptk="Adobe XMP Core 5.6-c138 79.159824, 2016/09/14-01:09:01        ">
   <rdf:RDF xmlns:rdf="http://www.w3.org/1999/02/22-rdf-syntax-ns#">
      <rdf:Description rdf:about=""/>
   </rdf:RDF>
</x:xmpmeta>
                                                                                                    
                                                                                                    
                                                                                                    
                                                                                                    
                                                                                                    
                                                                                                    
                                                                                                    
                                                                                                    
                                                                                                    
                                                                                                    
                                                                                                    
                                                                                                    
                                                                                                    
                                                                                                    
                                                                                                    
                                                                                                    
                                                                                                    
                                                                                                    
                                                                                                    
                                                                                                    
                           
<?xpacket end="w"?></metadata>
<defs>
    <style>
      .cls-1 {
        fill: inherit;
        fill-rule: evenodd;
      }
    </style>
  </defs>
  <path id="Deportes_icono" data-name="Deportes icono" class="cls-1" d="M80.962,9.572S112.478-9.743,164.9,6.5c-0.635.161-47.086,20.488-47.086,20.488Zm93.149,0s22.788,2.783,50.157,33.8c-0.579.022-3.071,53.268-3.071,53.268l-31.732,9.22L119.859,61.815l2.047-29.707Zm55.275,42S256.7,76.253,256,134.546c-0.034-.506-29.685-35.853-29.685-35.853Zm-8.189,51.22,33.779,40.975S251.8,176.3,238.6,191.912c-0.405-.159-47.087,14.341-47.087,14.341l-22.519-20.487,21.5-73.756Zm12.283,97.316s-20.269,35.456-58.346,46.1c0.159,0.238,17.4-34.829,17.4-34.829ZM165.922,250.3s-30.666,11.268-66.535,2.049c-0.846-.445-28.661-53.268-28.661-53.268l17.4-20.488,75.748,11.268,22.519,21.512ZM64.584,202.156L91.2,250.3S43.822,239.635,19.545,196.01C19.258,195.785,64.584,202.156,64.584,202.156Zm-48.11-13.317S-1.552,167.94.1,129.425c-1.24.01,34.8-30.732,34.8-30.732l31.732,17.415,17.4,58.389L64.584,196.01ZM32.852,43.376S3,68.257.1,120.205C0.187,120.742,30.8,93.571,30.8,93.571Zm7.165-8.2S48.65,20.6,72.773,12.645c0.858,0.814,41.968,18.439,41.968,18.439l-1.024,29.707-42.991,50.2L37.97,92.547Zm77.795,31.756,66.535,43.024-21.5,72.732L90.174,172.449,73.8,117.132Z"/>
</svg>
