<svg id="Otros" xmlns="http://www.w3.org/2000/svg" width="256" height="256" viewBox="0 0 256 256">
  <defs>
    <style>
      .cls-1 {
      	fill: inherit;
        fill-rule: evenodd;
      }
    </style>
  </defs>
  <path id="Streaming_icono" data-name="Streaming icono" class="cls-1" d="M23.037,55L37.542,64.6l-0.259,1.037C14.016,98.547,8.862,148.811,37.8,190.886l-0.259.519L23.555,201l-0.777-.519C-7.678,152.806-7.512,99.756,23.037,55Zm210.071,1.037c4.216,1.962,7.683,11.42,9.584,15.819,14.793,34.211,19.967,65.9,1.3,109.435q-5.05,9.335-10.1,18.672l-14.764-9.855c25.841-39.22,24.446-86.832,0-124.216ZM126.13,61.483c87.8,2.319,89.973,122.488,7.512,132.775-50.852,1.865-83.976-44.9-67.348-89.986a65.968,65.968,0,0,1,43.258-40.2A71.129,71.129,0,0,1,126.13,61.483ZM48.68,72.375l14.506,9.854v0.259c-13.07,16.556-19.163,47.778-9.584,72.871l9.584,18.412-14.765,9.6S9.341,127.774,48.68,72.375Zm159.3,1.037c20.674,26.474,23.738,75.431,0,109.176l-0.259-.259-13.988-9.595q0.648-1.167,1.3-2.334c4.068-7.449,8.121-15.159,10.361-24.636,5.5-23.274-1.341-48.847-11.656-62.238ZM123.54,74.968a53.034,53.034,0,0,0-46.107,37.6c-11.234,35.3,16.214,70.373,55.173,68.462C201.723,171.933,194.315,71.989,123.54,74.968Zm-15.8,19.968,56.986,32.934c-0.086.26-.173,0.519-0.259,0.778L108,161.583l-0.259-.26V94.936Z"/>
</svg>
