<svg xmlns="http://www.w3.org/2000/svg" width="256" height="256" viewBox="0 0 256 256">
  <metadata><?xpacket begin="﻿" id="W5M0MpCehiHzreSzNTczkc9d"?>
<x:xmpmeta xmlns:x="adobe:ns:meta/" x:xmptk="Adobe XMP Core 5.6-c138 79.159824, 2016/09/14-01:09:01        ">
   <rdf:RDF xmlns:rdf="http://www.w3.org/1999/02/22-rdf-syntax-ns#">
      <rdf:Description rdf:about=""/>
   </rdf:RDF>
</x:xmpmeta>
                                                                                                    
                                                                                                    
                                                                                                    
                                                                                                    
                                                                                                    
                                                                                                    
                                                                                                    
                                                                                                    
                                                                                                    
                                                                                                    
                                                                                                    
                                                                                                    
                                                                                                    
                                                                                                    
                                                                                                    
                                                                                                    
                                                                                                    
                                                                                                    
                                                                                                    
                                                                                                    
                           
<?xpacket end="w"?></metadata>
<defs>
    <style>
      .cls-1 {
        fill: inherit;
        fill-rule: evenodd;
      }
    </style>
  </defs>
  <path id="Terminos_y_condiciones_icono" data-name="Terminos y condiciones icono" class="cls-1" d="M185.639,93.046h22.6c3.9,0,7.9-.166,10.765.805h1.077V94.12h0.538v0.269h0.807v0.269h0.538v0.268l1.077,0.269q0.133,0.268.269,0.537h0.538q0.135,0.268.269,0.537h0.538l1.615,1.879,0.808,0.537v0.537l0.538,0.268c1.732,2.733,1.346,7.615,1.345,12.081V238.819c0,4.171.275,8.188-1.345,10.738l-0.538.268v0.537l-1.077.806-1.346,1.611h-0.538l-0.269.536-0.807.269v0.268h-0.538v0.269l-1.077.268v0.269l-2.422.537v0.268l-3.5.269V256H49.2l-11.034-.268v-0.269l-3.5-.805v-0.269H34.126v-0.268l-1.615-.537-0.269-.537H31.7l-0.538-.805a16.988,16.988,0,0,1-2.691-2.685l-0.538-1.611H27.667c-1.087-2.48-.538-7.129-0.538-10.47V102.71H27.4l0.269-1.61h0.269l0.269-1.074h0.269V99.489l0.538-.268V98.684l0.807-.537,1.615-1.879h0.538l0.269-.537,3.768-1.879h1.077c3.388-1.132,8.662-.805,13.187-0.805H70.457V92.778c-0.43-.488-0.268-1.782-0.269-2.685V57.073c0-3.359-.521-8.474.269-11.275V43.381l0.538-4.564L73.417,31.3h0.269l0.538-1.611h0.269V29.153h0.269V28.616h0.269l0.538-1.611,0.538-.268,0.269-1.074,0.538-.268V24.858l0.538-.268V24.052l0.807-.537V22.978l0.807-.537V21.9l1.077-.805V20.562l1.884-1.611V18.415L83.912,16.8l0.269-.537H84.72l1.615-1.879h0.538l0.807-1.074,0.807-.268,0.269-.537h0.538l0.538-.805h0.538l0.269-.537,0.807-.268V10.629h0.538l0.269-.537,0.807-.268V9.555l1.077-.268,0.269-.537,1.615-.537V7.945h0.538V7.676H97.1V7.408h0.538V7.139h0.538V6.871h0.538V6.6l1.076-.268V6.065l1.077-.268V5.529h0.538V5.26h0.807V4.992h0.539V4.723h0.807V4.455H104.1V4.186l1.615-.268V3.649h0.807V3.381h0.808V3.112l1.883-.268V2.576h1.077V2.307l2.153-.268V1.77h1.345c1.285-.393,3.25-0.7,4.575-1.074l5.652-.268c1-.276,6.73-0.646,8.073-0.268V0.428h3.23V0.7h2.422c1.325,0.38,3.29.678,4.575,1.074h1.345l7.536,2.148V4.186h0.538V4.455l1.615,0.268,9.688,4.832q0.134,0.268.269,0.537h0.538q0.135,0.269.269,0.537h0.538V10.9l0.808,0.268q0.133,0.268.269,0.537h0.538q0.27,0.4.538,0.805h0.539q0.269,0.4.538,0.805h0.538l1.077,1.342h0.538l3.229,3.49,2.691,2.416V21.1l1.077,0.805v0.537l0.807,0.537v0.537l0.538,0.268,0.27,0.805h0.269v0.537l0.538,0.268c0.09,0.268.179,0.537,0.269,0.805h0.269q0.135,0.537.269,1.074l0.538,0.268q0.27,0.805.539,1.611H181.6l0.538,1.611h0.269v0.805h0.269v0.537h0.269v0.805h0.27v0.537h0.269q0.269,1.208.538,2.416h0.269v1.074h0.269v1.074h0.269v1.074H185.1v1.342h0.269v1.879c0.531,1.857.27,4.939,0.27,7.248v43.49Zm-100.919,0h86.655V57.609c0-6.081.471-13.108-1.076-17.718q-0.135-1.074-.269-2.148l-2.691-5.906-0.539-.268q-0.133-.537-0.269-1.074l-0.538-.268V29.69l-0.538-.269q-0.135-.4-0.269-0.805l-0.808-.537V27.542L162.764,26.2V25.663l-1.884-1.611q-0.135-.268-0.269-0.537h-0.539L158.727,21.9l-0.807-.268-0.27-.537h-0.538l-0.538-.805h-0.538q-0.135-.269-0.269-0.537l-0.808-.268V19.22l-1.076-.268q-0.135-.268-0.269-0.537L152,17.878l-0.269-.537-1.077-.268V16.8l-1.076-.268V16.267H148.77V16l-1.077-.268V15.462h-0.807V15.193h-0.538V14.925l-7.536-2.148H137.2V12.509h-1.615V12.24H133.43V11.972h-4.037a5.46,5.46,0,0,0-2.422-.268v0.268h-4.306V12.24l-4.037.268-9.688,2.685v0.268l-1.076.269V16h-0.808v0.268l-1.614.537v0.268H104.9v0.268l-1.077.269-0.269.537-1.615.537q-0.133.268-.269,0.537h-0.538q-0.135.269-.269,0.537h-0.538l-0.27.537H99.521l-0.269.537H98.714L97.907,21.9A33.58,33.58,0,0,0,85.8,38.549v1.074c-1.545,4.6-1.076,11.636-1.076,17.718v35.7Z"/>
</svg>
