<svg xmlns="http://www.w3.org/2000/svg" width="256" height="256" viewBox="0 0 256 256">
  <metadata><?xpacket begin="﻿" id="W5M0MpCehiHzreSzNTczkc9d"?>
<x:xmpmeta xmlns:x="adobe:ns:meta/" x:xmptk="Adobe XMP Core 5.6-c138 79.159824, 2016/09/14-01:09:01        ">
   <rdf:RDF xmlns:rdf="http://www.w3.org/1999/02/22-rdf-syntax-ns#">
      <rdf:Description rdf:about=""/>
   </rdf:RDF>
</x:xmpmeta>
                                                                                                    
                                                                                                    
                                                                                                    
                                                                                                    
                                                                                                    
                                                                                                    
                                                                                                    
                                                                                                    
                                                                                                    
                                                                                                    
                                                                                                    
                                                                                                    
                                                                                                    
                                                                                                    
                                                                                                    
                                                                                                    
                                                                                                    
                                                                                                    
                                                                                                    
                                                                                                    
                           
<?xpacket end="w"?></metadata>
<defs>
    <style>
      .cls-1 {
        fill:inherit;
        fill-rule: evenodd;
      }
    </style>
  </defs>
  <path id="Generar_time-lapse_icono" data-name="Generar time-lapse icono" class="cls-1" d="M130.282,0c6.226-.1,9.5,2.528,11.249,6.94h0.255c0.3,0.779.9,4.63,0.512,5.912h-0.256V13.88h-0.256v0.771h-0.255q-0.256.771-.512,1.542h-0.255v0.514L140,17.221v0.514l-0.767.514-2.557,2.827h2.812l12.272,1.8v0.257h1.278V23.39l2.3,0.257V23.9h1.023v0.257h1.023v0.257l2.045,0.257v0.257l1.79,0.257v0.257l1.789,0.257V25.96h0.767v0.257h0.767v0.257h0.767v0.257h0.767v0.257l2.3,0.514v0.257h0.511v0.257l1.534,0.257V28.53h0.512v0.257H171.7v0.257l1.278,0.257v0.257h0.511v0.257h0.767v0.257l1.023,0.257v0.257h0.511v0.257h0.767V31.1h0.512v0.257l1.533,0.514v0.257h0.767v0.257L180.9,32.9v0.257h0.512v0.257l1.534,0.514,0.255,0.514h0.512V34.7h0.511v0.257h0.511l0.512,0.514h0.511q0.127,0.257.256,0.514L187.55,36.5l0.255,0.514,1.023,0.257q0.128,0.257.256,0.514l1.022,0.257V38.3l0.767,0.257,0.256,0.514,1.022,0.257v0.257l0.767,0.257q0.129,0.257.256,0.514h0.511V40.61l0.767,0.257q0.129,0.257.256,0.514h0.511l0.512,0.771h0.511l0.256,0.514h0.511l0.511,0.771h0.512l0.511,0.771h0.511l0.512,0.771h0.511l0.511,0.771H201.1l0.767,1.028h0.511l1.023,1.285h0.511l1.023,1.285h0.511l1.789,2.056h0.512L211.07,55a57.548,57.548,0,0,1,6.392,6.94l1.278,1.028v0.514l1.278,1.028v0.514l1.023,0.771v0.514l0.767,0.514v0.514l0.767,0.514V68.37l0.767,0.514V69.4l0.767,0.514v0.514h0.256L224.62,71.2l0.512,0.257v0.514l0.767,0.514,0.255,1.028,0.512,0.257v0.514l0.511,0.257v0.514l0.511,0.257v0.514L228.2,76.08v0.514h0.255v0.514l0.512,0.257,0.255,1.028,0.512,0.257v0.514h0.255v0.514l0.512,0.257q0.255,0.771.511,1.542c3.163,5.056,5.435,10.954,7.925,16.707v0.771h0.256v0.771h0.256V100.5H239.7v0.771h0.256v0.771h0.256v0.771h0.255v0.771h0.256v0.771h0.256q0.382,1.8.767,3.6h0.255q0.129,1.028.256,2.056h0.256v1.285h0.255v1.028h0.256v1.028h0.256v1.286h0.255v1.285H243.8v1.542h0.256v1.285h0.255v1.542h0.256v1.8h0.256v1.8h0.255v2.57h0.256v3.084h0.256v4.627h0.255c0.37,1.307.02,7.249-.255,8.225v4.626h-0.256q-0.257,3.726-.511,7.454h-0.256v1.8h-0.256v1.542h-0.255v1.542H243.8q-0.127,1.285-.256,2.571h-0.255v1.285h-0.256q-0.255,1.671-.511,3.341h-0.256v1.028h-0.256v1.028H241.75v0.772h-0.256v1.028h-0.256v0.771h-0.255v1.028h-0.256v0.771h-0.256v0.771h-0.255v0.771H239.96v0.771H239.7v0.771h-0.255v0.771h-0.256q-0.128.771-.256,1.543h-0.255v0.514h-0.256q-0.127.771-.256,1.542h-0.255v0.514h-0.256v0.771H237.4v0.514h-0.255V183h-0.256v0.514h-0.256v0.771h-0.255q-0.128.515-.256,1.028h-0.256v0.514h-0.255V186.6h-0.256v0.514H235.1l-0.255,1.029h-0.256v0.514h-0.256v0.514H234.08v0.514h-0.256V190.2h-0.255v0.514h-0.256q-0.9,2.057-1.79,4.112l-0.511.257q-0.256.771-.511,1.543l-0.512.257-0.255,1.028-0.512.257-0.255,1.028-0.512.257-0.255,1.028h-0.256q-0.127.386-.256,0.771l-0.511.257q-0.127.515-.256,1.028h-0.255q-0.129.385-.256,0.771l-0.511.257v0.514l-0.767.514v0.514l-0.512.257v0.515l-0.511.257v0.514l-0.767.514v0.514l-0.767.514v0.514l-0.767.514v0.514l-0.767.514v0.514l-1.023.771v0.514l-1.022.771v0.514l-1.534,1.285v0.515l-2.045,1.8v0.514l-2.557,2.313a47.482,47.482,0,0,1-5.625,5.4l-1.789,2.056h-0.511l-1.279,1.542h-0.511l-0.767,1.028h-0.511l-0.767,1.028h-0.512q-0.382.514-.767,1.028H199.31q-0.127.258-.256,0.514h-0.511l-0.511.771H197.52l-0.511.772H196.5c-0.085.171-.171,0.342-0.256,0.514h-0.511l-0.512.771h-0.511l-0.256.514h-0.511l-0.256.514h-0.511c-0.085.171-.17,0.343-0.256,0.514h-0.511c-0.085.171-.17,0.343-0.256,0.514l-1.022.257v0.257l-0.767.257-0.256.514H189.6v0.257h-0.511c-0.086.171-.171,0.343-0.256,0.514l-1.023.257-0.255.514-1.023.257v0.257h-0.511l-0.256.514h-0.511v0.257h-0.512v0.257h-0.511l-0.511.514H183.2l-0.255.515-1.534.514v0.257H180.9v0.257l-1.534.514v0.257H178.6v0.257H178.09v0.257l-1.534.514v0.257h-0.767v0.257h-0.511v0.257h-0.511v0.257h-0.512v0.257h-0.767V247h-0.511v0.257H172.21v0.257H171.7v0.257l-12.272,4.113-2.045.257V252.4h-1.023v0.257h-1.023v0.257l-2.3.257v0.257h-1.022v0.257h-1.534v0.257H149.2V254.2h-1.534v0.257h-1.79v0.257h-1.534v0.257H142.3v0.257h-2.557v0.257h-3.324c-1.653.461-4.438-.213-6.135,0.257V256H126.7v-0.257h-3.579l-8.437-.514-13.038-2.313v-0.257L99.6,252.4v-0.257l-2.045-.257v-0.257l-1.79-.258v-0.257H95v-0.257H93.978V250.6H93.211v-0.257H92.444v-0.257H91.677v-0.257H90.91v-0.257l-1.534-.257V249.06H88.865V248.8l-2.3-.514v-0.257H86.052v-0.257H85.285v-0.257H84.774v-0.257H84.007V247H83.5v-0.257H82.729V246.49H82.218v-0.257H81.706v-0.257H81.195v-0.257H80.428v-0.257H79.917v-0.257l-1.534-.514v-0.257H77.616v-0.257l-1.534-.514v-0.257H75.57v-0.257l-1.534-.514-0.256-.515H73.269v-0.257H72.758v-0.257H72.247l-0.511-.514H71.224l-0.256-.514-1.534-.514-0.256-.514-1.023-.257-0.256-.514H67.389v-0.257H66.878v-0.257l-0.767-.257-0.256-.514-1.023-.257V236.98l-0.767-.257-0.256-.514H63.3l-0.256-.514H62.532l-0.511-.771H61.509l-0.256-.514H60.742l-0.256-.514H59.975l-0.511-.772H58.952l-0.511-.771H57.93l-0.511-.771H56.907l-0.511-.771H55.884l-0.767-1.028H54.606L53.584,228.5H53.072l-1.278-1.542H51.283l-1.534-1.8H49.237l-4.346-4.627L41.823,217.7v-0.514l-2.045-1.8v-0.514l-1.534-1.286v-0.514l-1.278-1.028v-0.514L36.2,211.02v-0.514l-1.023-.771v-0.514l-0.767-.514-0.256-.771-0.511-.257v-0.514l-0.511-.257v-0.514l-0.767-.514v-0.515l-0.511-.257-0.256-.771H31.341v-0.514l-0.511-.257v-0.514l-0.511-.257v-0.514l-0.511-.257V201.51l-0.511-.257v-0.514l-0.511-.257-0.256-1.028-0.511-.257-0.256-1.028-0.511-.257-0.511-1.543-0.511-.257-0.511-1.542-0.511-.257V193.8l-0.511-.514v-0.514H24.438v-0.514H24.183v-0.514H23.927v-0.514H23.671v-0.514H23.416V190.2H23.16v-0.514H22.9v-0.514H22.649v-0.514H22.393l-0.256-1.028H21.882v-0.515H21.626v-0.771H21.37v-0.514H21.115L20.859,184.8H20.6v-0.771H20.348v-0.514H20.092v-0.771H19.836l-0.256-1.028H19.325l-3.579-10.538v-1.028H15.49v-0.771H15.234l-0.256-1.8H14.723V166.3H14.467v-1.028H14.212v-1.028H13.956L13.7,161.928H13.445v-1.285H13.189l-0.256-3.085H12.678v-1.542H12.422v-1.8H12.166v-1.8H11.911l-0.256-5.655c-0.346-1.252.134-3.464-.256-4.883H11.144a28.594,28.594,0,0,1,.256-7.2v-2.828l0.256-5.14h0.256l0.256-4.627c0.766-2.606.989-5.984,1.79-8.482v-1.285h0.256v-1.028h0.256v-1.028h0.256v-1.028h0.256v-1.028h0.256v-1.028H15.49V106.41h0.256v-1.028l3.835-11.053h0.256V93.815h0.256V93.044h0.256V92.53H20.6V91.759h0.256l0.256-1.028H21.37V90.217h0.256V89.446h0.256V88.932h0.256L22.393,87.9h0.256V87.39H22.9V86.876H23.16V86.361h0.256V85.847h0.256V85.333h0.256V84.819h0.256V84.305h0.256V83.791l0.511-.514V82.763l0.511-.257V81.992h0.256V81.478l0.511-.514V80.45l0.511-.257,0.511-1.542,0.511-.257V77.88h0.256V77.366h0.256l0.256-.771,0.511-.257L29.3,75.309l0.511-.257V74.538h0.256l0.256-.771,0.511-.257V73h0.256l0.256-.771,0.511-.257V71.454l0.767-.514V70.426l0.511-.257V69.655l0.767-.514V68.627l0.511-.257V67.855l1.023-.771V66.57l0.767-.514V65.542l1.023-.771V64.257L38.5,63.229V62.715l1.534-1.285V60.916l2.045-1.8V58.6l2.812-2.57a57.893,57.893,0,0,1,6.9-6.426l1.278-1.542h0.511l0.767-1.028h0.511l0.767-1.028H56.14l0.767-1.028h0.511l0.511-.771h0.511l0.511-.771h0.511l0.256-.514h0.511l0.511-.771h0.511l0.256-.514,0.767-.257V41.125h0.511l0.256-.514h0.511L63.81,40.1h0.511l0.256-.514h0.511l0.256-.514h0.511l0.256-.514h0.511V38.3h0.511l0.256-.514,1.023-.257,0.256-.514h0.511V36.755H69.69l0.256-.514,1.534-.514,0.256-.514h0.511l0.511-.514h0.511V34.442h0.511V34.185h0.511V33.928H74.8V33.671h0.511l0.511-.514h0.511l0.256-.514H77.36V32.386h0.511V32.129h0.511V31.872h0.511V31.615l1.534-.514V30.843h0.767V30.586h0.511V30.329l1.023-.257V29.815l1.534-.257V29.3l1.023-.257V28.787l11.5-3.855,7.67-1.8L125.168,2.056h0.512l0.255-.514h0.512V1.285l1.022-.257V0.771h0.767V0.514C128.912,0.246,129.79.446,130.282,0Zm-6.9,58.6c-1.252-.344-2.692-2.45-3.579-3.341l-7.926-7.711c-1.038-1.043-2.3-3.213-4.09-3.341-0.675.583-1.354,0.2-2.3,0.514V44.98H104.46v0.257l-1.79.257v0.257H101.9v0.257l-1.789.257v0.257H99.347v0.257H98.58v0.257H97.813v0.257H97.046V47.55H96.279v0.257l-1.534.257v0.257H94.234v0.257H93.467v0.257H92.955v0.257H92.188v0.257H91.677v0.257H90.91v0.257l-1.023.257v0.257H89.12v0.257H88.609v0.257H88.1v0.257H87.586v0.257H87.075v0.257H86.564V51.92H86.052v0.257H85.541v0.257H85.03v0.257H84.518v0.257H84.007V53.2H83.5l-0.511.514H82.473l-0.256.514-1.534.514-0.256.514-1.534.514v0.257l-0.767.257-0.256.514-1.023.257v0.257l-0.767.257-0.256.514H75.315v0.257l-0.767.257-0.256.514H73.781l-0.511.771H72.758L72.5,60.4H71.991l-0.511.771H70.968l-0.511.771H69.946l-0.511.771H68.923L67.9,64H67.389l-1.023,1.285H65.855l-1.278,1.542H64.066l-2.557,2.827-4.346,4.112v0.514l-1.79,1.542v0.514l-1.278,1.028V77.88l-0.511.257v0.257l-0.511.257v0.514l-1.023.771V80.45l-0.767.514v0.514l-0.511.257v0.514L50,82.763v0.514l-0.511.257-0.256.771H48.982v0.514l-0.511.257V85.59l-0.511.257v0.514l-0.511.257-0.256.771H46.936V87.9H46.681v0.514l-0.511.257L45.914,89.7,45.4,89.96,44.891,91.5c-3.383,5.41-5.855,11.757-8.181,18.249L33.9,121.317v1.8H33.642v1.543H33.386v2.056H33.131v2.056H32.875q-0.128,4.626-.256,9.253c0,8.876.806,17.484,3.068,24.161l0.256,2.056H36.2v0.771h0.256v0.771H36.71v1.028h0.256v0.771h0.256v0.771h0.256v0.772h0.256V169.9h0.256l0.256,1.542H38.5v0.514h0.256v0.771h0.256v0.514h0.256v0.771h0.256v0.514h0.256v0.771h0.256l0.256,1.028h0.256v0.771H40.8l0.511,1.543h0.256v0.514h0.256v0.514h0.256v0.771h0.256l0.256,1.028h0.256v0.514l0.511,0.257v0.514l0.511,0.514v0.514h0.256v0.514H44.38l0.256,1.028,0.511,0.257,0.511,1.542,0.511,0.257,0.256,1.029h0.256l0.256,0.771,0.511,0.257,0.256,1.028h0.256l0.256,0.771,0.511,0.257V192l0.511,0.257v0.514L50,193.285V193.8l0.511,0.257v0.514l0.767,0.514V195.6l0.767,0.514v0.515l0.767,0.514v0.514l1.278,1.028V199.2l1.278,1.028v0.514l1.79,1.542V202.8l4.091,3.856,2.812,3.084h0.511l1.534,1.8h0.511l1.023,1.285h0.511l0.767,1.028h0.511l0.767,1.029h0.511l0.511,0.771h0.511l0.256,0.514H72.5l0.511,0.771h0.511l0.256,0.514,0.767,0.257v0.257h0.511l0.256,0.514h0.511l0.256,0.514h0.511l0.256,0.514H77.36l0.256,0.514h0.511v0.257h0.511l0.256,0.514,1.023,0.257,0.256,0.514,1.534,0.514,0.256,0.514h0.511l0.511,0.514H83.5v0.257h0.511v0.257h0.511v0.257H85.03v0.258h0.511v0.257h0.511v0.257h0.511V224.9h0.511v0.257h0.511v0.257l1.023,0.257v0.257H89.12v0.257h0.767v0.257L90.91,226.7v0.257h0.767v0.257L92.7,227.47v0.257l1.534,0.257v0.257h0.511V228.5l2.3,0.514v0.257l1.534,0.257v0.257h0.511v0.257h0.767V230.3h1.023v0.257h0.767v0.257l2.812,0.514v0.257l2.045,0.257V232.1l3.579,0.514v0.257h1.534c2.182,0.648,5.154.637,7.415,1.286H122.1c2.43,0.675,6.317.256,9.2,0.257h3.835v-0.257h2.812c1.748-.508,4.177-0.527,5.881-1.029h1.789v-0.257H146.9V232.61h1.278v-0.257H149.2V232.1h1.278v-0.257H151.5v-0.257l2.046-.257,10.737-3.6V227.47l1.023-.257v-0.257h0.767V226.7h0.511v-0.257h0.767v-0.257h0.512v-0.257l1.022-.257v-0.257l1.023-.257V224.9h0.511v-0.257h0.512v-0.257h0.511v-0.257h0.511v-0.258h0.512v-0.257h0.511v-0.257h0.511V223.1H174l0.511-.514h0.511c0.085-.171.171-0.342,0.256-0.514l1.534-.514,0.256-.514,1.022-.257,0.256-.514h0.511v-0.257h0.511c0.086-.171.171-0.343,0.256-0.514h0.511c0.086-.171.171-0.343,0.256-0.514H180.9v-0.257l0.767-.257c0.086-.171.171-0.343,0.256-0.514h0.511V217.7l0.767-.257,0.256-.514h0.511l0.512-.771h0.511q0.127-.258.256-0.514h0.511l0.511-.771h0.512q0.255-.387.511-0.772h0.511l1.023-1.285h0.511l1.023-1.285h0.511l1.278-1.542h0.512l4.346-4.627,3.068-2.827v-0.514l1.79-1.542v-0.514l1.278-1.028v-0.514l1.023-.771v-0.514q0.382-.258.767-0.514v-0.515l0.767-.514v-0.514l0.766-.514v-0.514l0.512-.257v-0.514l0.767-.514v-0.514l0.511-.257c0.085-.257.171-0.514,0.256-0.771h0.255v-0.514l0.512-.257,0.255-1.028h0.256c0.085-.257.171-0.514,0.256-0.771l0.511-.257q0.128-.514.256-1.029l0.511-.257q0.128-.513.256-1.028l0.511-.257v-0.514h0.256V184.8l0.511-.514v-0.514l0.511-.257q0.256-.771.512-1.542h0.255v-0.514h0.256v-0.514h0.256q0.255-.771.511-1.542h0.256v-0.771h0.255V178.12h0.256q0.127-.513.256-1.028h0.255v-0.771H216.7v-0.514h0.256v-0.514h0.255v-0.514h0.256q0.127-.771.256-1.542h0.255v-0.514h0.256v-0.771h0.256v-0.514h0.255q0.127-.771.256-1.542h0.256v-0.771h0.255v-0.772h0.256v-0.771h0.255v-0.771h0.256V166.04h0.256v-1.028h0.255v-0.771h0.256q0.127-.9.256-1.8h0.255v-1.285c2.108-6.608,2.81-14.435,2.813-23.133,0-4.727.058-9.649-1.023-13.365v-1.8h-0.256v-1.542h-0.255v-1.542h-0.256v-1.028h-0.256v-1.285h-0.255q-0.127-1.157-.256-2.313h-0.256V114.12H221.3v-0.771h-0.256v-1.028l-2.812-8.482h-0.256v-0.514h-0.255q-0.129-.771-0.256-1.542h-0.256l-0.255-1.028H216.7v-0.514h-0.256V99.47h-0.255V98.956h-0.256q-0.127-.514-0.256-1.028h-0.255V97.157h-0.256l-0.511-1.542h-0.256V95.1h-0.256V94.586h-0.255q-0.257-.771-0.512-1.542l-0.511-.257V92.273H212.6V91.759l-0.511-.514V90.731l-0.511-.257V89.96h-0.256V89.446l-0.511-.257q-0.127-.514-0.256-1.028H210.3l-0.255-.771-0.512-.257L209.281,86.1h-0.256q-0.128-.386-0.256-0.771l-0.511-.257V84.562l-0.511-.257V83.791l-0.767-.514V82.763l-0.512-.257V81.992l-0.766-.514V80.964l-0.767-.514V79.936l-0.767-.514V78.908l-1.023-.771V77.623l-1.278-1.028V76.08l-1.79-1.542V74.024L197.009,71.2l-4.346-4.626h-0.512l-1.278-1.542h-0.511l-1.023-1.285h-0.511l-0.767-1.028H187.55l-0.767-1.028h-0.512l-0.511-.771h-0.511q-0.129-.257-0.256-0.514h-0.511l-0.512-.771h-0.511q-0.127-.257-0.256-0.514h-0.511q-0.127-.257-0.256-0.514h-0.511q-0.127-.257-0.256-0.514h-0.511q-0.127-.257-0.256-0.514h-0.511q-0.127-.257-0.256-0.514h-0.511q-0.128-.257-0.256-0.514h-0.511V56.289h-0.511l-0.256-.514-1.022-.257q-0.129-.257-0.256-0.514l-1.534-.514-0.256-.514h-0.511L174,53.462h-0.512V53.2h-0.511V52.948h-0.511V52.691h-0.512V52.434h-0.511V52.177h-0.511V51.92H170.42V51.663h-0.511V51.406H169.4V51.149l-1.023-.257V50.635h-0.511V50.378H167.1V50.121l-1.023-.257V49.606h-0.767V49.349H164.8V49.092l-1.278-.257V48.578h-0.767V48.321h-0.512V48.064l-2.3-.514c-2.586-1.033-5.689-1.936-8.437-2.827h-1.278V44.466H149.2V44.209h-1.279V43.952h-1.278V43.695h-1.278V43.438h-1.534V43.181h-1.79V42.924H140V42.667c-0.87-.251-1.938-0.024-2.557-0.257v0.257l2.3,2.056v0.514l0.767,0.514v0.514l0.511,0.257C141.6,47.449,142.9,52,142.3,53.976h-0.256V55h-0.256v0.771h-0.255v0.771a11.536,11.536,0,0,1-2.813,3.341q-0.255.385-.511,0.771H137.7l-0.256.514-1.534.514v0.257H135.4V62.2h-0.767v0.257H133.35c-3.359.989-6.775-.724-8.437-2.313C124.286,59.546,123.651,59.62,123.379,58.6Zm15.851,68.884H158.4c8.138,0,13.139-.579,16.618,4.369l0.767,0.514v0.515h0.256q0.255,0.771.511,1.542h0.256c0.373,0.867.937,4.493,0.511,5.911-1.192,3.972-3.469,6.784-7.158,8.225-2.318.906-6.623,0.514-9.715,0.514H140.508c-5.96,0-13.888.851-17.641-1.542l-0.255-.514H122.1l-2.812-3.084q-0.255-.771-0.511-1.542h-0.256V141.88h-0.255q-0.129-1.414-.256-2.828h-0.256v-56.8h0.256v-1.8a11.924,11.924,0,0,1,7.925-7.968h1.79V72.225h1.534v0.257h1.79v0.257L132.583,73v0.257L133.6,73.51v0.257h0.512l0.255,0.514h0.512l1.533,1.8,0.767,0.514c2.589,3.687,2.046,9.925,2.046,16.193v34.7Z"/>
</svg>
