<svg id="Redes_sociales_iconos" data-name="Redes sociales iconos" xmlns="http://www.w3.org/2000/svg" width="256" height="256" viewBox="0 0 256 256">
  <defs>
    <style>
      .cls-1 {
        fill: inherit;
        fill-rule: evenodd;
      }
    </style>
  </defs>
  <path id="Twitter_icon" data-name="Twitter icon" class="cls-1" d="M125.051,87.411S116.538,25.3,178.138,24c-0.053-.036,17.842.237,37.751,16.44,0.243,0.035,15.022-1.479,33.033-12.917,0.108,0.022.663,13.215-20.056,28.183-0.106-.071,9.659.218,27.134-7.046-0.063.05-13.835,21.48-25.954,27.008C237.275,189.955,114,276.647,0,207.188c0,0,49.1,5.3,76.682-21.137-0.041-.048-35.116,2.134-48.369-36.4,0.119-.049,23.594,0,23.594,0s-43.23-10.981-41.29-52.843c-0.011.073,23.595,7.046,23.595,7.046S-5.294,76.755,17.7,33.394c-0.051-.147,40.681,53.179,106.175,54.017C123.722,87.6,125.051,87.411,125.051,87.411Z"/>
</svg>
