<svg xmlns="http://www.w3.org/2000/svg" width="256" height="256" viewBox="0 0 256 256">
  <metadata><?xpacket begin="﻿" id="W5M0MpCehiHzreSzNTczkc9d"?>
<x:xmpmeta xmlns:x="adobe:ns:meta/" x:xmptk="Adobe XMP Core 5.6-c138 79.159824, 2016/09/14-01:09:01        ">
   <rdf:RDF xmlns:rdf="http://www.w3.org/1999/02/22-rdf-syntax-ns#">
      <rdf:Description rdf:about=""/>
   </rdf:RDF>
</x:xmpmeta>
                                                                                                    
                                                                                                    
                                                                                                    
                                                                                                    
                                                                                                    
                                                                                                    
                                                                                                    
                                                                                                    
                                                                                                    
                                                                                                    
                                                                                                    
                                                                                                    
                                                                                                    
                                                                                                    
                                                                                                    
                                                                                                    
                                                                                                    
                                                                                                    
                                                                                                    
                                                                                                    
                           
<?xpacket end="w"?></metadata>
<defs>
    <style>
      .cls-1 {
        fill: inherit;
        fill-rule: evenodd;
      }
    </style>
  </defs>
  <path id="Continuar_sin_registrar_icono" data-name="Continuar sin registrar icono" class="cls-1" d="M99.2,10H256V244.951H242.133V21.538H118.4l-1.067,67.129L99.2,73.982V10Zm71.467,29.369L236.8,21.538V246l-66.133-16.782V39.369ZM99.2,179.92l19.2-13.636v78.667H99.2V179.92ZM7.467,99.156H64V68.738s1.278-4.759,7.467-4.2c0.186,0.051,3.2,0,3.2,0l73.6,57.689s5.29,4.7,0,9.44C148.286,131.679,80,185.164,80,185.164s-8.765,9.235-16,0c0.039-7.1,0-29.368,0-29.368H5.333s-5.34-.343-5.333-5.245,0-45.1,0-45.1-0.565-6.2,6.4-6.293C6.509,99.187,7.467,99.156,7.467,99.156Z"/>
</svg>
