<svg xmlns="http://www.w3.org/2000/svg" width="256" height="256" viewBox="0 0 256 256">
  <metadata><?xpacket begin="﻿" id="W5M0MpCehiHzreSzNTczkc9d"?>
<x:xmpmeta xmlns:x="adobe:ns:meta/" x:xmptk="Adobe XMP Core 5.6-c138 79.159824, 2016/09/14-01:09:01        ">
   <rdf:RDF xmlns:rdf="http://www.w3.org/1999/02/22-rdf-syntax-ns#">
      <rdf:Description rdf:about=""/>
   </rdf:RDF>
</x:xmpmeta>
                                                                                                    
                                                                                                    
                                                                                                    
                                                                                                    
                                                                                                    
                                                                                                    
                                                                                                    
                                                                                                    
                                                                                                    
                                                                                                    
                                                                                                    
                                                                                                    
                                                                                                    
                                                                                                    
                                                                                                    
                                                                                                    
                                                                                                    
                                                                                                    
                                                                                                    
                                                                                                    
                           
<?xpacket end="w"?></metadata>
<defs>
    <style>
      .cls-1 {
        fill:inherit;
        fill-rule: evenodd;
      }
    </style>
  </defs>
  <path id="Historias_de_viajero_icono" data-name="Historias de viajero icono" class="cls-1" d="M95.433,98.085l-6.272-1.838V95.985H88.638V95.722L87.07,95.46V95.2H86.548V94.935H85.764V94.672l-1.307-.263V94.147H83.934V93.884H83.15V93.622l-1.045-.263V93.1H81.582V92.834H80.8V92.572l-1.568-.525V91.784H78.708V91.522H78.185V91.259H77.662V91H77.14l-0.523-.525H76.094l-0.261-.525H75.31V89.684H74.788l-0.523-.525H73.742l-0.261-.525-1.045-.263-0.261-.525-1.045-.263V87.321l-0.784-.263-0.261-.525H69.561V86.271l-0.784-.263-0.261-.525H67.993L67.47,84.7H66.948l-0.523-.788H65.9l-0.523-.788H64.857l-1.045-1.313H63.289l-1.829-2.1H60.937l-1.568-1.838-0.523-.263V77.083l-0.523-.263V76.558l-1.568-1.313V74.72l-1.045-.787-0.261-.788-0.523-.263V72.358l-0.784-.525V71.308l-0.523-.263V70.52L53.1,70.258l-0.261-1.05-0.523-.263V68.42l-0.523-.525V67.37H51.529V66.845H51.268V66.32H51.006l-0.523-1.575H50.222c-2.284-5.158-3.7-14.347-1.568-20.739l0.261-2.1h0.261l0.261-1.575H49.7V39.8h0.261V39.017h0.261l0.261-1.05h0.261V37.18h0.261V36.655h0.261V36.13l0.523-.263,0.523-1.575,0.523-.262,0.261-1.05h0.261l0.261-.788,0.523-.263V31.4l0.784-.525V30.354l0.784-.525V29.3l1.045-.787V27.991l2.091-1.838,0.261-.788,0.784-.525,0.261-.525h0.523l2.352-2.625H63.55l0.784-1.05h0.523l0.784-1.05h0.523l0.523-.788h0.523l0.523-.788h0.523l0.261-.525h0.523l0.261-.525h0.523l0.261-.525h0.523l0.261-.525,1.045-.262,0.261-.525H72.7V14.865H73.22l0.261-.525,1.568-.525,0.261-.525h0.523l0.523-.525h0.523V12.5H77.4V12.24h0.523V11.978h0.523V11.715h0.523V11.453h0.523V11.19h0.523V10.928l1.568-.525V10.14h0.784V9.877l1.045-.263V9.352H84.2V9.09l1.045-.262V8.565L86.809,8.3V8.04h0.523V7.777L88.9,7.515V7.252h0.523V6.99l1.568-.263V6.465h0.784V6.2h0.784V5.94h0.784V5.677l2.613-.525V4.889l2.091-.263V4.364H98.83V4.1h1.045V3.839h1.045V3.577l2.352-.263V3.052l12.805-2.1,5.488-.263V0.427h4.7a30.349,30.349,0,0,1,10.193,0h4.7V0.689H144.3V0.952h2.352V1.214h2.352c1.463,0.425,3.533.622,4.965,1.05h1.568V2.527l2.613,0.263V3.052h1.307V3.314h1.045V3.577h1.046V3.839H162.6V4.1h1.045V4.364l2.091,0.263V4.889l1.829,0.263V5.415h0.784V5.677h0.784V5.94h0.784V6.2H170.7V6.465h0.784V6.727l2.352,0.525V7.515h0.523V7.777l1.568,0.263,10.192,4.725,0.261,0.525H186.9v0.262h0.523l0.522,0.525h0.523l0.261,0.525h0.523v0.262h0.523v0.263l0.784,0.263,0.261,0.525,1.045,0.263q0.132,0.263.262,0.525h0.522q0.263,0.394.523,0.788H193.7l0.261,0.525h0.523L195,18.8h0.523l0.523,0.788h0.522l0.784,1.05h0.523l1.045,1.313h0.523l2.614,2.888,2.613,2.363v0.525l1.045,0.788v0.525l0.523,0.262v0.263l0.523,0.263v0.525l0.522,0.262v0.525l0.784,0.525v0.525l0.523,0.263,0.261,1.05,0.523,0.263q0.261,0.788.523,1.575L210.42,35.6q0.393,1.181.784,2.363h0.262l0.261,1.05h0.261l1.83,6.3v1.575h0.261l0.261,6.563h-0.261v2.625h-0.261v1.575h-0.262v1.05H213.3v1.05h-0.261v1.05h-0.262l-0.522,2.363h-0.262v0.525h-0.261v0.788h-0.261q-0.263.788-.523,1.575h-0.261v0.525H210.42v0.525h-0.261v0.525H209.9q-0.262.788-.523,1.575h-0.261q-0.132.394-.262,0.787l-0.522.263v0.525h-0.262l-0.261.788-0.523.263v0.525l-0.784.525v0.525l-1.045.788V74.72l-1.307,1.05V76.3l-1.568,1.313-2.352,2.625h-0.523l-1.568,1.838h-0.522l-0.784,1.05h-0.523q-0.261.394-.523,0.788L195,84.171l-0.261.525h-0.523l-0.261.525h-0.523l-0.522.788h-0.523l-0.261.525-1.046.263v0.262l-0.784.263-0.261.525-1.045.263q-0.131.263-.262,0.525l-1.568.525-0.261.525h-0.523l-0.522.525h-0.523v0.263h-0.523v0.263h-0.522V91h-0.523v0.263h-0.523v0.262h-0.522v0.263H182.2v0.263h-0.523v0.262l-1.568.525V93.1h-0.784v0.262l-1.045.263v0.263h-0.784v0.263h-0.523V94.41h-0.784v0.263h-0.522v0.263h-0.784V95.2h-0.523V95.46L172,95.985v0.263H171.22V96.51h-0.784v0.263h-0.784v0.263h-0.784V97.3h-0.784V97.56H167.3v0.263l-12.021,2.888h-1.568c-2.081.62-4.9,0.7-7.056,1.313h-2.614v0.262h-2.874v0.263h-4.443v0.262h-5.749l-9.931-.262v-0.263l-5.75-.262c-0.614,1.056-1.78,1.528-2.613,2.362a51.474,51.474,0,0,1-6.011,5.776l-3.136,3.413-2.613,2.362-1.045,1.313H99.353v0.262l-1.045.788c-0.936.938-1.7,2.2-2.875,2.888v-23.1ZM221.4,76.033a6.665,6.665,0,0,1,1.83,1.05h0.522q0.131,0.262.262,0.525h0.522q0.13,0.263.262,0.525l1.045,0.263,0.261,0.525h0.523q0.261,0.394.523,0.788h0.522l0.523,0.788h0.523l1.045,1.313h0.523l1.829,2.1,1.829,1.575v0.525l1.046,0.788v0.525l0.522,0.263v0.525l0.784,0.525q0.13,0.525.262,1.05l0.522,0.263q0.131,0.525.262,1.05H237.6l0.261,1.05h0.262v0.788h0.261v0.525h0.261v0.788h0.262v0.787h0.261v0.788h0.261v1.05a18.761,18.761,0,0,1,0,9.188v1.051h-0.261v1.05h-0.261v0.787h-0.262v0.525h-0.261v0.788h-0.261q-0.263.788-.523,1.575h-0.261q-0.13.525-.262,1.05l-0.522.263q-0.13.525-.262,1.05l-0.522.262v0.525l-0.784.525v0.525l-0.784.525v0.525l-1.83,1.576-2.613,2.887h-0.523l-0.784,1.05H227.93l-0.523.788h-0.523l-0.261.525-0.784.262v0.263h-0.523l-0.261.525-1.045.263q-0.132.262-.262,0.525l-1.045.262-0.261.525-1.568.525v0.263h-0.523v0.262h-0.523v0.263h-0.522v0.262l-1.568.525V128.8h-0.784v0.262h-0.523v0.263h-0.784v0.262h-0.523v0.263H214.34v0.262h-0.522v0.263l-1.568.263V130.9h-0.784v0.263h-0.784v0.262H209.9v0.263h-1.046v0.262l-1.829.263v0.262h-1.045v0.263h-1.046V133h-1.307a54.309,54.309,0,0,1-11.76,1.838v12.338H191.6a15.058,15.058,0,0,0-2.875-3.15l-4.181-4.463-1.568-1.312q-1.437-1.707-2.875-3.413h-2.613c-0.842-.7-3.178-0.152-4.443-0.525l-8.885-1.838-8.624-2.888v-0.262h-0.523v-0.263h-0.784V128.8l-1.568-.525v-0.263h-0.522V127.75H151.62v-0.263H151.1v-0.262h-0.522v-0.263h-0.523l-0.523-.525h-0.522q-0.132-.263-0.262-0.525l-1.045-.262v-0.263l-0.784-.262-0.261-.525-1.046-.263-0.522-.788h-0.523l-0.261-.525H143.78L143,121.974c-2.028-1.469-4.282-2.984-5.488-5.25l8.624-.525v-0.263h2.613v-0.262h2.091v-0.263h1.829v-0.262h1.83v-0.263h1.568v-0.262h1.306v-0.263l4.182-.525v-0.262l3.4-.525v-0.263l3.136-.525V112h1.045v-0.262l1.83-.263v-0.262l2.613-.525v-0.263h0.784v-0.262h0.784V109.9l2.352-.525v-0.262h0.523v-0.263l1.568-.262v-0.263h0.522v-0.262h0.784V107.8h0.523v-0.262H182.2v-0.263l1.307-.262v-0.263h0.522v-0.262h0.784v-0.263l1.046-.263V105.7h0.522v-0.263H186.9v-0.262h0.784V104.91l1.568-.525v-0.262h0.523V103.86H190.3V103.6h0.523v-0.263h0.523v-0.262h0.522l0.523-.525h0.523l0.261-.525,1.568-.525,0.261-.525,1.568-.526v-0.262l0.784-.263q0.132-.263.262-0.525l1.045-.263V98.872l0.784-.263,0.261-.525h0.523V97.822l0.784-.263,0.261-.525H201.8l0.523-.788h0.523l0.261-.525h0.522q0.263-.394.523-0.788h0.523l0.261-.525h0.262l0.261-.525h0.523l0.784-1.05h0.522l1.307-1.575h0.523q1.174-1.312,2.352-2.625l3.4-3.15V84.959l1.568-1.313V83.121l1.045-.787V81.808l0.784-.525V80.758l0.784-.525V79.708l0.523-.263V78.921l0.523-.263V78.133l0.522-.263V77.346h0.262V76.821h0.261Zm-133.8,117.61a2.206,2.206,0,0,1-.523,1.05H86.809v0.525l-0.523.262c-0.3.586-.46,3.943,0,4.463,0.877,3.9,5.357,3.938,10.192,3.938,7.878,0,17.631-.905,23.259,1.575v0.263l1.568,0.525v0.262h0.523v0.263l1.045,0.262,0.261,0.525h0.523l0.261,0.526h0.523l0.261,0.525h0.523q0.524,0.656,1.045,1.312h0.523l1.829,2.1,0.784,0.525v0.525l1.046,0.788v0.525l0.784,0.525v0.525l0.523,0.263v0.525l0.522,0.262q0.261,0.787.523,1.575l0.523,0.263v0.787h0.261v0.525h0.261q0.131,0.525.262,1.051h0.261v0.787h0.261v0.788H134.9v0.787h0.261v0.788h0.261v1.05h0.262V226.2c0.739,2.47.522,6.226,0.522,9.45v20.215H17.033V235.384c0-3.3-.241-7.18.523-9.713v-1.313c2.088-6.586,4.875-11.888,9.931-15.489l0.523-.787h0.523l0.261-.526,0.784-.262v-0.263l1.568-.525,0.261-.525c5.345-2.865,14.852-2.1,23-2.1,3.457,0,7.275.307,9.408-1.05l0.261-.525H64.6l0.523-.525c0.985-1.357,1.064-3.087,1.045-5.513a2.251,2.251,0,0,1-.523-1.05H65.379v-0.525l-1.045-.788v-0.262H63.812l-0.261-.525-1.307-.263v-0.262H61.46V192.33l-1.568-.525v-0.262H59.369V191.28l-1.045-.262-0.261-.525-1.045-.263-0.261-.525H56.233l-0.261-.525H55.449l-0.523-.788H54.4l-0.523-.787H53.358l-1.568-1.838H51.268l-0.261-.525-0.784-.525v-0.525l-1.829-1.575v-0.525l-1.045-.788-0.261-.787-0.523-.263v-0.525l-0.523-.262-0.261-1.05-0.523-.263L45,177.1l-0.523-.263-0.261-1.05H43.95l-0.261-1.05H43.427v-0.787H43.166L42.9,172.9H42.643l-1.829-6.563-0.261-3.676H40.291v-3.15a26.415,26.415,0,0,1,1.045-7.876v-1.312H41.6v-0.788h0.261v-0.787h0.261v-0.788h0.261l0.261-1.575H42.9v-0.525h0.261v-0.788h0.261L43.95,143.5h0.261v-0.525h0.261l0.261-1.05,0.523-.263,0.261-1.05,0.523-.262v-0.525H46.3l0.261-.788,0.523-.262v-0.525l0.523-.263,0.261-.787,1.307-1.051v-0.525l2.352-2.1,0.784-1.05h0.523l1.045-1.312,0.784-.263,0.261-.525h0.523l0.261-.525,0.784-.263v-0.262h0.523l0.261-.525,1.045-.263,0.261-.525,1.045-.262v-0.263l1.568-.525V126.7h0.784v-0.263l1.045-.262v-0.263h0.784V125.65H64.6v-0.263h0.784v-0.262h0.784v-0.263l2.091-.262v-0.263l2.875-.263v-0.262H74v-0.263l7.056,0.263v0.262h1.568v0.263h1.307V124.6H84.98v0.262h1.045v0.263h0.784v0.262h0.784v0.263h0.784v0.262h0.784v0.263h0.523v0.262h0.784V126.7l1.568,0.525v0.262h0.523v0.263l1.568,0.525,0.261,0.525,1.045,0.262,0.261,0.525h0.523l0.523,0.788h0.523l0.261,0.525h0.523l1.045,1.313h0.523l2.352,2.625,1.568,1.312v0.526l1.046,0.787,0.261,0.788,0.523,0.262v0.525l0.522,0.263,0.262,0.787h0.261l0.261,1.05,0.523,0.263q0.261,0.787.523,1.575h0.261V143.5h0.261v0.525H108.5l0.522,1.575h0.262v0.788h0.261v0.525h0.261q0.132,0.788.262,1.575h0.261v1.05h0.261v0.788h0.262v1.312h0.261v1.05h0.261v1.576h0.262v2.625H111.9c0.468,1.685-.188,6.457-0.523,7.613v1.575h-0.261v1.313q-0.915,2.888-1.829,5.775l-3.92,7.088-0.784.525V181.3l-1.307,1.05v0.525l-2.352,2.1-1.045,1.312H99.353l-1.045,1.313-0.784.262-0.261.525H96.74l-0.261.525-0.784.263v0.262l-1.045.263-0.261.525-1.568.525-0.261.525H92.036v0.263H91.513v0.262l-2.352.788C88.486,192.966,88.512,193.4,87.593,193.643Zm60.63,62.218V239.847l0.261-7.876h0.261v-1.05h0.262v-1.05h0.261v-0.788h0.261V228.3h0.262l0.261-1.05h0.261v-0.788h0.262v-0.525h0.261v-0.525l0.523-.263,0.261-1.05,0.523-.262v-0.525l0.784-.525v-0.525l1.306-1.05,1.83-2.1h0.522l0.262-.525h0.522l0.262-.525,4.181-1.837,3.92-.263a26.119,26.119,0,0,1,5.749-.262h10.454v-0.263l1.306-.262c0.432-.737,1.054-0.894,1.307-1.838,0.522-.5.006-0.137,0.261-0.788,0.508-1.3,0-1.964-.261-3.15l-1.307-1.05v-0.262h-0.522v-0.263h-0.784v-0.263h-0.784v-0.262l-1.568-.525v-0.263l-1.046-.262-0.261-.525h-0.523l-0.261-.525h-0.523l-0.261-.525h-0.523l-0.784-1.05c-4.953-3.582-7.671-8.672-9.669-15.227v-1.575a19.882,19.882,0,0,1,.261-9.976v-1.312h0.262v-0.788h0.261v-0.787h0.261v-0.788h0.262v-0.787H167.3v-0.526h0.261v-0.787h0.262l0.261-1.05h0.261q0.13-.525.262-1.05l0.522-.263q0.131-.525.262-1.05l0.522-.262v-0.525l0.784-.525v-0.526l1.046-.787V164.5l2.09-1.838,1.046-1.312H175.4l0.523-.788h0.523l0.522-.788h0.523l0.261-.525,1.046-.262,0.261-.525,1.045-.263V157.94l1.568-.525v-0.263h0.784V156.89h0.523v-0.263h0.784v-0.262h0.784V156.1h1.045V155.84h1.046v-0.263h1.306v-0.262h2.091a12.4,12.4,0,0,1,4.965-.263v0.263l3.4,0.262v0.263h1.045V156.1h1.045v0.263h0.784v0.262h0.785v0.263h0.522v0.262h0.784v0.263l1.568,0.525V158.2h0.523v0.263l1.045,0.262q0.13,0.262.262,0.525h0.522q0.131,0.262.262,0.525h0.522c0.087,0.175.174,0.351,0.262,0.526h0.522l0.523,0.787H209.9q1.175,1.313,2.352,2.625l1.568,1.313v0.525l0.784,0.525V166.6l0.522,0.263c0.087,0.262.174,0.525,0.262,0.787h0.261v0.525l0.523,0.263v0.525l0.522,0.525v0.525h0.262v0.525h0.261l0.261,1.05h0.262v0.788H218V172.9h0.261q0.131,0.788.262,1.575h0.261v1.05c0.969,2.912,1.48,7.726.523,11.026v1.575h-0.262v1.05h-0.261v0.788h-0.261v1.05H218.26v0.525H218v0.787h-0.261q-0.132.657-.262,1.313h-0.261l-0.261,1.05h-0.262l-0.261,1.05-0.523.263v0.525l-0.522.262v0.525h-0.262l-0.261.788-0.523.262v0.525l-1.306,1.05v0.525l-1.568,1.313q-0.132.262-.262,0.525h-0.522l-1.046,1.313h-0.522q-0.263.393-.523,0.787h-0.523l-0.261.525h-0.523l-0.261.525H206.5v0.263h-0.522q-0.132.263-.262,0.525c-1.691,1.064-4.376,1-4.965,3.15-1.257,1.057-.568,3.056-0.262,4.463l1.307,1.05v0.263l1.307,0.262V215.7h4.443c3.34,0,9.035-.507,11.76.262h2.874v0.263l2.091,0.262v0.263h0.784v0.262l1.307,0.263v0.262l1.045,0.263v0.262l1.045,0.263,0.262,0.525h0.522v0.262l0.784,0.263,0.262,0.525H230.8l0.784,1.05h0.523l1.568,1.838,0.523,0.262v0.525l1.045,0.788v0.525l0.784,0.525v0.525l0.523,0.263v0.525l0.522,0.525v0.525h0.262V228.3H237.6v0.525h0.261q0.13,0.525.262,1.05h0.261q0.391,1.838.784,3.675h0.261q0.13,3.675.262,7.351v14.7c-1.923.7-6.153,0.263-8.624,0.263H148.223Z"/>
</svg>
