<svg id="Redes_sociales_iconos" data-name="Redes sociales iconos" xmlns="http://www.w3.org/2000/svg" width="256" height="256" viewBox="0 0 256 256">
  <defs>
    <style>
      .cls-1 {
      	fill: inherit;
        fill-rule: evenodd;
      }
    </style>
  </defs>
  <path id="Vine_icon" data-name="Vine icon" class="cls-1" d="M16.05,38.4H60.81s3.991,102.136,65.541,176c0.071,0.027,1.6,0,1.6,0a253.821,253.821,0,0,0,41.563-59.2,18.585,18.585,0,0,0,0-3.2s-44.566-19.115-46.359-83.2c-0.133-.13.281-68.813,60.746-68.8-0.056.06,59.487-2.607,55.95,68.8,0.1-.062.557,23.541-7.993,38.4-0.048.023-22.222,8.449-38.365-12.8,0.045-.044,4.945-5.213,4.8-25.6-0.132.005,2.144-30.211-15.985-28.8-0.066-.2-16.28-1.366-15.986,28.8,0.079,0.085-6.527,68.743,73.534,59.2-0.082-.138,0,32,0,32s-3.65,3.453-30.373,3.2c0.031,0.006-27.759,63.454-76.731,92.8-12.963-.045-17.585,0-17.585,0S35.423,212.644,16.05,40A15.033,15.033,0,0,1,16.05,38.4Z"/>
</svg>
