<svg xmlns="http://www.w3.org/2000/svg" width="256" height="256" viewBox="0 0 256 256">
  <metadata><?xpacket begin="﻿" id="W5M0MpCehiHzreSzNTczkc9d"?>
<x:xmpmeta xmlns:x="adobe:ns:meta/" x:xmptk="Adobe XMP Core 5.6-c138 79.159824, 2016/09/14-01:09:01        ">
   <rdf:RDF xmlns:rdf="http://www.w3.org/1999/02/22-rdf-syntax-ns#">
      <rdf:Description rdf:about=""/>
   </rdf:RDF>
</x:xmpmeta>
                                                                                                    
                                                                                                    
                                                                                                    
                                                                                                    
                                                                                                    
                                                                                                    
                                                                                                    
                                                                                                    
                                                                                                    
                                                                                                    
                                                                                                    
                                                                                                    
                                                                                                    
                                                                                                    
                                                                                                    
                                                                                                    
                                                                                                    
                                                                                                    
                                                                                                    
                                                                                                    
                           
<?xpacket end="w"?></metadata>
<defs>
    <style>
      .cls-1 {
        fill:inherit;
        fill-rule: evenodd;
      }
    </style>
  </defs>
  <path id="Web_icono" data-name="Web icono" class="cls-1" d="M126.063,2.444C7.239,7.97,4.171,119.185,5.093,125.2,10.4,249.034,136.161,249.505,134,245.977c-0.109.043-2.975-14.85-2.975-14.85s-30,.538-59.493-14.85c0.777,0.305,0-1.979,0-1.979s2.544,0.372,3.966-.99c1.647-3.74-.992-4.95-0.992-4.95s-3.455-3.354-2.975-11.88,7.932-6.93,7.932-6.93,21.409-7.937,20.823-23.759C69.531,163.207,80.514,146,58.637,144.01c-18.414-2.049-26.772,28.709-26.772,28.709s-8.227-8.975-10.907-34.649c-0.191.094,28.01-11.777,31.73-20.79,1.424-3-6.941-7.919-6.941-7.919s0.026-26.207,0-24.749c2.834-8.1,29.164-9.765,26.772-21.779C71.545,50.349,61.612,40.063,61.612,40.063S104,7.1,144.9,20.263c4.556,38.826,18.4,26.2,45.612,54.448,21,32.014-2.975,52.468-2.975,52.468s53.7,34.6,54.536,34.649C254.39,141.777,261.067,9.988,128.046,2.444c-134.366-3.226-1.983,0-1.983,0h0Zm-4.957,103.947s0.3-4.411,4.957-1.98c0.066,0.072,124.937,79.2,124.937,79.2l-49.578,9.9s27.379,39.6,27.764,40.589c7.377,15.2-9.78,29.062-21.815,17.819-16.5-22.261-29.746-41.578-29.746-41.578l-28.756,42.568Z"/>
</svg>
