<svg id="Redes_sociales_iconos" data-name="Redes sociales iconos" xmlns="http://www.w3.org/2000/svg" width="256" height="256" viewBox="0 0 256 256">
  <defs>
    <style>
      .cls-1 {
        fill: inherit;
        fill-rule: evenodd;
      }
    </style>
  </defs>
  <path id="Youtube_icon" data-name="Youtube icon" class="cls-1" d="M53,15H70l9,37h1l9-37h17L88,68v39H71V68Zm53,36s1.1-14.04,21-14,20,14,20,14V95s0,13.984-21,14-20-14-20-14V51Zm15,3a4.989,4.989,0,0,1,5-4s1,0,1,0,4.66-.379,5,4c0.021,4.259,0,37,0,37s-0.029,4.954-5,5-1,0-1,0-4.99.611-5-5S121,54,121,54Zm36-15h15V93s1.9,6.039,11-3c-0.058-11.48,0-51,0-51h14v68H183v-7s-19.792,19.252-26,0C156.97,80.083,157,39,157,39ZM7,169s0.194-42.151,42-42,160,0,160,0,40.736-.479,41,42,0,43,0,43-0.4,39.859-39,40-165,0-165,0S6.623,253.352,7,210,7,169,7,169Zm34-26H84v13H70v70H56V156H41V143Zm48,22h13v48s0.092,7.245,10-1c-0.062-9.825,0-47,0-47h12v61H112v-6s-19.969,15.1-23,0C89.016,204.862,89,165,89,165Zm44-22h13v27s2.79-5.976,11-6c-0.045.018,10.9-1,12,13,0.042,13.952,0,41,0,41s-4.821,17.666-23,4c-0.12.046,0,4,0,4H133V143Zm12,34s6.805-8.452,12,2c0.01,9.124,0,34,0,34s-1.55,10.205-12,2C144.976,203.9,145,177,145,177Zm30,2s2.3-15.175,19-15c0.108-.008,16.753-0.921,17,15-0.038,15.906,0,18,0,18H187v15s-0.242,5.925,6,6,6-6,6-6v-6h12s1.4,21.361-15,21c0.024,0.006-9,0-9,0s-12.086-.032-12-21C175.038,185.023,175,179,175,179Zm12,9v-9s0.026-5.051,6-5,6,4,6,4v10H187Z"/>
</svg>
