<svg id="Otros" xmlns="http://www.w3.org/2000/svg" width="256" height="256" viewBox="0 0 256 256">
  <defs>
    <style>
      .cls-1 {
      	fill: inherit;
        fill-rule: evenodd;
      }
    </style>
  </defs>
  <path id="Imagen_en_tiempo_real_icono" data-name="Imagen en tiempo real icono" class="cls-1" d="M26.193,82l6.745,6.719C6.467,109.9.694,142.525,28.269,167.539V167.8l-7.783,5.685c-3.917-4.707-8.715-8.431-12.193-13.7C-5.039,139.6-1.173,112.194,11.925,95.18,15.975,89.919,21.652,86.706,26.193,82Zm30.352,0H200.265v92H56.546V82Zm172.515,0c22.921,14.015,37.566,48.872,17.381,78.3-3.057,4.458-6.906,11.144-12.193,13.18l-7-5.944c27.524-25.058,22.5-60.062-4.67-78.82V88.461ZM63.55,88.978q-0.13,38.89-.26,77.787h0.26L106.1,133.685l16.862,12.922,0.779-.259L147.6,122.315l1.037,0.258,44.621,44.191V89.236L193,88.978H63.55ZM42.8,98.539L50.06,105c-9.577,7.5-21.663,21.035-12.452,37.73l9.08,10.337-0.259.259c-2.37,1.745-5.012,4.783-7.783,5.168-3.026-3.359-5.359-4.767-9.08-10.078C16.6,125.507,30.337,106.23,42.8,98.539Zm169.4,0c16.834,8.551,30.617,38.506,3.632,60.214l-7-5.686v-0.516s21.44-15.11,7-38.764c-2.661-3.643-6.814-6.008-10.377-8.787l0.26-.258Q208.955,101.64,212.2,98.539ZM83.989,102c13.545-1.61,15.244,13.967,4.988,17.954C76.918,122.111,72.31,106.4,83.989,102Z"/>
</svg>
